<?xml version="1.0" standalone="no"?>
<!DOCTYPE svg PUBLIC "-//W3C//DTD SVG 1.1//EN" "http://www.w3.org/Graphics/SVG/1.1/DTD/svg11.dtd" >
<svg>
<metadata>
Created by FontForge 20090622 at Sun Jun 17 18:27:35 2018
 By deploy user
Copyright (c) 2017 by kamaruddin_amarlettering. All rights reserved.
</metadata>
<defs>
<font id="Mansfield" horiz-adv-x="372" >
  <font-face 
    font-family="Mansfield"
    font-weight="400"
    font-stretch="normal"
    units-per-em="1000"
    panose-1="2 0 5 7 0 0 0 2 0 2"
    ascent="800"
    descent="-200"
    x-height="207"
    cap-height="697.5"
    bbox="-1426.5 -668.786 1623.05 910.667"
    underline-thickness="50"
    underline-position="-50"
    unicode-range="U+000D-U+F6C0"
  />
<missing-glyph horiz-adv-x="250" 
 />
    <glyph glyph-name="a_m" unicode="am" horiz-adv-x="1046" 
d="M500 97l51 61q34 40 56.5 32t14.5 -53l-5 -36q-2 -13 3 -12q3 1 16 16q5 5 15.5 17.5t16.5 18.5q34 45 64 76q29 28 52 18t19 -49q-2 -20 -16 -45.5t-40.5 -62t-31.5 -44.5q-7 -10 -11 -16.5t-9 -16.5t-7 -15t-3 -11.5t2.5 -8t9.5 -1.5t17.5 4.5t27.5 13.5q52 29 167 114
q74 54 137 105q3 4 7.5 2.5t5 -5.5t-2.5 -8q-223 -178 -310 -223q-60 -33 -78 -8.5t12 78.5q8 16 48.5 75.5t47.5 86.5q8 29 -8 23q-10 -4 -25 -19q-19 -19 -64 -73q-18 -24 -33 -38q-34 -37 -54 -18q-7 5 -10 19q-3 16 0 44q7 25 3 27.5t-23 -18.5q-61 -72 -83 -89
q-20 -17 -29.5 -12t0.5 29q65 135 75 161q9 23 1.5 26t-25.5 -11q-29 -20 -111 -87t-152 -114.5t-124 -61.5q-49 -13 -62.5 9.5t-1.5 65.5q15 64 55 126l-123 -121q-30 -25 -51 -16.5t-16 35.5q6 34 40.5 76.5t66.5 47.5q43 8 43 -40l70 72q5 5 14 4.5t16 -5.5t4 -12
q-3 -6 -10.5 -18.5l-11.5 -19.5q-51 -88 -66 -127q-5 -13 -7.5 -22t-4 -20.5t2.5 -15.5t13 -7t26 5q61 20 128 66.5t140.5 107t113.5 86.5q27 19 44.5 9.5t10.5 -44.5q-4 -22 -20 -66t-28 -67zM52 158q0 24 -8 31.5t-28 -8.5q-43 -40 -64 -85q-9 -22 -5.5 -28t24.5 12
q53 49 81 78z" />
    <glyph glyph-name="b_m" unicode="bm" horiz-adv-x="997" 
d="M451 97l51 61q34 40 56.5 32t14.5 -53l-5 -36q-2 -13 3 -12q3 1 16 16q5 5 15.5 17.5t16.5 18.5q34 45 64 76q29 28 52 18t19 -49q-2 -20 -16 -45.5t-40.5 -62t-31.5 -44.5q-7 -10 -11 -16.5t-9 -16.5t-7 -15t-3 -11.5t2.5 -8t9.5 -1.5t17.5 4.5t27.5 13.5q52 29 167 114
q74 54 137 105q3 4 7.5 2.5t5 -5.5t-2.5 -8q-223 -178 -310 -223q-60 -33 -78 -8.5t12 78.5q8 16 48.5 75.5t47.5 86.5q8 29 -8 23q-10 -4 -25 -19q-19 -19 -64 -73q-18 -24 -33 -38q-34 -37 -54 -18q-7 5 -10 19q-3 16 0 44q7 25 3 27.5t-23 -18.5q-61 -72 -83 -89
q-20 -17 -29.5 -12t0.5 29q65 135 75 161q9 23 1.5 26t-25.5 -11q-18 -12 -59 -43t-67 -48.5t-64.5 -39.5t-76 -33.5t-76.5 -13.5q-38 -41 -87 -62.5t-92 -15.5q-28 1 -42 17t-5 34t41 25q2 0 6 0.5t5 0.5q47 114 125 235.5t157 191.5q44 37 74 46q55 21 81.5 -8t-10.5 -80
q-36 -46 -127 -104.5t-155 -82.5q-62 -98 -101 -192h4q81 101 120 125q28 18 46 7t13 -44q-3 -22 -37 -74q40 2 88 22.5t78 40t83.5 59.5t69.5 51q27 19 44.5 9.5t10.5 -44.5q-4 -22 -20 -66t-28 -67zM305 528q-26 -12 -73 -55q-65 -67 -137 -179q67 30 144 79.5t110 93.5
q29 38 13.5 58t-57.5 3zM5 80q65 6 72 7q33 40 47 73q15 39 -1 36q-5 -1 -12 -5q-37 -26 -106 -111zM-77 38q0 2 2 8t3 10q-23 -5 -30.5 -15.5t2 -19.5t30.5 -9q61 -4 128 57l-66 -6q-22 -25 -36 -46q-7 -9 -22 1t-11 20z" />
    <glyph glyph-name="c_m" unicode="cm" horiz-adv-x="971" 
d="M425 97l51 61q34 40 56.5 32t14.5 -53l-5 -36q-2 -13 3 -12q3 1 16 16q5 5 15.5 17.5t16.5 18.5q34 45 64 76q29 28 52 18t19 -49q-2 -20 -16 -45.5t-40.5 -62t-31.5 -44.5q-7 -10 -11 -16.5t-9 -16.5t-7 -15t-3 -11.5t2.5 -8t9.5 -1.5t17.5 4.5t27.5 13.5q52 29 167 114
q74 54 137 105q3 4 7.5 2.5t5 -5.5t-2.5 -8q-223 -178 -310 -223q-60 -33 -78 -8.5t12 78.5q8 16 48.5 75.5t47.5 86.5q8 29 -8 23q-10 -4 -25 -19q-19 -19 -64 -73q-18 -24 -33 -38q-34 -37 -54 -18q-7 5 -10 19q-3 16 0 44q7 25 3 27.5t-23 -18.5q-61 -72 -83 -89
q-20 -17 -29.5 -12t0.5 29q65 135 75 161q9 23 1.5 26t-25.5 -11l-52.5 -37l-54.5 -38.5t-50 -34l-56.5 -36.5t-54.5 -32l-63 -34q-28 -14 -55.5 -23t-57.5 -5t-42 28q-18 39 14 99.5t72 90.5q12 8 23.5 12.5t24 6t22.5 -5.5t14 -23q1 -4 -2.5 -6.5t-7.5 -1.5t-5 6
q-6 20 -35 -1q-2 -1 -3 -2q-25 -18 -54 -63t-34 -80q-12 -73 96 -28q7 2 26 11q60 29 115 64t118 81t94 66q27 19 44.5 9.5t10.5 -44.5q-4 -22 -20 -66t-28 -67z" />
    <glyph glyph-name="d_m" unicode="dm" horiz-adv-x="1068" 
d="M522 97l51 61q34 40 56.5 32t14.5 -53l-5 -36q-2 -13 3 -12q3 1 16 16q5 5 15.5 17.5t16.5 18.5q34 45 64 76q29 28 52 18t19 -49q-2 -20 -16 -45.5t-40.5 -62t-31.5 -44.5q-7 -10 -11 -16.5t-9 -16.5t-7 -15t-3 -11.5t2.5 -8t9.5 -1.5t17.5 4.5t27.5 13.5q52 29 167 114
q74 54 137 105q3 4 7.5 2.5t5 -5.5t-2.5 -8q-223 -178 -310 -223q-60 -33 -78 -8.5t12 78.5q8 16 48.5 75.5t47.5 86.5q8 29 -8 23q-10 -4 -25 -19q-19 -19 -64 -73q-18 -24 -33 -38q-34 -37 -54 -18q-7 5 -10 19q-3 16 0 44q7 25 3 27.5t-23 -18.5q-61 -72 -83 -89
q-20 -17 -29.5 -12t0.5 29q65 135 75 161q9 23 1.5 26t-25.5 -11q-42 -32 -117.5 -101.5t-122.5 -105.5q-90 -71 -135 -91q-60 -22 -82.5 -0.5t-15.5 74.5q10 75 50 157q-70 -79 -106 -115q-28 -24 -49.5 -15.5t-19.5 33.5q2 35 33 77t63 47q42 8 47 -40l60 70
q93 170 194 258q43 36 75 46q54 21 80.5 -8t-10.5 -80q-36 -46 -127 -104.5t-155 -82.5l-1 -2q-29 -49 -63 -125t-42 -126q-7 -40 6.5 -53.5t58.5 5.5q38 19 132 90q42 33 119 103.5t120 102.5q26 20 44 10t11 -45q-4 -22 -20 -66t-28 -67zM411 528q-25 -11 -73 -55
q-58 -59 -138 -179q67 30 144 79.5t111 93.5q28 38 13 58t-57 3zM56 159q-6 54 -38 22q-42 -42 -57 -85q-7 -22 -2.5 -28t24.5 12z" />
    <glyph glyph-name="e_m" unicode="em" horiz-adv-x="953" 
d="M407 97l51 61q34 40 56.5 32t14.5 -53l-5 -36q-2 -13 3 -12q3 1 16 16q5 5 15.5 17.5t16.5 18.5q34 45 64 76q29 28 52 18t19 -49q-2 -20 -16 -45.5t-40.5 -62t-31.5 -44.5q-7 -10 -11 -16.5t-9 -16.5t-7 -15t-3 -11.5t2.5 -8t9.5 -1.5t17.5 4.5t27.5 13.5q52 29 167 114
q74 54 137 105q3 4 7.5 2.5t5 -5.5t-2.5 -8q-223 -178 -310 -223q-60 -33 -78 -8.5t12 78.5q8 16 48.5 75.5t47.5 86.5q8 29 -8 23q-10 -4 -25 -19q-19 -19 -64 -73q-18 -24 -33 -38q-34 -37 -54 -18q-7 5 -10 19q-3 16 0 44q7 25 3 27.5t-23 -18.5q-61 -72 -83 -89
q-20 -17 -29.5 -12t0.5 29q65 135 75 161q9 23 1.5 26t-25.5 -11l-88 -63.5l-90 -65t-79 -51t-90 -47.5q-72 -29 -106 -5q-28 23 -21.5 63t34 82t59.5 65q35 22 58.5 17t22 -32t-33.5 -52q-37 -26 -73 -36q-1 0 -6.5 -1t-7.5 -2q-30 -54 -17 -82q4 -7 8.5 -11t12 -5
t12.5 -1.5t15 2.5l13.5 4t13.5 5t11 4q37 16 72.5 35.5t76 47l62.5 43t71 53l62 47.5q26 20 44 10t11 -45q-4 -22 -20 -66t-28 -67zM56 214q-27 -19 -59 -73q36 9 68 33q30 23 28 43q-2 17 -25 5q-6 -3 -12 -8z" />
    <glyph glyph-name="f_m" unicode="fm" horiz-adv-x="967" 
d="M421 97l51 61q34 40 56.5 32t14.5 -53l-5 -36q-2 -13 3 -12q3 1 16 16q5 5 15.5 17.5t16.5 18.5q34 45 64 76q29 28 52 18t19 -49q-2 -20 -16 -45.5t-40.5 -62t-31.5 -44.5q-7 -10 -11 -16.5t-9 -16.5t-7 -15t-3 -11.5t2.5 -8t9.5 -1.5t17.5 4.5t27.5 13.5q52 29 167 114
q74 54 137 105q3 4 7.5 2.5t5 -5.5t-2.5 -8q-223 -178 -310 -223q-60 -33 -78 -8.5t12 78.5q8 16 48.5 75.5t47.5 86.5q8 29 -8 23q-10 -4 -25 -19q-19 -19 -64 -73q-18 -24 -33 -38q-34 -37 -54 -18q-7 5 -10 19q-3 16 0 44q7 25 3 27.5t-23 -18.5q-61 -72 -83 -89
q-20 -17 -29.5 -12t0.5 29q65 135 75 161q9 23 1.5 26t-25.5 -11q-16 -11 -75.5 -55t-93 -66t-88 -53.5t-104 -46t-97.5 -14.5q7 -58 -14.5 -135.5t-58.5 -112.5q-33 -28 -50.5 -15.5t-15.5 54.5q4 60 74 214q-39 23 -26 51q6 15 24.5 17t31.5 -6q53 97 103 172
q124 184 203 229q49 22 69.5 -3.5t-13.5 -84.5q-40 -68 -111 -119q-66 -49 -141 -78l-1 -3q-2 -2 -3 -4q-41 -64 -78 -136l5 -26q48 0 98.5 15t102.5 45.5t88.5 55t90 65l72.5 54.5q27 19 44.5 9.5t10.5 -44.5q-4 -22 -20 -66t-28 -67zM54 222q71 32 116 68q69 48 109 114
q27 46 11 62q-12 12 -40 -7l-16.5 -12.5t-17.5 -15l-15.5 -15t-16 -18t-14.5 -17t-15.5 -18.5t-13.5 -17l-14 -18t-12 -16q-35 -48 -61 -90zM-120 -221q37 36 56 107.5t12 127.5q-2 0 -6.5 -0.5t-6.5 -0.5q-66 -135 -82 -212q-3 -15 -2.5 -24t7 -12t22.5 14zM-96 36l11 20
q1 2 3 6.5t3 6.5q-7 4 -18.5 4t-14.5 -6q-7 -16 16 -31zM-53 30l-1 6l-3 -6h4z" />
    <glyph glyph-name="g_m" unicode="gm" horiz-adv-x="978" 
d="M432 97l51 61q34 40 56.5 32t14.5 -53l-5 -36q-2 -13 3 -12q3 1 16 16q5 5 15.5 17.5t16.5 18.5q34 45 64 76q29 28 52 18t19 -49q-2 -20 -16 -45.5t-40.5 -62t-31.5 -44.5q-7 -10 -11 -16.5t-9 -16.5t-7 -15t-3 -11.5t2.5 -8t9.5 -1.5t17.5 4.5t27.5 13.5q52 29 167 114
q74 54 137 105q3 4 7.5 2.5t5 -5.5t-2.5 -8q-223 -178 -310 -223q-60 -33 -78 -8.5t12 78.5q8 16 48.5 75.5t47.5 86.5q8 29 -8 23q-10 -4 -25 -19q-19 -19 -64 -73q-18 -24 -33 -38q-34 -37 -54 -18q-7 5 -10 19q-3 16 0 44q7 25 3 27.5t-23 -18.5q-61 -72 -83 -89
q-20 -17 -29.5 -12t0.5 29q65 135 75 161q9 23 1.5 26t-25.5 -11l-79.5 -55l-100 -68.5l-88 -56.5t-95.5 -55q-159 -347 -272 -394q-28 -11 -53.5 -1t-31.5 40q-14 57 31 125q36 55 86 99t85 64.5t107 58.5l87 189l-4 -8v2q-80 -90 -112 -122q-28 -24 -49 -15.5t-19 33.5
q2 35 33 77t63 47q42 8 47 -40l63 73q0 1 5 3q11 3 23 -0.5t8 -11.5l-11 -25q-47 -111 -75 -171q52 29 111.5 68l128 87t104.5 71q27 19 44.5 9.5t10.5 -44.5q-4 -22 -20 -66t-28 -67zM11 -16q-90 -47 -147.5 -90t-105.5 -116q-42 -66 -30 -113q11 -50 62 -21
q29 16 60.5 55.5t65.5 100t50.5 93.5zM55 159q-2 23 -10 30.5t-27 -8.5q-43 -43 -56 -85q-7 -23 -3.5 -28.5t23.5 12.5q27 27 73 79z" />
    <glyph glyph-name="h_m" unicode="hm" horiz-adv-x="1012" 
d="M466 97l51 61q34 40 56.5 32t14.5 -53l-5 -36q-2 -13 3 -12q3 1 16 16q5 5 15.5 17.5t16.5 18.5q34 45 64 76q29 28 52 18t19 -49q-2 -20 -16 -45.5t-40.5 -62t-31.5 -44.5q-7 -10 -11 -16.5t-9 -16.5t-7 -15t-3 -11.5t2.5 -8t9.5 -1.5t17.5 4.5t27.5 13.5q52 29 167 114
q74 54 137 105q3 4 7.5 2.5t5 -5.5t-2.5 -8q-223 -178 -310 -223q-60 -33 -78 -8.5t12 78.5q8 16 48.5 75.5t47.5 86.5q8 29 -8 23q-10 -4 -25 -19q-19 -19 -64 -73q-18 -24 -33 -38q-34 -37 -54 -18q-7 5 -10 19q-3 16 0 44q7 25 3 27.5t-23 -18.5q-61 -72 -83 -89
q-20 -17 -29.5 -12t0.5 29q65 135 75 161q9 23 1.5 26t-25.5 -11q-37 -26 -127 -100t-144 -107q-63 -38 -90 9q-8 12 -11.5 43.5t0.5 49.5q6 24 2.5 27.5t-22.5 -19.5q-79 -96 -112 -129q-8 -10 -24 -1.5t-11 19.5q27 83 83.5 187.5t135 197.5t145.5 117q50 16 73 2.5
t15.5 -48.5t-41.5 -69q-47 -44 -125.5 -92t-131.5 -68q-63 -99 -102 -199l-4 -9l86 102q32 38 56.5 30.5t16.5 -51.5q-8 -36 -3 -81q4 -35 56 -5q55 35 145.5 109t125.5 99q27 20 44.5 10t10.5 -45q-4 -22 -20 -66t-28 -67zM307 528q-79 -35 -210 -234q55 25 122.5 67
t108.5 81q36 35 39 70q2 33 -38 24q-10 -3 -22 -8z" />
    <glyph glyph-name="i_m" unicode="im" horiz-adv-x="962" 
d="M416 97l51 61q34 40 56.5 32t14.5 -53l-5 -36q-2 -13 3 -12q3 1 16 16q5 5 15.5 17.5t16.5 18.5q34 45 64 76q29 28 52 18t19 -49q-2 -20 -16 -45.5t-40.5 -62t-31.5 -44.5q-7 -10 -11 -16.5t-9 -16.5t-7 -15t-3 -11.5t2.5 -8t9.5 -1.5t17.5 4.5t27.5 13.5q52 29 167 114
q74 54 137 105q3 4 7.5 2.5t5 -5.5t-2.5 -8q-223 -178 -310 -223q-60 -33 -78 -8.5t12 78.5q8 16 48.5 75.5t47.5 86.5q8 29 -8 23q-10 -4 -25 -19q-19 -19 -64 -73q-18 -24 -33 -38q-34 -37 -54 -18q-7 5 -10 19q-3 16 0 44q7 25 3 27.5t-23 -18.5q-61 -72 -83 -89
q-20 -17 -29.5 -12t0.5 29q65 135 75 161q9 23 1.5 26t-25.5 -11l-67 -48.5l-80.5 -57.5t-76 -49t-87 -44t-79.5 -22q-41 -9 -57 24q-11 33 -1 74.5t31 72.5q7 9 26 1q14 -5 8 -14q-19 -27 -35 -66.5t-7 -60.5q7 -21 38 -16q36 5 76 20.5t87 45.5l74.5 48.5t79.5 58.5t62 47
q26 20 44 10t11 -45q-4 -22 -20 -66t-28 -67zM77 285q16 -16 -2 -33q-17 -16 -33 0t2 33q17 17 33 0z" />
    <glyph glyph-name="j_m" unicode="jm" horiz-adv-x="888" 
d="M342 97l51 61q34 40 56.5 32t14.5 -53l-5 -36q-2 -13 3 -12q3 1 16 16q5 5 15.5 17.5t16.5 18.5q34 45 64 76q29 28 52 18t19 -49q-2 -20 -16 -45.5t-40.5 -62t-31.5 -44.5q-7 -10 -11 -16.5t-9 -16.5t-7 -15t-3 -11.5t2.5 -8t9.5 -1.5t17.5 4.5t27.5 13.5q52 29 167 114
q74 54 137 105q3 4 7.5 2.5t5 -5.5t-2.5 -8q-223 -178 -310 -223q-60 -33 -78 -8.5t12 78.5q8 16 48.5 75.5t47.5 86.5q8 29 -8 23q-10 -4 -25 -19q-19 -19 -64 -73q-18 -24 -33 -38q-34 -37 -54 -18q-7 5 -10 19q-3 16 0 44q7 25 3 27.5t-23 -18.5q-61 -72 -83 -89
q-20 -17 -29.5 -12t0.5 29q65 135 75 161q9 23 1.5 26t-25.5 -11q-241 -168 -388 -235q-161 -347 -273 -394q-27 -11 -52.5 -1t-32.5 40q-14 58 32 125q28 42 58.5 74.5t71 60.5t67.5 43.5t81 43.5q68 145 95 207q5 12 26 8q17 -3 13 -13q-8 -21 -11 -25q-13 -32 -64 -146
q21 8 45 20t55 30.5l52 31t60 38.5l52.5 35l56.5 38.5t48 32.5q27 19 44.5 9.5t10.5 -44.5q-4 -22 -20 -66t-28 -67zM-104 -16q-90 -46 -148 -89.5t-106 -116.5q-42 -66 -30 -113q6 -25 24 -30t38 9q12 7 25.5 19t25 24.5t26 33l24.5 35t24.5 40.5l22 40l22 42l19.5 38
l18 37zM62 285q6 -7 6 -16.5t-6 -16.5q-18 -16 -34 0t0 33q7 7 16.5 7t17.5 -7z" />
    <glyph glyph-name="k_m" unicode="km" horiz-adv-x="1029" 
d="M483 97l51 61q34 40 56.5 32t14.5 -53l-5 -36q-2 -13 3 -12q3 1 16 16q5 5 15.5 17.5t16.5 18.5q34 45 64 76q29 28 52 18t19 -49q-2 -20 -16 -45.5t-40.5 -62t-31.5 -44.5q-7 -10 -11 -16.5t-9 -16.5t-7 -15t-3 -11.5t2.5 -8t9.5 -1.5t17.5 4.5t27.5 13.5q52 29 167 114
q74 54 137 105q3 4 7.5 2.5t5 -5.5t-2.5 -8q-223 -178 -310 -223q-60 -33 -78 -8.5t12 78.5q8 16 48.5 75.5t47.5 86.5q8 29 -8 23q-10 -4 -25 -19q-19 -19 -64 -73q-18 -24 -33 -38q-34 -37 -54 -18q-7 5 -10 19q-3 16 0 44q7 25 3 27.5t-23 -18.5q-61 -72 -83 -89
q-20 -17 -29.5 -12t0.5 29q65 135 75 161q9 23 1.5 26t-25.5 -11q-40 -28 -149.5 -128t-180.5 -142q-40 -24 -67.5 -21.5t-38 26t-13.5 57t7 71.5q-60 -60 -80 -90q-6 -10 -22 -0.5t-12 19.5q27 83 83.5 187.5t135 197.5t145.5 117q50 16 73 2.5t15.5 -48.5t-41.5 -69
q-47 -44 -125.5 -92t-131.5 -68q-63 -99 -102 -199q39 44 85 87q62 57 91 63q31 6 41 -17q8 -22 -20 -55q-19 -18 -49 -31.5t-55 -12.5q-9 -27 -11.5 -53.5t3 -49t25 -25t56.5 17.5q71 42 179 141.5t151 128.5q27 19 44.5 9.5t10.5 -44.5q-4 -22 -20 -66t-28 -67zM307 528
q-79 -35 -210 -234q55 25 122.5 67t108.5 81q36 35 39 70q2 33 -38 24q-10 -3 -22 -8zM157 189q5 23 -22 6q-31 -20 -59 -50q-2 -1 -22 -19q26 -7 61.5 15t41.5 48z" />
    <glyph glyph-name="l_m" unicode="lm" horiz-adv-x="980" 
d="M434 97l51 61q34 40 56.5 32t14.5 -53l-5 -36q-2 -13 3 -12q3 1 16 16q5 5 15.5 17.5t16.5 18.5q34 45 64 76q29 28 52 18t19 -49q-2 -20 -16 -45.5t-40.5 -62t-31.5 -44.5q-7 -10 -11 -16.5t-9 -16.5t-7 -15t-3 -11.5t2.5 -8t9.5 -1.5t17.5 4.5t27.5 13.5q52 29 167 114
q74 54 137 105q3 4 7.5 2.5t5 -5.5t-2.5 -8q-223 -178 -310 -223q-60 -33 -78 -8.5t12 78.5q8 16 48.5 75.5t47.5 86.5q8 29 -8 23q-10 -4 -25 -19q-19 -19 -64 -73q-18 -24 -33 -38q-34 -37 -54 -18q-7 5 -10 19q-3 16 0 44q7 25 3 27.5t-23 -18.5q-61 -72 -83 -89
q-20 -17 -29.5 -12t0.5 29q65 135 75 161q9 23 1.5 26t-25.5 -11q-47 -33 -180.5 -142t-218.5 -156q-39 -22 -62 -14.5t-32 31t-5 57.5q14 107 101 252t173 220q41 36 73 46q56 21 82.5 -8t-10.5 -80q-36 -46 -127 -104.5t-155 -82.5l-2 -2q-28 -48 -62 -124t-42 -127
q-8 -40 6 -53.5t58 5.5q86 48 211.5 153t183.5 143q27 19 44.5 9.5t10.5 -44.5q-4 -22 -20 -66t-28 -67zM299 528q-30 -14 -73 -55q-65 -67 -137 -179q67 30 144 79.5t110 93.5q29 38 13.5 58t-57.5 3z" />
    <glyph glyph-name="m_m" unicode="mm" horiz-adv-x="1248" 
d="M702 97l51 61q34 40 56.5 32t14.5 -53l-5 -36q-2 -13 3 -12q3 1 16 16q5 5 15.5 17.5t16.5 18.5q34 45 64 76q29 28 52 18t19 -49q-2 -20 -16 -45.5t-40.5 -62t-31.5 -44.5q-7 -10 -11 -16.5t-9 -16.5t-7 -15t-3 -11.5t2.5 -8t9.5 -1.5t17.5 4.5t27.5 13.5q52 29 167 114
q74 54 137 105q3 4 7.5 2.5t5 -5.5t-2.5 -8q-223 -178 -310 -223q-60 -33 -78 -8.5t12 78.5q8 16 48.5 75.5t47.5 86.5q8 29 -8 23q-10 -4 -25 -19q-19 -19 -64 -73q-18 -24 -33 -38q-34 -37 -54 -18q-7 5 -10 19q-3 16 0 44q7 25 3 27.5t-23 -18.5q-61 -72 -83 -89
q-20 -17 -29.5 -12t0.5 29q65 135 75 161q9 23 1.5 26t-25.5 -11q-34 -24 -170.5 -132t-208.5 -151q-60 -33 -78 -8.5t12 78.5q8 16 48.5 75.5t47.5 86.5q8 29 -8 23q-10 -4 -25 -19q-19 -19 -64 -73q-18 -24 -33 -38q-34 -37 -54 -18q-7 5 -10 19q-3 16 0 44q7 25 3 27.5
t-23 -18.5q-61 -72 -83 -89q-20 -17 -29.5 -12t0.5 29q65 135 75 161q9 23 1.5 26t-25.5 -11q-33 -23 -67 -59q-5 -6 -10.5 -1.5t-1.5 11.5q48 48 71 63q27 19 44.5 9.5t10.5 -44.5q-4 -22 -20 -66t-28 -67l51 61q34 40 56.5 32t14.5 -53l-5 -36q-2 -13 3 -12q3 1 16 16
q5 5 15.5 17.5t16.5 18.5q34 45 64 76q29 28 52 18t19 -49q-2 -20 -16 -45.5t-40.5 -62t-31.5 -44.5q-7 -10 -11 -16.5t-9 -16.5t-7 -15t-3 -11.5t2.5 -8t9.5 -1.5t17.5 4.5t27.5 13.5q64 36 198.5 145.5t176.5 136.5q27 19 44.5 9.5t10.5 -44.5q-4 -22 -20 -66t-28 -67z
" />
    <glyph glyph-name="n_m" unicode="nm" horiz-adv-x="1077" 
d="M531 97l51 61q34 40 56.5 32t14.5 -53l-5 -36q-3 -17 9 -7l10 10q10 10 32 37q34 45 64 76q29 28 52 18t19 -49q-2 -20 -16 -45.5t-40.5 -62t-31.5 -44.5q-7 -10 -11 -16.5t-9 -16.5t-7 -15t-3 -11.5t2.5 -8t9.5 -1.5t17.5 4.5t27.5 13.5q52 29 167 114q74 54 137 105
q3 4 7.5 2.5t5 -5.5t-2.5 -8q-223 -178 -310 -223q-60 -33 -78 -8.5t12 78.5q8 16 48.5 75.5t47.5 86.5q8 29 -8 23q-10 -4 -25 -19q-19 -19 -64 -73q-26 -31 -33 -38q-34 -37 -54 -18q-7 5 -10 19q-4 24 0 44q5 26 2 28t-22 -19q-61 -72 -83 -89q-20 -17 -29.5 -12t0.5 29
q65 135 75 161q9 23 1.5 26t-25.5 -11q-40 -28 -133 -105t-149 -112q-64 -39 -90 9q-18 31 -9 76q6 24 2.5 27.5t-22.5 -19.5q-50 -60 -81 -88q-25 -20 -32.5 -13t3.5 35q13 32 44 90t42 86q9 23 2 25.5t-26 -10.5q-33 -23 -72 -60q-5 -5 -10.5 -0.5t-0.5 10.5q42 42 74 63
q27 20 45.5 10.5t9.5 -43.5q-6 -22 -15.5 -46.5t-26 -62.5l-20.5 -47l51 61q32 38 56.5 30.5t16.5 -51.5q-8 -37 -5 -64q4 -35 56 -5q56 35 149.5 112.5t132.5 105.5q27 19 44.5 9.5t10.5 -44.5q-4 -22 -20 -66t-28 -67z" />
    <glyph glyph-name="o_m" unicode="om" horiz-adv-x="897" 
d="M351 97l51 61q34 40 56.5 32t14.5 -53l-5 -36q-2 -13 3 -12q3 1 16 16q5 5 15.5 17.5t16.5 18.5q34 45 64 76q29 28 52 18t19 -49q-2 -20 -16 -45.5t-40.5 -62t-31.5 -44.5q-7 -10 -11 -16.5t-9 -16.5t-7 -15t-3 -11.5t2.5 -8t9.5 -1.5t17.5 4.5t27.5 13.5q52 29 167 114
q74 54 137 105q3 4 7.5 2.5t5 -5.5t-2.5 -8q-223 -178 -310 -223q-60 -33 -78 -8.5t12 78.5q8 16 48.5 75.5t47.5 86.5q8 29 -8 23q-10 -4 -25 -19q-19 -19 -64 -73q-18 -24 -33 -38q-34 -37 -54 -18q-7 5 -10 19q-3 16 0 44q7 25 3 27.5t-23 -18.5q-61 -72 -83 -89
q-20 -17 -29.5 -12t0.5 29q65 135 75 161q9 23 1.5 26t-25.5 -11q-20 -15 -72.5 -60t-84.5 -65q-67 -44 -111 -44q-31 -45 -66 -52q-19 -6 -47 6q-23 14 -27.5 42.5t6.5 57t32.5 52.5t46.5 31q13 31 36.5 35.5t41 -18t14.5 -59.5q-5 -43 -26 -79q42 8 92 41q34 21 83.5 65
t73.5 61q27 19 44.5 9.5t10.5 -44.5q-4 -22 -20 -66t-28 -67zM37 193q-13 -79 30 -93q3 -2 9 -2q3 6 4 7q22 39 25 73q3 36 -18 55t-39 -12q17 -1 28.5 -12.5t12.5 -28.5q0 -5 -4 -7t-8 0t-4 7q-1 15 -12 18t-24 -5zM14 45q27 7 52 38l-3 2q-27 8 -37.5 35.5t-6.5 59.5
q-22 -22 -35 -61t-2 -61q10 -18 32 -13z" />
    <glyph glyph-name="p_m" unicode="pm" horiz-adv-x="935" 
d="M389 97l51 61q34 40 56.5 32t14.5 -53l-5 -36q-2 -12 1 -12q3 -1 18 16q18 19 48.5 57t47.5 55q29 28 52 18t19 -49q-2 -20 -16 -45.5t-40.5 -62t-31.5 -44.5q-7 -10 -11 -16.5t-9 -16.5t-7 -15t-3 -11.5t2.5 -8t9.5 -1.5t17.5 4.5t27.5 13.5q52 29 167 114
q74 54 137 105q3 4 7.5 2.5t5 -5.5t-2.5 -8q-223 -178 -310 -223q-60 -33 -78 -8.5t12 78.5q8 16 48.5 75.5t47.5 86.5q8 29 -8 23q-10 -4 -25 -19q-22 -22 -54 -60.5t-43 -50.5q-34 -37 -54 -18q-7 5 -10 19q-4 24 0 44q5 26 2 28t-22 -19q-61 -72 -83 -89
q-20 -17 -29.5 -12t0.5 29q66 137 83 181q9 23 1.5 26t-25.5 -11q-173 -121 -276 -175q-59 -68 -95 -80q-32 -10 -40.5 5t16.5 37q11 11 78 45q31 33 46 64q20 39 -2 38q-15 -1 -40 -21t-64 -57l-24 -23q-2 -4 -22 -48t-27 -58l-27.5 -56.5t-31.5 -63l-30.5 -56t-34 -56.5
t-32.5 -44.5t-34 -39.5q-45 -44 -77 -39q-31 6 -11 62q11 30 48 88l38.5 54t53.5 73q56 73 128 148q44 93 62 134q4 13 26 10q18 -3 12 -15l-24 -55q19 18 62 54q22 18 44.5 23t39.5 -9q27 -30 -13 -83q71 35 243 158q27 20 44.5 10t10.5 -45q-4 -22 -24 -75.5t-32 -77.5z
M-83 23q-48 -52 -94 -113q-53 -69 -91 -127q-36 -50 -47 -85q-16 -43 1 -41q14 3 40 30q15 15 30 35.5t31.5 47l28.5 47.5t29 55.5l25 51.5l25.5 54zM9 29q17 11 55 49q-7 -4 -20 -10.5t-22.5 -12t-14.5 -9.5q-17 -18 -6 -19q3 -1 8 2z" />
    <glyph glyph-name="q_m" unicode="qm" horiz-adv-x="975" 
d="M429 97l51 61q34 40 56.5 32t14.5 -53l-5 -36q-2 -13 3 -12q3 1 16 16q5 5 15.5 17.5t16.5 18.5q34 45 64 76q29 28 52 18t19 -49q-2 -20 -16 -45.5t-40.5 -62t-31.5 -44.5q-7 -10 -11 -16.5t-9 -16.5t-7 -15t-3 -11.5t2.5 -8t9.5 -1.5t17.5 4.5t27.5 13.5q52 29 167 114
q74 54 137 105q3 4 7.5 2.5t5 -5.5t-2.5 -8q-223 -178 -310 -223q-60 -33 -78 -8.5t12 78.5q8 16 48.5 75.5t47.5 86.5q8 29 -8 23q-10 -4 -25 -19q-19 -19 -64 -73q-18 -24 -33 -38q-34 -37 -54 -18q-7 5 -10 19q-3 16 0 44q7 25 3 27.5t-23 -18.5q-61 -72 -83 -89
q-20 -17 -29.5 -12t0.5 29q65 135 75 161q9 23 1.5 26t-25.5 -11q-34 -24 -85 -74.5l-90 -90t-98 -74t-119 -39.5q-4 -11 -9 -18q9 -210 -70 -297q-18 -19 -35.5 -20t-28.5 23q-9 28 12.5 98t44.5 121t45 95q-28 5 -23 28q4 19 21 24q13 3 23 -7q63 121 85 169
q-72 -81 -110 -120q-28 -24 -49.5 -15.5t-19.5 33.5q2 35 33 77t64 47q41 7 46 -40l64 73q7 7 16 6.5t15 -7t3 -13.5q-22 -47 -118 -239q61 11 114 43t86.5 67l82.5 84t92 80q28 21 45 10.5t10 -45.5q-4 -22 -20 -66t-28 -67zM-51 -329q67 74 65 253q-65 -136 -90 -209
q-13 -47 -8 -60q4 -8 15.5 0t17.5 16zM55 159q-6 53 -37 22q-42 -42 -57 -85q-7 -23 -3 -28.5t24 12.5zM4 -10l6 12q-6 15 -15 7q-8 -8 -1 -15q3 -3 10 -4z" />
    <glyph glyph-name="r_m" unicode="rm" horiz-adv-x="890" 
d="M344 97l51 61q34 40 56.5 32t14.5 -53l-5 -36q-2 -13 3 -12q3 1 16 16q5 5 15.5 17.5t16.5 18.5q34 45 64 76q29 28 52 18t19 -49q-2 -20 -16 -45.5t-40.5 -62t-31.5 -44.5q-7 -10 -11 -16.5t-9 -16.5t-7 -15t-3 -11.5t2.5 -8t9.5 -1.5t17.5 4.5t27.5 13.5q52 29 167 114
q74 54 137 105q3 4 7.5 2.5t5 -5.5t-2.5 -8q-223 -178 -310 -223q-60 -33 -78 -8.5t12 78.5q8 16 48.5 75.5t47.5 86.5q8 29 -8 23q-10 -4 -25 -19q-19 -19 -64 -73q-18 -24 -33 -38q-34 -37 -54 -18q-7 5 -10 19q-3 16 0 44q7 25 3 27.5t-23 -18.5q-61 -72 -83 -89
q-20 -17 -29.5 -12t0.5 29q65 135 75 161q9 23 1.5 26t-25.5 -11q-56 -39 -142.5 -144.5t-112.5 -130.5q-42 -41 -81 -61q-76 -37 -76 40q0 10 2 21.5t4.5 22t8.5 23.5t10 22.5t12 24t12.5 22l13 22t12 19t12 18t9.5 14.5q-33 3 -47.5 25.5t-8.5 50t27 46.5q24 22 46.5 18.5
t19.5 -32.5q-8 -45 -53 -81q6 -11 19 -14q14 -4 31 0q5 1 8 -3t1 -8q-8 -15 -19 -30q-2 -3 -13.5 -21.5t-19 -29.5t-19 -31.5t-19 -36t-14.5 -33t-9 -30.5q-5 -28 6.5 -33.5t35.5 8.5q43 24 78 58q33 32 115.5 133.5t142.5 144.5q29 18 45.5 8.5t9.5 -43.5q-4 -22 -20 -66
t-28 -67zM7 205q13 9 27 30t17 37q2 10 -5 10q-14 0 -28 -24q-6 -9 -8 -17q-6 -19 -3 -36z" />
    <glyph glyph-name="s_m" unicode="sm" horiz-adv-x="892" 
d="M346 97l51 61q34 40 56.5 32t14.5 -53l-5 -36q-2 -13 3 -12q3 1 16 16q5 5 15.5 17.5t16.5 18.5q34 45 64 76q29 28 52 18t19 -49q-2 -20 -16 -45.5t-40.5 -62t-31.5 -44.5q-7 -10 -11 -16.5t-9 -16.5t-7 -15t-3 -11.5t2.5 -8t9.5 -1.5t17.5 4.5t27.5 13.5q52 29 167 114
q74 54 137 105q3 4 7.5 2.5t5 -5.5t-2.5 -8q-223 -178 -310 -223q-60 -33 -78 -8.5t12 78.5q8 16 48.5 75.5t47.5 86.5q8 29 -8 23q-10 -4 -25 -19q-19 -19 -64 -73q-18 -24 -33 -38q-34 -37 -54 -18q-7 5 -10 19q-3 16 0 44q7 25 3 27.5t-23 -18.5q-61 -72 -83 -89
q-20 -17 -29.5 -12t0.5 29q65 135 75 161q9 23 2 25.5t-26 -10.5q-34 -22 -92 -65.5t-108.5 -76t-102.5 -52.5q4 -67 -20.5 -119t-88.5 -72q-44 -13 -68 8t-14.5 58.5t51.5 68.5q32 26 99 55q-1 16 -4 53t-2.5 49.5t4.5 44.5q13 54 59 69q37 12 55 -12q15 -18 0 -50
q-2 -5 -6.5 -5.5t-6.5 3t0 8.5q15 32 -5.5 38t-40.5 -22q-11 -13 -16 -32q-6 -22 -6.5 -41t4 -47.5t5.5 -39.5q49 19 97.5 51t106.5 76t92 66q27 19 44.5 9.5t10.5 -44.5q-4 -22 -20 -66t-28 -67zM5 41q-70 -34 -93 -51q-50 -39 -45 -80q4 -28 32 -31q13 -1 28 6
q78 32 78 156z" />
    <glyph glyph-name="t_m" unicode="tm" horiz-adv-x="895" 
d="M349 97l51 61q34 40 56.5 32t14.5 -53l-5 -36q-2 -13 3 -12q3 1 16 16q5 5 15.5 17.5t16.5 18.5q34 45 64 76q29 28 52 18t19 -49q-2 -20 -16 -45.5t-40.5 -62t-31.5 -44.5q-7 -10 -11 -16.5t-9 -16.5t-7 -15t-3 -11.5t2.5 -8t9.5 -1.5t17.5 4.5t27.5 13.5q52 29 167 114
q74 54 137 105q3 4 7.5 2.5t5 -5.5t-2.5 -8q-223 -178 -310 -223q-60 -33 -78 -8.5t12 78.5q8 16 48.5 75.5t47.5 86.5q8 29 -8 23q-10 -4 -25 -19q-19 -19 -64 -73q-18 -24 -33 -38q-34 -37 -54 -18q-7 5 -10 19q-3 16 0 44q7 25 3 27.5t-23 -18.5q-61 -72 -83 -89
q-20 -17 -29.5 -12t0.5 29q65 135 75 161q9 23 1.5 26t-25.5 -11q-71 -50 -189 -168.5t-149 -140.5q-76 -58 -98 -6q-15 35 24.5 134t85 181t78.5 132q-143 21 -169 -30q-6 -9 -13 -3q-4 3 -2 8q36 65 194 40q24 36 37 53q9 10 17.5 9t13 -9.5t0.5 -15.5q-13 -17 -30 -44
q1 0 22 -4t35.5 -6t34.5 -3.5t32.5 0t16.5 7.5q5 6 11 2t2 -11q-6 -7 -19 -10.5t-26.5 -4t-33.5 2t-32.5 4.5t-31 5.5t-21.5 4.5q-64 -98 -128 -224t-72 -199q-3 -29 18 -27q19 3 47 26q50 41 155.5 149t181.5 162q27 19 44.5 9.5t10.5 -44.5q-4 -22 -20 -66t-28 -67z" />
    <glyph glyph-name="u_m" unicode="um" horiz-adv-x="996" 
d="M450 97l51 61q34 40 56.5 32t14.5 -53l-5 -36q-2 -13 3 -12q3 1 16 16q5 5 15.5 17.5t16.5 18.5q34 45 64 76q29 28 52 18t19 -49q-2 -20 -16 -45.5t-40.5 -62t-31.5 -44.5q-7 -10 -11 -16.5t-9 -16.5t-7 -15t-3 -11.5t2.5 -8t9.5 -1.5t17.5 4.5t27.5 13.5q52 29 167 114
q74 54 137 105q3 4 7.5 2.5t5 -5.5t-2.5 -8q-223 -178 -310 -223q-60 -33 -78 -8.5t12 78.5q8 16 48.5 75.5t47.5 86.5q8 29 -8 23q-10 -4 -25 -19q-19 -19 -64 -73q-18 -24 -33 -38q-34 -37 -54 -18q-7 5 -10 19q-3 16 0 44q7 25 3 27.5t-23 -18.5q-61 -72 -83 -89
q-20 -17 -29.5 -12t0.5 29q65 135 75 161q9 23 1.5 26t-25.5 -11q-53 -39 -154.5 -129t-165.5 -136q-45 -33 -74 -38q-33 -3 -38 31v23q9 51 33 105l-9 -12l-52 -61q-33 -38 -52 -31q-9 4 -10.5 16t2.5 28.5t10.5 34.5t16 38t17.5 35l15.5 29.5t9.5 17.5q11 18 29 5
q12 -8 7 -15q-5 -10 -20.5 -38t-21.5 -42q-18 -36 -26 -56q-15 -35 -12 -36.5t24 23.5l52 61l47 57q9 11 24 2.5t10 -19.5q-1 -3 -24.5 -49t-35.5 -74.5t-12 -41.5q-1 -8 2.5 -11.5t11.5 -2.5q22 2 68 33q59 41 163 134.5t157 132.5q27 20 44.5 10t10.5 -45q-4 -22 -20 -66
t-28 -67z" />
    <glyph glyph-name="v_m" unicode="vm" horiz-adv-x="988" 
d="M442 97q12 23 28 67t20 66q7 35 -10.5 44.5t-44.5 -9.5q-27 -17 -73.5 -65.5t-91.5 -83t-89 -37.5q-25 -2 -40 8q-17 14 -22 39l50 89q14 27 18 47t1 29t-11 11q-15 4 -33.5 -14t-29.5 -55q-20 -62 -11 -103q-30 -46 -55 -76q-20 -24 -35 -38q-14 -13 -21.5 -17t-12.5 2
t-4 27q1 69 60 165l9 14q4 7 -3 13.5t-16 8t-14 -4.5q-66 -100 -62 -192q0 -30 11 -42t28 -7.5t36 22.5q28 28 36 38q18 21 47 66q7 -21 25 -34q20 -15 51 -12q36 3 73.5 25t64 48.5l62 61.5t60.5 53q19 14 25.5 11t-1.5 -26q-10 -26 -75 -161q-10 -24 -0.5 -29t29.5 12
q22 17 83 89q19 22 23 19t-3 -28q-3 -28 0 -44q3 -14 10 -19q20 -19 54 18q15 14 33 38q45 54 64 73q33 33 35 13q1 -6 -2 -17q-7 -27 -47.5 -86.5t-48.5 -75.5q-29 -56 -12 -78.5t78 8.5q87 45 310 223q4 3 2.5 7.5t-5 5.5t-7.5 -2q-63 -51 -137 -105q-115 -85 -167 -114
q-16 -9 -27.5 -13.5t-17.5 -4.5t-9.5 1.5t-2.5 8t3 11.5t7 15t9 16.5t11 16.5q5 8 31.5 44.5t40.5 62t16 45.5q4 39 -19 49t-52 -18q-30 -31 -64 -76q-6 -6 -16.5 -18.5t-15.5 -17.5q-17 -21 -19 -14q-1 3 0 10l5 36q8 45 -14.5 53t-56.5 -32zM117 152q0 34 12 77
q14 42 34 54q12 8 11 -8q-1 -17 -19 -53z" />
    <glyph glyph-name="w_m" unicode="wm" horiz-adv-x="1123" 
d="M577 97l51 61q34 40 56.5 32t14.5 -53l-5 -36q-2 -13 3 -12q3 1 16 16q5 5 15.5 17.5t16.5 18.5q34 45 64 76q29 28 52 18t19 -49q-2 -20 -16 -45.5t-40.5 -62t-31.5 -44.5q-7 -10 -11 -16.5t-9 -16.5t-7 -15t-3 -11.5t2.5 -8t9.5 -1.5t17.5 4.5t27.5 13.5q52 29 167 114
q74 54 137 105q3 4 7.5 2.5t5 -5.5t-2.5 -8q-223 -178 -310 -223q-60 -33 -78 -8.5t12 78.5q8 16 48.5 75.5t47.5 86.5q8 29 -8 23q-10 -4 -25 -19q-19 -19 -64 -73q-18 -24 -33 -38q-34 -37 -54 -18q-7 5 -10 19q-3 16 0 44q7 25 3 27.5t-23 -18.5q-61 -72 -83 -89
q-20 -17 -29.5 -12t0.5 29q65 135 75 161q9 23 1.5 26t-25.5 -11q-33 -23 -68 -60q-117 -122 -194 -128q-32 -3 -51 12q-15 12 -24 34q-20 -32 -48 -66q-17 -21 -36 -35q-25 -23 -50.5 -19.5t-34.5 36.5q-8 35 3 86q-31 -47 -57 -66q-25 -21 -44 -12.5t-20 38.5
q-4 61 55 153q5 6 14.5 5t16.5 -7.5t3 -13.5q-33 -50 -51 -107q-12 -54 0 -54q5 0 17 10q30 26 84 106q9 15 24 5.5t10 -21.5q-19 -57 -18 -94q0 -15 1.5 -24.5t5.5 -16t12 -4.5t20 12q16 12 34 34q25 31 54 76q-7 48 12 103q14 49 44 69q19 10 27.5 1.5t5.5 -27.5
q-7 -30 -23 -61q-11 -22 -50 -89q5 -25 22 -39q15 -10 40 -8q72 5 185 123q48 48 71 63q27 19 44.5 9.5t10.5 -44.5q-4 -22 -20 -66t-28 -67zM250 152l38 70q18 39 21 55q2 8 1 12.5t-8 0.5q-26 -16 -39 -61q-13 -42 -13 -77z" />
    <glyph glyph-name="x_m" unicode="xm" horiz-adv-x="1012" 
d="M466 97l51 61q34 40 56.5 32t14.5 -53l-5 -36q-2 -13 3 -12q3 1 16 16q5 5 15.5 17.5t16.5 18.5q34 45 64 76q29 28 52 18t19 -49q-2 -20 -16 -45.5t-40.5 -62t-31.5 -44.5q-7 -10 -11 -16.5t-9 -16.5t-7 -15t-3 -11.5t2.5 -8t9.5 -1.5t17.5 4.5t27.5 13.5q52 29 167 114
q74 54 137 105q3 4 7.5 2.5t5 -5.5t-2.5 -8q-223 -178 -310 -223q-60 -33 -78 -8.5t12 78.5q8 16 48.5 75.5t47.5 86.5q8 29 -8 23q-10 -4 -25 -19q-19 -19 -64 -73q-18 -24 -33 -38q-34 -37 -54 -18q-7 5 -10 19q-3 16 0 44q7 25 3 27.5t-23 -18.5q-61 -72 -83 -89
q-20 -17 -29.5 -12t0.5 29q65 135 75 161q9 23 1 26.5t-26 -10.5q-47 -35 -100.5 -91.5l-101.5 -103t-95 -70.5q-54 -28 -84 -1q-27 25 -37 115l-29.5 -31l-27 -27t-27.5 -23t-23.5 -13.5t-22.5 -5t-19 8.5q-4 3 -2.5 7.5t5 5.5t7.5 -2q7 -2 12 -4t15.5 4t17.5 10.5t18.5 15
l19 17.5t18 18t15.5 17l12 14t8 9q-4 45 -12.5 62.5t-28.5 5.5q-5 -1 -7 1.5t-1 7t4 5.5q21 13 44.5 -1t30.5 -50q50 53 86.5 77t65.5 9q4 -2 4 -6t-3.5 -7t-7.5 -1q-24 12 -58.5 -13t-83.5 -78q2 -7 4 -21.5t2 -15.5q1 -7 2 -21t2 -21.5t3 -18t4.5 -18t5.5 -12.5
q18 -29 64 -5q66 35 156.5 132t137.5 132q26 20 44 10t11 -45q-4 -22 -20 -66t-28 -67z" />
    <glyph glyph-name="y_m" unicode="ym" horiz-adv-x="977" 
d="M431 97l51 61q34 40 56.5 32t14.5 -53l-5 -36q-2 -13 3 -12q3 1 16 16q5 5 15.5 17.5t16.5 18.5q34 45 64 76q29 28 52 18t19 -49q-2 -20 -16 -45.5t-40.5 -62t-31.5 -44.5q-7 -10 -11 -16.5t-9 -16.5t-7 -15t-3 -11.5t2.5 -8t9.5 -1.5t17.5 4.5t27.5 13.5q52 29 167 114
q74 54 137 105q3 4 7.5 2.5t5 -5.5t-2.5 -8q-223 -178 -310 -223q-60 -33 -78 -8.5t12 78.5q8 16 48.5 75.5t47.5 86.5q8 29 -8 23q-10 -4 -25 -19q-19 -19 -64 -73q-18 -24 -33 -38q-34 -37 -54 -18q-7 5 -10 19q-3 16 0 44q7 25 3 27.5t-23 -18.5q-61 -72 -83 -89
q-20 -17 -29.5 -12t0.5 29q65 135 75 161q9 23 1.5 26t-25.5 -11q-32 -23 -69 -61q-115 -101 -260 -174q-150 -327 -260 -387q-29 -18 -59 -10t-38 42q-16 55 31 125q36 55 86 99t85 64.5t107 58.5l79 172l-34.5 -45.5t-46.5 -58t-40 -41.5q-17 -15 -32 -22t-26 0t-10 33
q1 43 55 156q6 10 17 9.5t18 -9.5q4 -8 2 -11q-53 -114 -64 -148q-8 -27 12 -14q8 5 20 16q16 16 39.5 43.5t39 48l37.5 50.5t24 32q13 19 38 27q19 7 17 -9v-2q-85 -195 -86 -196q134 72 239 163q48 48 71 63q27 19 44.5 9.5t10.5 -44.5q-4 -22 -20 -66t-28 -67zM44 -16
q-90 -47 -147.5 -90t-105.5 -116q-42 -63 -30 -113q12 -56 73 -14q13 10 44 42q42 47 117 194z" />
    <glyph glyph-name="z_m" unicode="&#x7a;m" horiz-adv-x="1027" 
d="M481 97l51 61q34 40 56.5 32t14.5 -53l-5 -36q-2 -13 3 -12q3 1 16 16q5 5 15.5 17.5t16.5 18.5q34 45 64 76q29 28 52 18t19 -49q-2 -20 -16 -45.5t-40.5 -62t-31.5 -44.5q-7 -10 -11 -16.5t-9 -16.5t-7 -15t-3 -11.5t2.5 -8t9.5 -1.5t17.5 4.5t27.5 13.5q52 29 167 114
q74 54 137 105q3 4 7.5 2.5t5 -5.5t-2.5 -8q-223 -178 -310 -223q-60 -33 -78 -8.5t12 78.5q8 16 48.5 75.5t47.5 86.5q8 29 -8 23q-10 -4 -25 -19q-19 -19 -64 -73q-18 -24 -33 -38q-34 -37 -54 -18q-7 5 -10 19q-3 16 0 44q7 25 3 27.5t-23 -18.5q-61 -72 -83 -89
q-20 -17 -29.5 -12t0.5 29q65 135 75 161q9 23 1.5 26t-25.5 -11l-297 -202q-6 -46 -38 -107q-41 -81 -112 -170.5t-134 -117.5q-25 -14 -51 -9t-26 37q4 60 77 150q90 106 242 209q12 54 -20 78q-5 -2 -13.5 -6.5l-16 -8.5t-14.5 -7q-12 -7 -18 -8q-46 -18 -54.5 2.5
t30.5 44.5q42 25 88 11q19 13 39 44q40 61 2 83q-21 11 -54 -1t-57 -36q-30 -28 -43 -45q-2 -4 -6.5 -3t-6.5 5t1 8q14 19 45 47q29 27 65 41t67 6q31 -7 40 -30t0.5 -49.5t-28.5 -47.5q-15 -16 -39 -33q34 -22 36 -68q43 28 140.5 96.5t147.5 100.5q27 19 44.5 9.5
t10.5 -44.5q-4 -22 -20 -66t-28 -67zM-97 -314q57 44 113.5 117.5t92.5 144.5q22 46 29 71q-139 -95 -224 -199q-73 -86 -73 -138q0 -15 7.5 -19t18.5 0.5t20 10.5t16 12zM54 105q3 2 20.5 11t24.5 14q-30 7 -55 -8q-16 -10 -21 -18t3.5 -8t27.5 9z" />
    <glyph glyph-name="a_n" unicode="an" horiz-adv-x="875" 
d="M489 76l51 61q32 38 56.5 30.5t16.5 -51.5q-8 -37 -5 -64q4 -35 56 -5q110 69 211 155q3 3 7.5 1t5 -5.5t-2.5 -7.5q-108 -92 -213 -156q-64 -39 -90 9q-18 31 -9 76q6 24 2.5 27.5t-22.5 -19.5q-50 -60 -81 -88q-25 -20 -32.5 -13t3.5 35q13 32 44 90t42 86q9 23 2 25.5
t-26 -10.5q-25 -17 -108 -85t-155.5 -116t-127.5 -63q-49 -13 -62.5 9.5t-1.5 65.5q15 64 55 126l-123 -121q-30 -25 -51 -16.5t-16 35.5q6 34 40.5 76.5t66.5 47.5q43 8 43 -40l70 72q5 5 14 4.5t16 -5.5t4 -12q-3 -6 -10.5 -18.5l-11.5 -19.5q-51 -88 -66 -127
q-15 -29 -10.5 -52t41.5 -10q63 21 128.5 64.5t145 109.5t110.5 88q27 20 45.5 10.5t9.5 -43.5q-6 -22 -15.5 -46.5t-26 -62.5zM52 158q0 24 -8 31.5t-28 -8.5q-43 -40 -64 -85q-9 -22 -5.5 -28t24.5 12q53 49 81 78z" />
    <glyph glyph-name="b_n" unicode="bn" horiz-adv-x="826" 
d="M440 76l51 61q32 38 56.5 30.5t16.5 -51.5q-8 -37 -5 -64q4 -35 56 -5q110 69 211 155q3 3 7.5 1t5 -5.5t-2.5 -7.5q-108 -92 -213 -156q-64 -39 -90 9q-18 31 -9 76q6 24 2.5 27.5t-22.5 -19.5q-50 -60 -81 -88q-25 -20 -32.5 -13t3.5 35q13 32 44 90t42 86q9 23 2 25.5
t-26 -10.5q-126 -92 -170 -116q-74 -40 -172 -58q-39 -42 -90.5 -65.5t-93.5 -17.5q-28 1 -42 17t-5 34t41 25q2 0 6 0.5t5 0.5q47 114 125 235.5t157 191.5q44 37 74 46q55 21 81.5 -8t-10.5 -80q-36 -46 -127 -104.5t-155 -82.5q-62 -98 -101 -192h4q81 101 120 125
q28 18 46 7t13 -44q-4 -27 -32 -70q37 6 70 17t70.5 32.5t55.5 33t63.5 45t57.5 41.5q27 20 45.5 10.5t9.5 -43.5q-6 -22 -15.5 -46.5t-26 -62.5zM305 528q-26 -12 -73 -55q-65 -67 -137 -179q67 30 144 79.5t110 93.5q29 38 13.5 58t-57.5 3zM5 80q65 6 72 7q33 40 47 73
q15 39 -1 36q-5 -1 -12 -5q-37 -26 -106 -111zM-77 38q0 2 2 8t3 10q-23 -5 -30.5 -15.5t2 -19.5t30.5 -9q61 -4 128 57l-66 -6q-22 -25 -36 -46q-7 -9 -22 1t-11 20z" />
    <glyph glyph-name="c_n" unicode="cn" horiz-adv-x="800" 
d="M414 76l51 61q32 38 56.5 30.5t16.5 -51.5q-8 -37 -5 -64q4 -35 56 -5q110 69 211 155q3 3 7.5 1t5 -5.5t-2.5 -7.5q-108 -92 -213 -156q-64 -39 -90 9q-18 31 -9 76q6 24 2.5 27.5t-22.5 -19.5q-50 -60 -81 -88q-25 -20 -32.5 -13t3.5 35q13 32 44 90t42 86q9 23 2 25.5
t-26 -10.5l-98 -68t-125.5 -84t-111.5 -61q-127 -59 -155 0q-18 39 14 99.5t72 90.5q12 8 23.5 12.5t24 6t22.5 -5.5t14 -23q1 -4 -2.5 -6.5t-7.5 -1.5t-5 6q-6 20 -35 -1q-2 -1 -3 -2q-25 -18 -54 -63t-34 -80q-12 -73 96 -28q7 2 26 11q57 28 112.5 63t121.5 81.5l96 66.5
q27 20 45.5 10.5t9.5 -43.5q-6 -22 -15.5 -46.5t-26 -62.5z" />
    <glyph glyph-name="d_n" unicode="dn" horiz-adv-x="897" 
d="M511 76l51 61q32 38 56.5 30.5t16.5 -51.5q-8 -37 -5 -64q4 -35 56 -5q110 69 211 155q3 3 7.5 1t5 -5.5t-2.5 -7.5q-108 -92 -213 -156q-64 -39 -90 9q-18 31 -9 76q6 24 2.5 27.5t-22.5 -19.5q-50 -60 -81 -88q-25 -20 -32.5 -13t3.5 35q13 32 44 90t42 86q9 23 2 25.5
t-26 -10.5q-43 -30 -113.5 -96t-138 -121.5t-127.5 -81.5q-60 -22 -82.5 -0.5t-15.5 74.5q10 75 50 157q-70 -79 -106 -115q-28 -24 -49.5 -15.5t-19.5 33.5q2 35 33 77t63 47q42 8 47 -40l60 70q93 170 194 258q43 36 75 46q54 21 80.5 -8t-10.5 -80q-36 -46 -127 -104.5
t-155 -82.5l-1 -2q-29 -49 -63 -125t-42 -126q-7 -40 6.5 -53.5t58.5 5.5q61 29 126.5 83t134 117.5t113.5 95.5q27 20 45.5 10.5t9.5 -43.5q-6 -22 -15.5 -46.5t-26 -62.5zM411 528q-25 -11 -73 -55q-58 -59 -138 -179q67 30 144 79.5t111 93.5q28 38 13 58t-57 3zM56 159
q-6 54 -38 22q-42 -42 -57 -85q-7 -22 -2.5 -28t24.5 12z" />
    <glyph glyph-name="e_n" unicode="en" horiz-adv-x="782" 
d="M396 76l51 61q32 38 56.5 30.5t16.5 -51.5q-8 -37 -5 -64q4 -35 56 -5q110 69 211 155q3 3 7.5 1t5 -5.5t-2.5 -7.5q-108 -92 -213 -156q-64 -39 -90 9q-18 31 -9 76q6 24 2.5 27.5t-22.5 -19.5q-50 -60 -81 -88q-25 -20 -32.5 -13t3.5 35q13 32 44 90t42 86q9 23 2 25.5
t-26 -10.5l-80 -58l-89.5 -64.5t-85.5 -55t-96 -50.5q-72 -29 -106 -5q-28 23 -21.5 63t34 82t59.5 65q35 22 58.5 17t22 -32t-33.5 -52q-37 -26 -73 -36q-1 0 -6.5 -1t-7.5 -2q-30 -54 -17 -82q4 -7 8.5 -11t12 -5t12.5 -1.5t15 2.5l13.5 4t13.5 5t11 4q58 25 120 65.5
t129 90.5t98 70q27 20 45.5 10.5t9.5 -43.5q-6 -22 -15.5 -46.5t-26 -62.5zM56 214q-27 -19 -59 -73q36 9 68 33q30 23 28 43q-2 17 -25 5q-6 -3 -12 -8z" />
    <glyph glyph-name="f_n" unicode="fn" horiz-adv-x="796" 
d="M410 76l51 61q32 38 56.5 30.5t16.5 -51.5q-8 -37 -5 -64q4 -35 56 -5q110 69 211 155q3 3 7.5 1t5 -5.5t-2.5 -7.5q-108 -92 -213 -156q-64 -39 -90 9q-18 31 -9 76q6 24 2.5 27.5t-22.5 -19.5q-50 -60 -81 -88q-25 -20 -32.5 -13t3.5 35q13 32 44 90t42 86q9 23 2 25.5
t-26 -10.5l-76 -55.5t-96 -67t-88 -52t-106 -46.5t-96 -15q7 -58 -14.5 -135.5t-58.5 -112.5q-33 -28 -50.5 -15.5t-15.5 54.5q4 60 74 214q-39 23 -26 51q6 15 24.5 17t31.5 -6q53 97 103 172q124 184 203 229q49 22 69.5 -3.5t-13.5 -84.5q-40 -68 -111 -119
q-66 -49 -141 -78l-1 -3q-2 -2 -3 -4q-41 -64 -78 -136l5 -26q48 1 99 16.5t102.5 45t89 55l90.5 64.5l74 54q27 20 45.5 10.5t9.5 -43.5q-6 -22 -15.5 -46.5t-26 -62.5zM54 222q71 32 116 68q69 48 109 114q27 46 11 62q-12 12 -40 -7l-16.5 -12.5t-17.5 -15l-15.5 -15
t-16 -18t-14.5 -17t-15.5 -18.5t-13.5 -17l-14 -18t-12 -16q-35 -48 -61 -90zM-120 -221q37 36 56 107.5t12 127.5q-2 0 -6.5 -0.5t-6.5 -0.5q-66 -135 -82 -212q-3 -15 -2.5 -24t7 -12t22.5 14zM-96 36l11 20q1 2 3 6.5t3 6.5q-7 4 -18.5 4t-14.5 -6q-7 -16 16 -31zM-53 30
l-1 6l-3 -6h4z" />
    <glyph glyph-name="g_n" unicode="gn" horiz-adv-x="807" 
d="M421 76l51 61q32 38 56.5 30.5t16.5 -51.5q-8 -37 -5 -64q4 -35 56 -5q110 69 211 155q3 3 7.5 1t5 -5.5t-2.5 -7.5q-108 -92 -213 -156q-64 -39 -90 9q-18 31 -9 76q6 24 2.5 27.5t-22.5 -19.5q-50 -60 -81 -88q-25 -20 -32.5 -13t3.5 35q13 32 44 90t42 86q9 23 2 25.5
t-26 -10.5l-164 -107t-203 -129q-159 -347 -272 -394q-28 -11 -53.5 -1t-31.5 40q-14 57 31 125q36 55 86 99t85 64.5t107 58.5l87 189l-4 -8v2q-80 -90 -112 -122q-28 -24 -49 -15.5t-19 33.5q2 35 33 77t63 47q42 8 47 -40l63 73q0 1 5 3q11 3 23 -0.5t8 -11.5l-11 -25
q-47 -111 -75 -171q1 0 347 226q27 20 45.5 10.5t9.5 -43.5q-6 -22 -15.5 -46.5t-26 -62.5zM11 -16q-90 -47 -147.5 -90t-105.5 -116q-42 -66 -30 -113q11 -50 62 -21q29 16 60.5 55.5t65.5 100t50.5 93.5zM55 159q-2 23 -10 30.5t-27 -8.5q-43 -43 -56 -85
q-7 -23 -3.5 -28.5t23.5 12.5q27 27 73 79z" />
    <glyph glyph-name="h_n" unicode="hn" horiz-adv-x="841" 
d="M455 76l51 61q32 38 56.5 30.5t16.5 -51.5q-8 -37 -5 -64q4 -35 56 -5q110 69 211 155q3 3 7.5 1t5 -5.5t-2.5 -7.5q-108 -92 -213 -156q-64 -39 -90 9q-18 31 -9 76q6 24 2.5 27.5t-22.5 -19.5q-50 -60 -81 -88q-25 -20 -32.5 -13t3.5 35q13 32 44 90t42 86q9 23 2 25.5
t-26 -10.5q-35 -25 -126 -98.5t-149 -109.5q-63 -38 -90 9q-8 12 -11.5 43.5t0.5 49.5q6 24 2.5 27.5t-22.5 -19.5q-79 -96 -112 -129q-8 -10 -24 -1.5t-11 19.5q27 83 83.5 187.5t135 197.5t145.5 117q50 16 73 2.5t15.5 -48.5t-41.5 -69q-47 -44 -125.5 -92t-131.5 -68
q-63 -99 -102 -199l-4 -9l86 102q32 38 56.5 30.5t16.5 -51.5q-8 -36 -3 -81q4 -35 56 -5q57 36 151.5 111.5l122.5 96.5q27 21 45.5 11t9.5 -44q-6 -22 -15.5 -46.5t-26 -62.5zM307 528q-79 -35 -210 -234q55 25 122.5 67t108.5 81q36 35 39 70q2 33 -38 24q-10 -3 -22 -8z
" />
    <glyph glyph-name="i_n" unicode="in" horiz-adv-x="791" 
d="M405 76l51 61q32 38 56.5 30.5t16.5 -51.5q-8 -37 -5 -64q4 -35 56 -5q110 69 211 155q3 3 7.5 1t5 -5.5t-2.5 -7.5q-108 -92 -213 -156q-64 -39 -90 9q-18 31 -9 76q6 24 2.5 27.5t-22.5 -19.5q-50 -60 -81 -88q-25 -20 -32.5 -13t3.5 35q13 32 44 90t42 86
q9 23 0.5 26.5t-26.5 -9.5q-6 -4 -77 -55.5t-107.5 -75t-98.5 -54.5t-109 -39q-42 -8 -57 24q-11 33 -1 74.5t31 72.5q7 9 26 1q14 -5 8 -14q-19 -27 -35 -66.5t-7 -60.5q7 -21 38 -16q65 11 138 52.5t150 99t94 68.5q29 18 46.5 9.5t8.5 -42.5q-6 -22 -15.5 -46.5
t-26 -62.5zM77 285q16 -16 -2 -33q-17 -16 -33 0t2 33q17 17 33 0z" />
    <glyph glyph-name="j_n" unicode="jn" horiz-adv-x="717" 
d="M331 76l51 61q32 38 56.5 30.5t16.5 -51.5q-8 -37 -5 -64q4 -35 56 -5q110 69 211 155q3 3 7.5 1t5 -5.5t-2.5 -7.5q-108 -92 -213 -156q-64 -39 -90 9q-18 31 -9 76q6 24 2.5 27.5t-22.5 -19.5q-50 -60 -81 -88q-25 -20 -32.5 -13t3.5 35q13 32 44 90t42 86q9 23 1.5 26
t-25.5 -11q-146 -106 -392 -236q-161 -347 -273 -394q-27 -11 -52.5 -1t-32.5 40q-14 58 32 125q28 42 58.5 74.5t71 60.5t67.5 43.5t81 43.5q68 145 95 207q5 12 26 8q17 -3 13 -13q-8 -21 -11 -25q-13 -32 -64 -146q61 29 178 99.5t194 126.5q27 20 45.5 10.5t9.5 -43.5
q-6 -22 -15.5 -46.5t-26 -62.5zM-104 -16q-90 -46 -148 -89.5t-106 -116.5q-42 -66 -30 -113q6 -25 24 -30t38 9q12 7 25.5 19t25 24.5t26 33l24.5 35t24.5 40.5l22 40l22 42l19.5 38l18 37zM62 285q6 -7 6 -16.5t-6 -16.5q-18 -16 -34 0t0 33q7 7 16.5 7t17.5 -7z" />
    <glyph glyph-name="k_n" unicode="kn" horiz-adv-x="858" 
d="M472 76l51 61q32 38 56.5 30.5t16.5 -51.5q-8 -37 -5 -64q4 -35 56 -5q110 69 211 155q3 3 7.5 1t5 -5.5t-2.5 -7.5q-108 -92 -213 -156q-64 -39 -90 9q-18 31 -9 76q6 24 2.5 27.5t-22.5 -19.5q-50 -60 -81 -88q-25 -20 -32.5 -13t3.5 35q13 32 44 90t42 86q9 23 2 25.5
t-26 -10.5q-45 -29 -154.5 -129.5t-179.5 -141.5q-40 -24 -67.5 -21.5t-38 26t-13.5 57t7 71.5q-60 -60 -80 -90q-6 -10 -22 -0.5t-12 19.5q27 83 83.5 187.5t135 197.5t145.5 117q50 16 73 2.5t15.5 -48.5t-41.5 -69q-47 -44 -125.5 -92t-131.5 -68q-63 -99 -102 -199
q39 44 85 87q62 57 91 63q31 6 41 -17q8 -22 -20 -55q-19 -18 -49 -31.5t-55 -12.5q-7 -21 -10.5 -42.5t-2 -41.5t9.5 -31.5t27.5 -11.5t48.5 17q70 41 178.5 140.5t154.5 129.5q27 20 45.5 10.5t9.5 -43.5q-6 -22 -15.5 -46.5t-26 -62.5zM307 528q-79 -35 -210 -234
q55 25 122.5 67t108.5 81q36 35 39 70q2 33 -38 24q-10 -3 -22 -8zM157 189q5 23 -22 6q-31 -20 -59 -50q-2 -1 -22 -19q26 -7 61.5 15t41.5 48z" />
    <glyph glyph-name="l_n" unicode="ln" horiz-adv-x="809" 
d="M423 76l51 61q32 38 56.5 30.5t16.5 -51.5q-8 -37 -5 -64q4 -35 56 -5q110 69 211 155q3 3 7.5 1t5 -5.5t-2.5 -7.5q-108 -92 -213 -156q-64 -39 -90 9q-18 31 -9 76q6 24 2.5 27.5t-22.5 -19.5q-50 -60 -81 -88q-25 -20 -32.5 -13t3.5 35q13 32 44 90t42 86q9 23 2 25.5
t-26 -10.5q-50 -31 -189.5 -144.5t-213.5 -154.5q-39 -22 -62 -14.5t-32 31t-5 57.5q14 107 101 252t173 220q41 36 73 46q56 21 82.5 -8t-10.5 -80q-36 -46 -127 -104.5t-155 -82.5l-2 -2q-28 -48 -62 -124t-42 -127q-8 -40 6 -53.5t58 5.5q87 49 214.5 154.5t183.5 141.5
q27 19 45.5 10t9.5 -43q-6 -22 -15.5 -46.5t-26 -62.5zM299 528q-30 -14 -73 -55q-65 -67 -137 -179q67 30 144 79.5t110 93.5q29 38 13.5 58t-57.5 3z" />
    <glyph glyph-name="m_n" unicode="mn" horiz-adv-x="1077" 
d="M691 76l51 61q32 38 56.5 30.5t16.5 -51.5q-8 -37 -5 -64q4 -35 56 -5q110 69 211 155q3 3 7.5 1t5 -5.5t-2.5 -7.5q-108 -92 -213 -156q-64 -39 -90 9q-18 31 -9 76q6 24 2.5 27.5t-22.5 -19.5q-50 -60 -81 -88q-25 -20 -32.5 -13t3.5 35q13 32 44 90t42 86q9 23 2 25.5
t-26 -10.5q-48 -30 -183 -138.5t-200 -145.5q-60 -33 -78 -8.5t12 78.5q8 16 48.5 75.5t47.5 86.5q8 29 -8 23q-10 -4 -25 -19q-19 -19 -64 -73q-18 -24 -33 -38q-34 -37 -54 -18q-7 5 -10 19q-3 16 0 44q7 25 3 27.5t-23 -18.5q-61 -72 -83 -89q-20 -17 -29.5 -12t0.5 29
q65 135 75 161q9 23 1.5 26t-25.5 -11q-33 -23 -67 -59q-5 -6 -10.5 -1.5t-1.5 11.5q48 48 71 63q27 19 44.5 9.5t10.5 -44.5q-4 -22 -20 -66t-28 -67l51 61q34 40 56.5 32t14.5 -53l-5 -36q-2 -13 3 -12q3 1 16 16q5 5 15.5 17.5t16.5 18.5q34 45 64 76q29 28 52 18t19 -49
q-2 -20 -16 -45.5t-40.5 -62t-31.5 -44.5q-7 -10 -11 -16.5t-9 -16.5t-7 -15t-3 -11.5t2.5 -8t9.5 -1.5t17.5 4.5t27.5 13.5q65 36 200 145t178 137q27 20 45.5 10.5t9.5 -43.5q-6 -22 -15.5 -46.5t-26 -62.5z" />
    <glyph glyph-name="n_n" unicode="nn" horiz-adv-x="906" 
d="M520 76l51 61q32 38 56.5 30.5t16.5 -51.5q-8 -37 -5 -64q4 -35 56 -5q110 69 211 155q3 3 7.5 1t5 -5.5t-2.5 -7.5q-108 -92 -213 -156q-64 -39 -90 9q-18 31 -9 76q6 24 2.5 27.5t-22.5 -19.5q-50 -60 -81 -88q-25 -20 -32.5 -13t3.5 35q13 32 44 90t42 86q9 23 2 25.5
t-26 -10.5q-47 -32 -139 -108t-147 -110q-63 -40 -90 9q-18 31 -9 76q6 24 2.5 27.5t-22.5 -19.5q-50 -60 -81 -88q-25 -20 -32.5 -13t3.5 35q13 32 44 90t42 86q9 23 2 25.5t-26 -10.5q-33 -23 -72 -60q-5 -5 -10.5 -0.5t-0.5 10.5q42 42 74 63q27 20 45.5 10.5t9.5 -43.5
q-6 -22 -15.5 -46.5t-26 -62.5l-20.5 -47l51 61q32 38 56.5 30.5t16.5 -51.5q-8 -37 -5 -64q4 -35 56 -5q57 34 151 112t134 106q27 20 45.5 10.5t9.5 -43.5q-6 -22 -15.5 -46.5t-26 -62.5z" />
    <glyph glyph-name="o_n" unicode="on" horiz-adv-x="726" 
d="M340 76l51 61q32 38 56.5 30.5t16.5 -51.5q-8 -37 -5 -64q4 -35 56 -5q110 69 211 155q3 3 7.5 1t5 -5.5t-2.5 -7.5q-108 -92 -213 -156q-64 -39 -90 9q-18 31 -9 76q6 24 2.5 27.5t-22.5 -19.5q-50 -60 -81 -88q-25 -20 -32.5 -13t3.5 35q13 32 44 90t42 86q9 23 2 25.5
t-26 -10.5q-16 -12 -71.5 -59t-89.5 -67q-67 -44 -111 -44q-31 -45 -66 -52q-19 -6 -47 6q-23 14 -27.5 42.5t6.5 57t32.5 52.5t46.5 31q13 31 36.5 35.5t41 -18t14.5 -59.5q-5 -43 -26 -79q42 8 92 41q36 23 95 72.5t65 53.5q26 21 45 11t10 -44q-6 -22 -15.5 -46.5
t-26 -62.5zM37 193q-13 -79 30 -93q3 -2 9 -2q3 6 4 7q22 39 25 73q3 36 -18 55t-39 -12q17 -1 28.5 -12.5t12.5 -28.5q0 -5 -4 -7t-8 0t-4 7q-1 15 -12 18t-24 -5zM14 45q27 7 52 38l-3 2q-27 8 -37.5 35.5t-6.5 59.5q-22 -22 -35 -61t-2 -61q10 -18 32 -13z" />
    <glyph glyph-name="p_n" unicode="pn" horiz-adv-x="764" 
d="M378 76l51 61q32 38 56.5 30.5t16.5 -51.5q-8 -37 -5 -64q4 -35 56 -5q110 69 211 155q3 3 7.5 1t5 -5.5t-2.5 -7.5q-108 -92 -213 -156q-64 -39 -90 9q-18 31 -9 76q6 24 2.5 27.5t-22.5 -19.5q-50 -60 -81 -88q-25 -20 -32.5 -13t3.5 35q13 32 44 90t42 86q9 23 2 25.5
t-26 -10.5q-26 -18 -63.5 -52t-69 -55t-73.5 -33l-66 -16q-50 -57 -90 -71q-33 -10 -43.5 2.5t19.5 39.5q33 25 73 36l7 6q24 29 39 58q20 39 -2 38q-15 -1 -40 -21t-64 -57l-24 -23q-2 -4 -22 -48t-27 -58l-27.5 -56.5t-31.5 -63l-30.5 -56t-34 -56.5t-32.5 -44.5
t-34 -39.5q-45 -44 -77 -39q-31 6 -11 62q11 30 48 88l38.5 54t53.5 73q56 73 128 148q44 93 62 134q4 13 26 10q18 -3 12 -15l-24 -55q19 18 62 54q22 18 44.5 23t39.5 -9q12 -11 8.5 -29.5t-11 -34t-18.5 -30.5q37 10 47 13q44 14 75.5 36t63.5 52t60 48q27 20 45.5 10.5
t9.5 -43.5q-6 -22 -15.5 -46.5t-26 -62.5zM-83 23q-48 -52 -94 -113q-53 -69 -91 -127q-36 -50 -47 -85q-16 -43 1 -41q14 3 40 30q15 15 30 35.5t31.5 47l28.5 47.5t29 55.5l25 51.5l25.5 54zM14 38q14 9 47 42q-24 -7 -46 -27q-19 -20 -12 -21q3 -1 11 6z" />
    <glyph glyph-name="q_n" unicode="qn" horiz-adv-x="804" 
d="M418 76l51 61q32 38 56.5 30.5t16.5 -51.5q-8 -37 -5 -64q4 -35 56 -5q110 69 211 155q3 3 7.5 1t5 -5.5t-2.5 -7.5q-108 -92 -213 -156q-64 -39 -90 9q-18 31 -9 76q6 24 2.5 27.5t-22.5 -19.5q-50 -60 -81 -88q-25 -20 -32.5 -13t3.5 35q13 32 44 90t42 86q9 23 2 25.5
t-26 -10.5q-36 -26 -114 -106.5t-144 -120.5q-72 -43 -138 -52q-4 -11 -9 -18q9 -210 -70 -297q-18 -19 -35.5 -20t-28.5 23q-9 28 12.5 98t44.5 121t45 95q-28 5 -23 28q4 19 21 24q13 3 23 -7q63 121 85 169q-72 -81 -110 -120q-28 -24 -49.5 -15.5t-19.5 33.5q2 35 33 77
t64 47q41 7 46 -40l64 73q7 7 16 6.5t15 -7t3 -13.5q-22 -47 -118 -239q59 9 121 48q61 37 145 122t112 104q27 20 45.5 10.5t9.5 -43.5q-6 -22 -15.5 -46.5t-26 -62.5zM-51 -329q67 74 65 253q-65 -136 -90 -209q-13 -47 -8 -60q4 -8 15.5 0t17.5 16zM55 159q-6 53 -37 22
q-42 -42 -57 -85q-7 -23 -3 -28.5t24 12.5zM4 -10l6 12q-6 15 -15 7q-8 -8 -1 -15q3 -3 10 -4z" />
    <glyph glyph-name="r_n" unicode="rn" horiz-adv-x="719" 
d="M333 76l51 61q32 38 56.5 30.5t16.5 -51.5q-8 -37 -5 -64q4 -35 56 -5q110 69 211 155q3 3 7.5 1t5 -5.5t-2.5 -7.5q-108 -92 -213 -156q-64 -39 -90 9q-18 31 -9 76q6 24 2.5 27.5t-22.5 -19.5q-50 -60 -81 -88q-25 -20 -32.5 -13t3.5 35q13 32 44 90t42 86q9 23 1 26.5
t-25 -11.5q-44 -37 -132.5 -138.5t-126.5 -137.5q-42 -41 -81 -61q-76 -37 -76 40q0 10 2 21.5t4.5 22t8.5 23.5t10 22.5t12 24t12.5 22l13 22t12 19t12 18t9.5 14.5q-33 3 -47.5 25.5t-8.5 50t27 46.5q24 22 46.5 18.5t19.5 -32.5q-8 -45 -53 -81q6 -11 19 -14q14 -4 31 0
q5 1 8 -3t1 -8q-8 -15 -19 -30q-2 -3 -13.5 -21.5t-19 -29.5t-19 -31.5t-19 -36t-14.5 -33t-9 -30.5q-5 -28 6.5 -33.5t35.5 8.5q43 24 78 58q43 42 130 140.5t131 137.5q27 20 45.5 10.5t9.5 -43.5q-6 -22 -15.5 -46.5t-26 -62.5zM7 205q13 9 27 30t17 37q2 10 -5 10
q-14 0 -28 -24q-6 -9 -8 -17q-6 -19 -3 -36z" />
    <glyph glyph-name="s_n" unicode="sn" horiz-adv-x="721" 
d="M335 76l51 61q32 38 56.5 30.5t16.5 -51.5q-8 -37 -5 -64q4 -35 56 -5q110 69 211 155q3 3 7.5 1t5 -5.5t-2.5 -7.5q-108 -92 -213 -156q-64 -39 -90 9q-18 31 -9 76q6 24 2.5 27.5t-22.5 -19.5q-50 -60 -81 -88q-25 -20 -32.5 -13t3.5 35q13 32 44 90t42 86q9 23 2 25.5
t-26 -10.5q-31 -21 -89.5 -64t-106.5 -72.5t-111 -58.5q4 -67 -20.5 -119t-88.5 -72q-44 -13 -68 8t-14.5 58.5t51.5 68.5q32 26 99 55q-1 16 -4 53t-2.5 49.5t4.5 44.5q13 54 59 69q37 12 55 -12q15 -18 0 -50q-2 -5 -6.5 -5.5t-6.5 3t0 8.5q15 32 -5.5 38t-40.5 -22
q-11 -13 -16 -32q-6 -22 -6.5 -41t4 -47.5t5.5 -39.5q54 23 102.5 54.5t106 74.5t90.5 64q27 20 45.5 10.5t9.5 -43.5q-6 -22 -15.5 -46.5t-26 -62.5zM5 41q-70 -34 -93 -51q-50 -39 -45 -80q4 -28 32 -31q13 -1 28 6q78 32 78 156z" />
    <glyph glyph-name="t_n" unicode="tn" horiz-adv-x="724" 
d="M338 76l51 61q32 38 56.5 30.5t16.5 -51.5q-8 -37 -5 -64q4 -35 56 -5q110 69 211 155q3 3 7.5 1t5 -5.5t-2.5 -7.5q-108 -92 -213 -156q-64 -39 -90 9q-18 31 -9 76q6 24 2.5 27.5t-22.5 -19.5q-50 -60 -81 -88q-25 -20 -32.5 -13t3.5 35q13 32 44 90t42 86q9 23 2 25.5
t-26 -10.5q-70 -48 -190.5 -167.5t-151.5 -142.5q-77 -56 -98 -6q-15 35 24.5 134t85 181t78.5 132q-143 21 -169 -30q-6 -9 -13 -3q-4 3 -2 8q36 65 194 40q24 36 37 53q9 10 17.5 9t13 -9.5t0.5 -15.5q-13 -17 -30 -44q1 0 22 -4t35.5 -6t34.5 -3.5t32.5 0t16.5 7.5
q5 6 11 2t2 -11q-6 -7 -19 -10.5t-26.5 -4t-33.5 2t-32.5 4.5t-31 5.5t-21.5 4.5q-64 -98 -128 -224t-72 -199q-4 -33 22 -26q18 5 43 25q53 43 161.5 152.5t178.5 158.5q27 20 45.5 10.5t9.5 -43.5q-6 -22 -15.5 -46.5t-26 -62.5z" />
    <glyph glyph-name="v_n" unicode="vn" horiz-adv-x="817" 
d="M431 76l20.5 47t26 62.5t15.5 46.5q9 34 -9.5 43.5t-45.5 -10.5q-19 -12 -45.5 -36.5t-49 -48t-51.5 -49t-52 -39t-50.5 -18t-48.5 12.5q-17 14 -22 39l50 89q14 27 18 47t1 29t-11 11q-15 4 -33.5 -14t-29.5 -55q-20 -62 -11 -103q-30 -46 -55 -76q-20 -24 -35 -38
q-14 -13 -21.5 -17t-12.5 2t-4 27q1 69 60 165l9 14q4 7 -3 13.5t-16 8t-14 -4.5q-66 -100 -62 -192q0 -30 11 -42t28 -7.5t36 22.5q28 28 36 38q18 21 47 66q7 -21 25 -34q20 -15 44.5 -15.5t49.5 11.5t50 30t50 41l46 44t41.5 39.5t33.5 26.5q20 12 26 10t-2 -25
q-11 -28 -42 -86t-44 -90q-11 -28 -4 -34.5t33 12.5q31 28 81 88q18 23 22 19t-2 -27q-9 -45 9 -76q26 -48 90 -9q105 64 213 156q4 3 2.5 7.5t-5 5.5t-7.5 -1q-101 -86 -211 -155q-52 -30 -56 5q-3 27 5 64q8 44 -16.5 51.5t-56.5 -30.5zM117 152q0 34 12 77q14 42 34 54
q12 8 11 -8q-1 -17 -19 -53z" />
    <glyph glyph-name="w_n" unicode="wn" horiz-adv-x="952" 
d="M566 76l51 61q32 38 56.5 30.5t16.5 -51.5q-8 -37 -5 -64q4 -35 56 -5q110 69 211 155q3 3 7.5 1t5 -5.5t-2.5 -7.5q-108 -92 -213 -156q-64 -39 -90 9q-18 31 -9 76q6 24 2.5 27.5t-22.5 -19.5q-50 -60 -81 -88q-25 -20 -32.5 -13t3.5 35q13 32 44 90t42 86q9 23 2 25.5
t-26 -10.5q-25 -18 -61.5 -53l-64 -61.5t-66 -49t-74.5 -25.5q-32 -3 -51 12q-15 12 -24 34q-20 -32 -48 -66q-17 -21 -36 -35q-25 -23 -50.5 -19.5t-34.5 36.5q-8 35 3 86q-31 -47 -57 -66q-25 -21 -44 -12.5t-20 38.5q-4 61 55 153q5 6 14.5 5t16.5 -7.5t3 -13.5
q-33 -50 -51 -107q-12 -54 0 -54q5 0 17 10q30 26 84 106q9 15 24 5.5t10 -21.5q-19 -57 -18 -94q0 -15 1.5 -24.5t5.5 -16t12 -4.5t20 12q16 12 34 34q25 31 54 76q-7 48 12 103q14 49 44 69q19 10 27.5 1.5t5.5 -27.5q-7 -30 -23 -61q-11 -22 -50 -89q5 -25 22 -39
q15 -10 40 -8q34 2 71.5 25t65.5 51l63.5 61.5t58.5 48.5q27 20 45.5 10.5t9.5 -43.5q-6 -22 -15.5 -46.5t-26 -62.5zM250 152l38 70q18 39 21 55q2 8 1 12.5t-8 0.5q-26 -16 -39 -61q-13 -42 -13 -77z" />
    <glyph glyph-name="x_n" unicode="xn" horiz-adv-x="841" 
d="M455 76l51 61q32 38 56.5 30.5t16.5 -51.5q-8 -37 -5 -64q4 -35 56 -5q110 69 211 155q3 3 7.5 1t5 -5.5t-2.5 -7.5q-108 -92 -213 -156q-64 -39 -90 9q-18 31 -9 76q6 24 2.5 27.5t-22.5 -19.5q-50 -60 -81 -88q-25 -20 -32.5 -13t3.5 35q13 32 44 90t42 86q9 23 2 25.5
t-26 -10.5q-37 -25 -77.5 -65t-70 -74t-71 -69.5t-83.5 -56.5q-55 -26 -84 -1q-27 25 -37 115l-29.5 -31l-27 -27t-27.5 -23t-23.5 -13.5t-22.5 -5t-19 8.5q-4 3 -2.5 7.5t5 5.5t7.5 -2q7 -2 12 -4t15.5 4t17.5 10.5t18.5 15l19 17.5t18 18t15.5 17l12 14t8 9
q-4 45 -12.5 62.5t-28.5 5.5q-5 -1 -7 1.5t-1 7t4 5.5q21 13 44.5 -1t30.5 -50q50 53 86.5 77t65.5 9q4 -2 4 -6t-3.5 -7t-7.5 -1q-24 12 -58.5 -13t-83.5 -78q2 -7 4 -21.5t2 -15.5q1 -7 2 -21t2 -21.5t3 -18t4.5 -18t5.5 -12.5q18 -29 64 -5q53 27 103.5 77t100 104.5
t93.5 82.5q27 20 45.5 10.5t9.5 -43.5q-6 -22 -15.5 -46.5t-26 -62.5z" />
    <glyph glyph-name="y_n" unicode="yn" horiz-adv-x="806" 
d="M420 76l51 61q32 38 56.5 30.5t16.5 -51.5q-8 -37 -5 -64q4 -35 56 -5q110 69 211 155q3 3 7.5 1t5 -5.5t-2.5 -7.5q-108 -92 -213 -156q-64 -39 -90 9q-18 31 -9 76q6 24 2.5 27.5t-22.5 -19.5q-50 -60 -81 -88q-25 -20 -32.5 -13t3.5 35q13 32 44 90t42 86q9 23 2 25.5
t-26 -10.5q-37 -26 -73 -62q-115 -101 -260 -174q-150 -327 -260 -387q-29 -18 -59 -10t-38 42q-16 55 31 125q36 55 86 99t85 64.5t107 58.5l79 172l-34.5 -45.5t-46.5 -58t-40 -41.5q-17 -15 -32 -22t-26 0t-10 33q1 43 55 156q6 10 17 9.5t18 -9.5q4 -8 2 -11
q-53 -114 -64 -148q-8 -27 12 -14q8 5 20 16q16 16 39.5 43.5t39 48l37.5 50.5t24 32q13 19 38 27q19 7 17 -9v-2q-85 -195 -86 -196q134 72 239 163q42 42 74 63q27 20 45.5 10.5t9.5 -43.5q-6 -22 -15.5 -46.5t-26 -62.5zM44 -16q-90 -47 -147.5 -90t-105.5 -116
q-42 -63 -30 -113q12 -56 73 -14q13 10 44 42q42 47 117 194z" />
    <glyph glyph-name="z_n" unicode="&#x7a;n" horiz-adv-x="856" 
d="M470 76l51 61q32 38 56.5 30.5t16.5 -51.5q-8 -37 -5 -64q4 -35 56 -5q110 69 211 155q3 3 7.5 1t5 -5.5t-2.5 -7.5q-108 -92 -213 -156q-64 -39 -90 9q-18 31 -9 76q6 24 2.5 27.5t-22.5 -19.5q-50 -60 -81 -88q-25 -20 -32.5 -13t3.5 35q13 32 44 90t42 86q9 23 2 25.5
t-26 -10.5l-301 -203q-6 -46 -38 -107q-41 -81 -112 -170.5t-134 -117.5q-25 -14 -51 -9t-26 37q4 60 77 150q90 106 242 209q12 54 -20 78q-5 -2 -13.5 -6.5l-16 -8.5t-14.5 -7q-12 -7 -18 -8q-46 -18 -54.5 2.5t30.5 44.5q42 25 88 11q19 13 39 44q40 61 2 83
q-21 11 -54 -1t-57 -36q-30 -28 -43 -45q-2 -4 -6.5 -3t-6.5 5t1 8q14 19 45 47q29 27 65 41t67 6q31 -7 40 -30t0.5 -49.5t-28.5 -47.5q-15 -16 -39 -33q34 -22 36 -68l291 197q27 20 45.5 10.5t9.5 -43.5q-6 -22 -15.5 -46.5t-26 -62.5zM-97 -314q57 44 113.5 117.5
t92.5 144.5q22 46 29 71q-139 -95 -224 -199q-73 -86 -73 -138q0 -15 7.5 -19t18.5 0.5t20 10.5t16 12zM54 105q3 2 20.5 11t24.5 14q-30 7 -55 -8q-16 -10 -21 -18t3.5 -8t27.5 9z" />
    <glyph glyph-name="r_r" unicode="rr" horiz-adv-x="539" 
d="M281 191q24 -20 50 -14q5 1 8 -3t1 -8q-7 -14 -19 -32q-18 -28 -40.5 -67t-50.5 -94.5t-32 -80.5q-6 -41 26 -34q23 6 54 31q95 80 261 313q5 6 10.5 2.5t1.5 -10.5q-174 -247 -263 -318q-17 -14 -36 -23t-37 -11.5t-30 10.5t-13 41q-1 44 42.5 128t82.5 143
q-13 5 -26 15q-74 -98 -181 -202q-45 -43 -81 -62q-76 -37 -76 40q0 10 2 21.5t4.5 22t8.5 23.5t10 22.5t12 24t12.5 22l13 22t12 19t12 18t9.5 14.5q-33 3 -47.5 25.5t-8.5 50t27 46.5q24 22 46.5 18.5t19.5 -32.5q-8 -45 -53 -81q6 -11 19 -14q14 -4 31 0q5 1 8 -3t1 -8
q-8 -15 -19 -30q-2 -3 -13.5 -21.5t-19 -29.5t-19 -31.5t-19 -36t-14.5 -33t-9 -30.5q-5 -28 6.5 -33.5t35.5 8.5q41 23 78 59q113 109 181 200q-23 22 -27.5 52t5.5 55t28 43q22 21 48 22t36 -17.5t-4 -51.5q-17 -34 -65 -100zM272 202q40 53 60 95q16 34 -6 40
q-20 6 -41 -20l-2 -2q-15 -21 -20.5 -56.5t9.5 -56.5zM7 205q13 9 27 30t17 37q2 10 -5 10q-14 0 -28 -24q-6 -9 -8 -17q-6 -19 -3 -36z" />
    <glyph glyph-name="s_s" unicode="ss" horiz-adv-x="536" 
d="M383 210q-2 -5 -6.5 -5.5t-6.5 3t0 8.5q15 32 -5.5 38t-40.5 -22q-11 -13 -16 -32q-6 -22 -6.5 -41t4 -47.5t5.5 -39.5q116 48 159 77q36 23 66 53q3 2 6.5 2t4.5 -2q5 -4 0 -11q-33 -32 -75 -58t-73 -40t-87 -36q4 -67 -20.5 -119t-88.5 -72q-44 -13 -68 8t-14.5 58.5
t51.5 68.5q32 26 99 55q-1 15 -3.5 42.5t-3 41t0.5 38.5q-45 -40 -95 -65.5t-126 -55.5q5 -78 -35 -126q-37 -45 -78 -31q-32 11 -35 46q-3 31 25 61q8 9 19 16.5t16 10.5t24 11.5t23 10.5q-1 16 -4 53t-2.5 49.5t4.5 44.5q13 52 54 63q35 9 53 -16q16 -22 0 -56
q-2 -5 -6.5 -5.5t-6.5 3t0 8.5q15 34 -4 44q-18 10 -37 -14q-9 -12 -14 -30q-4 -16 -4.5 -33.5t0.5 -29.5t3.5 -32.5t3.5 -32.5q116 48 159 77q36 23 66 53q13 54 59 69q38 13 56 -10q15 -19 0 -51zM273 41q-70 -34 -93 -51q-50 -39 -45 -80q4 -28 32 -31q13 -1 28 6
q78 32 78 156zM4 42q-50 -17 -76 -44q-30 -33 -14 -65q13 -24 38 -16q20 6 35 32q17 30 17 93z" />
    <glyph glyph-name="t_t" unicode="tt" horiz-adv-x="541" 
d="M-7 -43q44 41 163.5 172.5t203.5 233.5q6 7 11 0q4 -5 -1 -11q-87 -106 -203 -233t-167 -174q-38 -36 -66 -23t-17 67q32 151 228 464q8 11 16.5 10t13.5 -10t1 -16q-176 -280 -226 -430q-17 -51 -7.5 -68t50.5 18zM248 -117q9 7 20.5 17.5t26.5 25.5l28.5 29.5l33 36
l34 38l37.5 42.5l37 42l39 45l37 43q7 2 11 -1t-1 -10q-237 -275 -296 -320q-47 -36 -74 -23.5t-21 70.5q15 134 248 535q8 11 18 10t16.5 -10t2.5 -16q-66 -101 -146.5 -255t-105.5 -246q-7 -25 -9 -42.5t3 -28t20 -6t41 23.5zM-257 345q-3 -6 -8 -7t-8 2.5t-1 9.5
q20 48 126 57.5t244.5 -5l275.5 -28.5t236 -3.5t109 59.5q1 10 10.5 9.5t9.5 -11.5q-10 -56 -109.5 -70.5t-237 -1.5t-276 28.5t-245 9.5t-126.5 -49z" />
    <glyph glyph-name="u_n" unicode="un" horiz-adv-x="825" 
d="M439 76l51 61q32 38 56.5 30.5t16.5 -51.5q-8 -37 -5 -64q4 -35 56 -5q110 69 211 155q3 3 7.5 1t5 -5.5t-2.5 -7.5q-108 -92 -213 -156q-64 -39 -90 9q-18 31 -9 76q6 24 2.5 27.5t-22.5 -19.5q-50 -60 -81 -88q-25 -20 -32.5 -13t3.5 35q13 32 44 90t42 86q9 23 2 25.5
t-26 -10.5q-53 -37 -158.5 -131.5t-165.5 -134.5q-45 -33 -74 -38q-33 -3 -38 31v23q9 51 33 105l-9 -12l-52 -61q-33 -38 -52 -31q-9 4 -10.5 16t2.5 28.5t10.5 34.5t16 38t17.5 35l15.5 29.5t9.5 17.5q11 18 29 5q12 -8 7 -15q-5 -10 -20.5 -38t-21.5 -42q-18 -36 -26 -56
q-15 -35 -12 -36.5t24 23.5l52 61l47 57q9 11 24 2.5t10 -19.5q-1 -3 -24.5 -49t-35.5 -74.5t-12 -41.5q-1 -8 2.5 -11.5t11.5 -2.5q22 2 68 33q63 43 172 139t151 128q27 20 45.5 10.5t9.5 -43.5q-6 -22 -15.5 -46.5t-26 -62.5z" />
    <glyph glyph-name=".notdef" horiz-adv-x="250" 
 />
    <glyph glyph-name=".null" horiz-adv-x="0" 
 />
    <glyph glyph-name="nonmarkingreturn" horiz-adv-x="333" 
 />
    <glyph glyph-name="NULL" horiz-adv-x="0" 
 />
    <glyph glyph-name="NULL" horiz-adv-x="0" 
 />
    <glyph glyph-name="CR" unicode="&#xd;" horiz-adv-x="250" 
 />
    <glyph glyph-name="space" unicode=" " horiz-adv-x="250" 
 />
    <glyph glyph-name="exclam" unicode="!" horiz-adv-x="178" 
d="M253 612l-187 -537q-4 -9 -13 -5.5t-7 11.5l168 539q2 4 12.5 5t19.5 -2.5t7 -10.5zM57 31q1 -7 -4.5 -11.5t-12.5 -4.5q-15 0 -17 16q0 12 8 17t17 -0.5t9 -16.5z" />
    <glyph glyph-name="quotedbl" unicode="&#x22;" horiz-adv-x="118" 
d="M40 377q9 -16 -5 -32q-8 -8 -14.5 -13t-9.5 -6l-3 -1l3 4l7 9.5t4 7.5q-18 15 -8 31q5 6 13 6.5t13 -6.5zM81 377q9 -16 -5 -32q-8 -8 -14.5 -13t-9.5 -6l-3 -1l3 4l7 9.5t4 7.5q-18 15 -8 31q5 6 13 6.5t13 -6.5z" />
    <glyph glyph-name="numbersign" unicode="#" horiz-adv-x="355" 
d="M73 184h-42q-5 0 -6.5 3t0.5 5.5t6 2.5h47l28 73h-49q-4 1 -4 5t4 4h53l53 137q5 5 17.5 5t12.5 -8l-53 -134h101l53 136q4 7 16.5 6.5t12.5 -9.5l-52 -133h52q4 0 6 -2.5t0 -4.5t-6 -2h-56l-28 -73h55q5 0 7 -2.5t0 -5.5t-7 -3h-60l-60 -156q-3 -3 -10 -3.5t-12 2.5
t-3 8l57 149h-103l-60 -155q-5 -5 -21 -2q-9 2 -6 9zM136 268l-28 -73h102l28 73h-102z" />
    <glyph glyph-name="dollar" unicode="$" horiz-adv-x="365" 
d="M372 559q-4 -22 -21 -44q-8 -11 -17 -5q-6 4 -2 11q1 3 11.5 6.5t16.5 16.5q16 35 -4 60.5t-56 29.5l-67 -214q41 -46 63.5 -87.5t22.5 -92.5q0 -60 -37 -102.5t-98 -58.5q-27 -7 -54 -6l-12 -41q-2 -7 -8 -8.5t-10 2.5t-2 11l13 38q-52 10 -79 49q-31 41 -21 92
q10 48 48 75q11 9 17 0q3 -5 -2 -11q-2 -2 -12.5 -2.5t-19.5 -12.5q-25 -32 -25.5 -70.5t21.5 -67.5q27 -36 76 -44l96 306q-45 48 -54 88q-17 69 20.5 118.5t106.5 47.5l13 46q2 7 7.5 8.5t10 -2.5t2.5 -11l-13 -43q32 -4 53.5 -27.5t15.5 -54.5zM281 247q-8 71 -59 129
q-2 -8 -38 -122.5t-52 -171.5q29 0 52 8q51 17 77 61t20 96zM222 434l31 106.5l27 94.5q-50 -1 -74.5 -37.5t-18.5 -83t35 -80.5z" />
    <glyph glyph-name="percent" unicode="%" horiz-adv-x="356" 
d="M322 638q7 3 11.5 -2.5t0.5 -12.5l-294 -563q-6 -11 -16 -7q-7 4 -2 12l294 563q-44 -24 -92 -44q-5 -64 -41 -106q-25 -29 -54 -26q-21 1 -32 19t-10.5 39t2.5 40q16 74 60 88q10 13 25.5 17.5t30.5 -4.5q21 -17 19 -60q26 10 55.5 25.5t42.5 21.5zM274 252
q17 -13 18.5 -46.5t-5.5 -52.5q-10 -43 -35 -73q-27 -29 -54 -28q-21 2 -32 20.5t-10.5 39.5t1.5 39q16 75 61 89q10 14 25.5 18t30.5 -6zM273 160q4 14 3.5 45t-9.5 42q-14 15 -31 -5h6q3 0 2 -4q-1 -3 -3 -3q-8 0 -12 -1q-7 -9 -9.5 -23t3.5 -25q5 -8 18 -4q5 2 4.5 8
t2.5 8q5 2 8 -1.5t-1 -9.5q-10 -11 -23.5 -12t-22 13t-1.5 34q-22 -22 -32 -78q-6 -15 -1 -48.5t24 -36.5q14 -2 28 9t22 25q15 24 24 67zM207 580q-30 -8 -52.5 2t-15.5 39q-25 -25 -33 -77q-5 -14 -0.5 -48.5t24.5 -37.5q14 -2 28 9t22 25q19 33 27 88zM207 586
q0 49 -10 60q-8 6 -17 3.5t-15 -9.5h6q3 0 3 -2.5t-3 -2.5q-5 0 -13 -2q-16 -31 -0.5 -43.5t49.5 -3.5z" />
    <glyph glyph-name="ampersand" unicode="&#x26;" horiz-adv-x="498" 
d="M303 94q16 -26 45.5 -45t66.5 -19q15 0 23.5 7t11.5 7q7 1 7 -5q-1 -9 -14 -13q-44 -9 -83 9.5t-62 52.5q-42 -57 -98.5 -79.5t-109.5 -4.5q-51 17 -67 65.5t6 101.5q26 68 72.5 109.5t119.5 79.5q11 180 92 222q26 14 50.5 7.5t31.5 -32.5q7 -24 -4.5 -57.5t-33.5 -60.5
q-34 -40 -129 -102q-1 -58 19.5 -124t51.5 -114q26 32 44.5 76.5t21.5 82.5q2 13 -4.5 19t-6.5 10q0 6 5 8.5t10 0t5 -9.5q0 -97 -71 -192zM294 93q-31 47 -51 114t-21 126q-42 -27 -67.5 -46t-53 -50t-40.5 -65q-19 -47 -8.5 -94t49.5 -64q42 -19 97.5 4t94.5 75zM228 364
q60 30 106.5 83t40.5 106q-2 22 -19.5 28.5t-38.5 -5.5q-78 -40 -89 -212z" />
    <glyph glyph-name="quotesingle" unicode="'" horiz-adv-x="77" 
d="M48 377q9 -16 -5 -32q-8 -8 -14.5 -13t-9.5 -6l-3 -1l3 4l7 9.5t4 7.5q-18 15 -8 31q5 6 13 6.5t13 -6.5z" />
    <glyph glyph-name="parenleft" unicode="(" horiz-adv-x="235" 
d="M100 398q-19 -53 -33 -108.5t-21.5 -125t10.5 -104.5q2 -5 -4 -6q-4 -1 -5 3q-62 128 15 347q91 233 233 295q2 1 4.5 -1t2.5 -5.5t-4 -5.5q-58 -26 -109.5 -111t-88.5 -178z" />
    <glyph glyph-name="parenright" unicode=")" horiz-adv-x="322" 
d="M221 353q14 37 26.5 79.5t22 91t9 93.5t-12.5 74q-1 5 4 6.5t6 -4.5q22 -41 24.5 -104t-9.5 -123.5t-33 -119.5q-84 -225 -229 -293q-5 -2 -7.5 3t3.5 8q58 26 109.5 112t86.5 177z" />
    <glyph glyph-name="asterisk" unicode="*" horiz-adv-x="153" 
d="M75 414l14 22q6 12 15 4q8 -5 2 -15l-13 -21l25 2q10 -2 9.5 -12.5t-10.5 -11.5h-28l11 -25q2 -4 -2.5 -9t-11 -5t-9.5 8l-6 19l-16 -21q-4 -6 -10.5 -5.5t-9 6t2.5 12.5l15 22l-27 -1q-7 0 -10 5.5t0 11.5t10 6h30l-10 25q-3 6 1 11t10 4.5t9 -6.5z" />
    <glyph glyph-name="plus" unicode="+" horiz-adv-x="238" 
d="M105 324h-78q-5 0 -6 3t1 6t5 3h81l32 101q2 6 8.5 6.5t11 -3t2.5 -8.5l-31 -96h82q3 0 4 -3t-0.5 -6t-4.5 -3h-85l-34 -108q-3 -13 -17 -8q-9 4 -6 11z" />
    <glyph glyph-name="comma" unicode="," horiz-adv-x="77" 
d="M51 114q9 -16 -5 -32q-8 -8 -14.5 -13t-9.5 -6l-3 -1l3 4l7 9.5t4 7.5q-18 15 -8 31q5 6 13 6.5t13 -6.5z" />
    <glyph glyph-name="hyphen" unicode="-" horiz-adv-x="265" 
d="M69 210q-7 0 -9 4t0.5 8.5t8.5 4.5h108q8 0 8 -8.5t-8 -8.5h-108z" />
    <glyph glyph-name="period" unicode="." horiz-adv-x="108" 
d="M50 101q0 -9 -5.5 -14t-12.5 -5q-12 0 -17 9.5t3 21.5q10 9 21 5t11 -17z" />
    <glyph glyph-name="slash" unicode="/" horiz-adv-x="295" 
d="M256 701h16q3 0 3 -3q0 -5 -105 -291t-125 -337q0 -6 -4 -6h-15q-2 0 -4 1.5t-2 3t1 2.5l228 628q1 0 3.5 1t3.5 1z" />
    <glyph glyph-name="zero" unicode="0" horiz-adv-x="377" 
d="M279 566q7 1 8 -8q1 -6 -5 -7q-78 -25 -145 -133q-32 -50 -54 -111.5t-30 -130t13 -122.5q26 -70 79 -44q35 17 69 55.5t59 92.5q86 181 77 291q-3 44 -24 63q-29 28 -72 4q-46 -26 -77 -93q-2 -8 -10 -5q-6 3 -4 10q30 72 84 102q21 13 46.5 12t43.5 -19q24 -23 29 -73
q4 -61 -20 -144.5t-58 -153.5q-57 -119 -136 -156q-71 -34 -111 24q-37 53 -29.5 135t35 157t64.5 129q81 115 168 125z" />
    <glyph glyph-name="one" unicode="1" horiz-adv-x="344" 
d="M212 513q35 -13 85 25q8 8 28 3q12 -3 8 -11q-140 -315 -151 -338q-50 -114 -79 -175h40q8 0 8 -8.5t-8 -8.5q-41 2 -125 2q-7 -1 -8 6q1 8 8 9h43q30 61 89 197l134 297q-41 -25 -77 -13q-7 2 -8.5 6.5t2.5 7.5t11 1z" />
    <glyph glyph-name="two" unicode="2" horiz-adv-x="483" 
d="M428 516q27 -32 21 -87q-5 -51 -42 -116t-81 -115q-67 -74 -105 -106q25 -13 43 -20.5t43 -16t44.5 -9.5t40 2.5t37.5 17.5t30 37q3 8 10 3q6 -4 3 -11q-74 -132 -273 -20q-62 -47 -106 -54q-65 -12 -79 25q-12 31 18 61q23 24 59 28q29 4 101 -29q50 45 99 103
q111 131 119 223q4 43 -18 72q-32 45 -83 31q-63 -13 -101 -70q-1 -3 -4.5 -3.5t-4.5 1.5q-10 4 -3 11q39 61 110 78q33 8 67 -1t55 -35zM93 42q30 9 78 48q-61 31 -78 30q-44 -6 -61 -39q-15 -28 6 -41q18 -10 55 2z" />
    <glyph glyph-name="three" unicode="3" 
d="M218 524q-4 -2 -7.5 0.5t-3.5 6.5t4 7q55 34 102 17q34 -13 44.5 -48t-4.5 -66q-28 -66 -124 -98q39 -11 65.5 -37t33.5 -64q14 -77 -44 -155q-42 -61 -111 -87q-89 -33 -139 22q-37 41 -17 92q1 5 5.5 6t7.5 -2t1 -8q-15 -45 14 -77q14 -18 46.5 -23t62.5 8q57 26 93 77
q55 76 41 145q-12 61 -77 84q-18 7 -41 9q-4 0 -7 3.5t-1.5 8t7.5 5.5q65 14 104 43.5t51 64.5q9 20 4 43t-24 34q-32 19 -86 -11z" />
    <glyph glyph-name="four" unicode="4" horiz-adv-x="335" 
d="M288 344q2 6 12.5 6t18.5 -5.5t5 -12.5q-9 -16 -40 -88h16q8 0 8 -7.5t-8 -7.5h-23q-86 -200 -99 -233q-1 -4 -12 -5t-19.5 3t-5.5 12l95 221q-42 0 -65 -1q-106 0 -151 -1q-9 1 -9.5 7t6.5 8q16 4 58.5 44.5t81.5 92.5q69 94 85 168q2 10 24 11q17 -1 16 -11
q-17 -77 -92 -176q-65 -84 -130 -128q70 0 111 1q51 0 71 2q38 85 46 100z" />
    <glyph glyph-name="five" unicode="5" horiz-adv-x="437" 
d="M243 531q-4 -10 -11 -26l-17.5 -39l-17.5 -39q-1 -2 -31 -68q6 2 20 4q45 7 86.5 -5.5t64.5 -47.5q29 -48 15 -102t-48.5 -99.5t-76.5 -72.5q-47 -30 -93 -31.5t-89 32.5q-20 20 -34 47q-2 5 1 8.5t7.5 3.5t6.5 -5q12 -27 29 -41q67 -60 162 15q48 38 80 99t17 113
q-11 40 -47 58.5t-79 12.5q-36 -8 -62 -20q-4 -3 -8.5 0.5t-2.5 8.5q23 49 43 97l18 39.5l18.5 41l11.5 25.5q3 8 10 8h202q5 0 7 -4t0 -7.5t-7 -3.5q-109 0 -175 -2z" />
    <glyph glyph-name="six" unicode="6" horiz-adv-x="414" 
d="M183 395q-43 -50 -78 -111q34 17 79.5 17.5t79.5 -20.5q30 -21 38.5 -60t-0.5 -76.5t-27 -69.5q-27 -49 -81 -76.5t-105.5 -14.5t-69.5 70q-13 56 -2.5 109t36.5 103q63 118 158 205q96 87 183 92q9 1 9 -8q1 -7 -7 -7q-51 -4 -109.5 -51t-103.5 -102zM224 47
q25 27 40 65.5t12 80.5t-32 67q-31 25 -75 22.5t-77 -23.5q-61 -115 -46 -189q10 -45 42 -61t69.5 -4.5t66.5 42.5z" />
    <glyph glyph-name="seven" unicode="7" horiz-adv-x="461" 
d="M119 542q-6 4 -1.5 10.5t10.5 2.5q8 -6 47.5 -10t87.5 -3q74 0 178 20q7 1 9 -5.5t-4 -10.5q-109 -56 -213 -202q-68 -95 -117.5 -197.5t-64.5 -150.5q-4 -11 -26 -12q-15 2 -14 11q5 20 22.5 63.5t60 126t92.5 152.5q90 127 191 198q-44 -7 -114 -9q-120 0 -144 16z" />
    <glyph glyph-name="eight" unicode="8" horiz-adv-x="365" 
d="M187 28q20 26 26 63t0.5 71.5t-19.5 66.5q-15 -14 -43 -36q-4 -3 -8 -0.5t-4.5 6.5t3.5 8q25 18 45 37q-22 40 -34 59q-62 -47 -104.5 -133.5t-5.5 -140.5q30 -40 73.5 -37.5t70.5 36.5zM144 315q-27 44 -37 72q-31 94 35 153q32 28 72 32t71 -18t37 -65
q7 -54 -25.5 -120t-74.5 -111q21 -43 29.5 -87.5t-1.5 -92t-44 -78.5q-33 -33 -89.5 -28t-87.5 49q-30 45 -14 103t52 109.5t77 81.5zM158 508q-35 -47 -12 -116q12 -32 29 -56q36 18 66 22q8 0 9 -8t-6 -9q-27 -1 -61 -19q21 -30 30 -51q38 42 68.5 103.5t25.5 110.5
q-4 37 -30.5 55.5t-60.5 9.5t-58 -42z" />
    <glyph glyph-name="nine" unicode="9" horiz-adv-x="413" 
d="M231 147q45 56 78 113q-34 -17 -80 -17.5t-79 20.5q-30 21 -38.5 60t0 76.5t26.5 69.5q27 49 80.5 76t105.5 14t71 -70q13 -55 1.5 -109t-37.5 -103q-60 -116 -158 -205q-97 -87 -183 -92q-4 0 -6.5 4t-0.5 8t7 4q91 5 213 151zM189 497q-25 -27 -40 -66t-12 -80.5
t31 -66.5q32 -25 76.5 -23t77.5 24q62 112 46 189q-10 45 -42.5 61t-70 4.5t-66.5 -42.5z" />
    <glyph glyph-name="colon" unicode=":" horiz-adv-x="146" 
d="M61 102q0 -9 -5.5 -14t-12.5 -5q-12 0 -17 9.5t3 21.5q10 9 21 5t11 -17zM102 235q0 -9 -5.5 -14t-12.5 -5q-12 0 -17 9.5t3 21.5q10 9 21 5t11 -17z" />
    <glyph glyph-name="semicolon" unicode=";" horiz-adv-x="115" 
d="M48 115q9 -16 -5 -32q-8 -8 -14.5 -13t-9.5 -6l-3 -1l3 4l7 9.5t4 7.5q-18 15 -8 31q5 6 13 6.5t13 -6.5zM90 235q0 -9 -5.5 -14t-12.5 -5q-12 0 -17 9.5t3 21.5q10 9 21 5t11 -17z" />
    <glyph glyph-name="less" unicode="&#x3c;" horiz-adv-x="233" 
d="M69 182l95 -90q2 -3 2 -6.5t-2.5 -4t-6.5 2.5q-15 13 -133 92q-4 3 0 10l182 90q5 5 7 -3q1 -4 -2 -7q-131 -78 -142 -84z" />
    <glyph glyph-name="equal" unicode="=" horiz-adv-x="319" 
d="M46 243q-6 0 -8 4.5t0.5 8.5t7.5 4h205q8 0 8 -8.5t-8 -8.5h-205zM100 327q-4 0 -5 4.5t1 8.5t6 4h206q8 0 8 -8.5t-8 -8.5h-208z" />
    <glyph glyph-name="greater" unicode="&#x3e;" horiz-adv-x="255" 
d="M166 179l-95 90q-2 3 -2 6.5t2.5 4t6.5 -2.5q15 -13 133 -92q4 -3 0 -10l-182 -90q-5 -5 -7 3q-1 4 2 7q131 78 142 84z" />
    <glyph glyph-name="question" unicode="?" horiz-adv-x="352" 
d="M190 600q-36 -8 -65 -32.5t-38 -62.5q-4 -6 -7.5 -5t-3.5 7q12 42 43 68t71 34q37 7 67 -6.5t42 -49.5q11 -31 1.5 -66t-37.5 -71.5t-49 -59.5t-54 -54q-67 -61 -90 -123q-8 -22 -29 -108q-1 -4 -5 -5t-7 1t-2 7q21 100 41.5 144.5t85.5 113.5q137 143 114 221
q-8 26 -29.5 39.5t-48.5 7.5zM40 17q0 -9 -5.5 -14t-12.5 -5q-12 0 -17 9.5t3 21.5q10 9 21 5t11 -17z" />
    <glyph glyph-name="at" unicode="@" horiz-adv-x="498" 
d="M447 287q0 100 -49 162t-143 61q-56 0 -102 -33.5t-73 -83.5t-36 -110t3 -114t50.5 -96t99.5 -54q110 -22 224 66q-10 8 -5 16q4 12 15 6q11 -2 6 -14q-2 -9 -9 -12q-46 -37 -86.5 -55t-90.5 -20q-131 -4 -193 100q-54 89 -32.5 204t105.5 172q54 37 124 37
q60 0 103 -20.5t65.5 -56t32 -73.5t9.5 -82q0 -54 -25.5 -99t-70.5 -64q-52 -22 -90 0.5t-39 80.5q0 28 19 83q-6 -7 -13.5 -17.5t-14 -18t-15.5 -16.5q-14 -13 -26 -16t-18 3.5t-5 19.5q1 23 20 45.5t42 30.5t42 -4q7 16 19.5 7t4.5 -29q-1 -3 -17.5 -37t-20.5 -52
q-7 -39 9.5 -62t44.5 -23t58 12q40 20 59 63.5t19 92.5zM212 241q11 11 19 20.5t20 25.5l17 23q-12 6 -30 -2q-30 -18 -43 -53q-5 -15 -1 -20.5t18 6.5z" />
    <glyph glyph-name="A" unicode="A" horiz-adv-x="1075" 
d="M416 221q-9 -4 -12 0.5t2 12.5q64 64 232 37l243 333q-84 -54 -178 -85.5t-237.5 -60t-182.5 -38.5q-37 -9 -57.5 -15t-51 -22t-42.5 -37q-12 -18 -10 -43.5t19 -33.5q8 -4 5.5 -10t-12.5 -7q-28 9 -31.5 43.5t13.5 58.5q14 24 47 42.5t56.5 25t63.5 15.5l120.5 24.5
t123 25.5t110.5 29t117 41t106 56t111 79q16 13 20 1q1 -5 -3 -11q-141 -265 -219 -434q18 0 25.5 0.5t18.5 6t18 17.5q4 7 10.5 3.5t3.5 -10.5q-19 -40 -86 -34q-76 -157 -95 -237q-8 -35 -7 -59t10.5 -35.5t32 -6.5t57.5 28q98 64 318 281q4 4 8.5 3t5.5 -5t-2 -8
l-49 -47.5l-67 -64.5l-65.5 -60.5t-75.5 -64t-65 -47.5q-83 -49 -116 -23t-17 107q28 115 94 245l-59 13q-104 -136 -184 -211q-195 -183 -354 -116q-52 21 -83.5 65t-35.5 106q3 10 11 10t9 -9q14 -114 109 -152q145 -59 322 118q79 81 166 196q-162 25 -211 -36zM733 252
q124 245 174 333l-54 -78.5l-81.5 -117.5t-93.5 -126q11 -2 29.5 -6t25.5 -5z" />
    <glyph glyph-name="B" unicode="B" horiz-adv-x="1043" 
d="M797 604q-76 -54 -165 -85.5t-229.5 -60t-177.5 -38.5q-36 -9 -57 -15t-48.5 -22t-36.5 -37q-10 -18 -4 -43.5t24 -33.5q5 -2 6 -6t-2 -7t-9 -4q-29 9 -37.5 43.5t4.5 58.5q8 19 25 33.5t42.5 24t43 14.5t45.5 11l117.5 24.5t120 25.5t107 29t111.5 41t98.5 56t100.5 79
q7 6 12.5 5.5t7 -5t-1.5 -10.5l-169 -287q88 85 120 113q65 59 143 113q115 70 158 14q21 -25 15.5 -62.5t-20.5 -68.5t-35 -56q-34 -46 -98.5 -96.5t-137.5 -89.5q-41 -24 -81 -40q34 -35 39.5 -86.5t-10.5 -99t-45 -86.5q20 -41 14.5 -83.5t-34.5 -75.5q-3 -4 -8 -3
t-6.5 5t1.5 8q52 61 24 134q-50 -61 -108 -80q-39 -18 -86 -5t-62 56q-16 42 10 79q23 40 68.5 51.5t90.5 -4t74 -48.5q22 36 34.5 74.5t8.5 81.5t-33 71q-76 -28 -170 -26q-60 -89 -113 -146q-169 -183 -340 -116q-116 45 -143 171q1 10 9.5 10t10.5 -9q30 -113 130 -152
q156 -59 308 118q49 59 99 133q-30 13 -29 31.5t28 32.5q23 12 50 15l33 55q33 59 90.5 154t72.5 122zM765 241q29 12 79 40q70 40 131.5 89t90.5 87q65 86 50 147q-18 69 -120 3q-57 -37 -141 -111q-79 -69 -165 -157q-6 -8 -8 -12l-34 -55q82 -8 117 -31zM651 -115
q49 28 91 85q-40 49 -107.5 55t-103.5 -48q-20 -31 -9 -64q13 -43 54.5 -47t74.5 19zM738 229q-29 18 -101 26l-35 -54q71 2 136 28zM555 243q-10 -5 -14 -11.5t0.5 -13t19.5 -10.5l30 48q-24 -5 -36 -13z" />
    <glyph glyph-name="C" unicode="C" horiz-adv-x="608" 
d="M609 203q4 3 8 1t4.5 -6t-2.5 -8q-144 -126 -247 -203q-78 -57 -131 -82q-74 -39 -144 -28q-36 4 -58 28.5t-27 62.5q-7 53 21.5 133.5t64 142t75.5 117.5l1 1q-37 20 -48.5 57t0.5 74.5t40 66.5q40 42 93 45.5t97 -42.5q105 92 200 113q66 16 90 -18.5t-12 -98.5
q-14 -25 -56 -71q-99 -98 -223 -131q-35 -64 -99 -106q-4 -3 -8 -0.5t-4 7t3 7.5q51 31 86 86q-71 -15 -121 -2q-67 -93 -117.5 -199t-41.5 -184q6 -49 39 -66q51 -26 142 19q51 25 128 81q104 76 247 203zM560 653q-88 -32 -186 -119q31 -70 -10 -158q118 38 203 123
q28 28 50 63q33 53 16 82t-73 9zM362 522q-72 -67 -141 -160q56 -11 123 9q4 7 5 9q35 80 13 142zM183 375q78 105 162 179q-38 40 -85.5 36t-82.5 -41q-25 -25 -35.5 -58.5t-0.5 -66t42 -49.5z" />
    <glyph glyph-name="D" unicode="D" horiz-adv-x="1156" 
d="M785 604q-74 -54 -162.5 -85.5t-227.5 -60t-176 -38.5q-26 -6 -41.5 -10.5t-39 -13.5t-38 -21.5t-21.5 -28.5q-9 -19 -1 -41t27 -30q5 -2 6 -6t-2 -7t-9 -4q-30 9 -40.5 40.5t1.5 55.5q6 15 19.5 28t27.5 20.5t36 15.5t35 11l35 8l117 24.5t119.5 25.5t106 29t110 41
t96.5 56t98 79q6 6 12 5.5t7.5 -5t-1.5 -10.5q-1 -2 -77 -140t-123 -215l-27 -45q108 129 222 240t194 147q49 26 89 10t44 -76q4 -81 -77 -218.5t-180 -254t-180 -187.5q35 -81 -20 -149q-3 -4 -7.5 -3t-6 5t1.5 8q48 61 20 128q-47 -37 -76 -54q-48 -25 -95 -26
q-63 -2 -86 46t10 96q26 39 73.5 48t94 -10.5t73.5 -57.5q57 53 123.5 129.5t133 166t110.5 180t44 152.5q-1 85 -82 52q-49 -19 -120 -79.5t-144.5 -140.5l-126.5 -141.5l-98 -118.5l-2 -2q-54 -82 -100 -133q-162 -183 -336 -116q-56 21 -94.5 65t-53.5 106q0 6 4.5 8.5
t9 0t5.5 -7.5q34 -113 135 -152q158 -59 305 118q81 101 172 267l87 157zM735 -37q-38 54 -108 64t-108 -42q-26 -36 -8.5 -77.5t67.5 -36.5q35 4 80 32q29 19 77 60z" />
    <glyph glyph-name="E" unicode="E" horiz-adv-x="704" 
d="M315 358q-80 -25 -239.5 -50t-174.5 -28q-27 -5 -42 -8.5t-39.5 -11t-40.5 -19t-24 -27.5q-10 -18 -5.5 -43.5t21.5 -34.5q8 -4 6 -8.5t-12 -5.5q-29 11 -35.5 44.5t8.5 56.5q26 52 160 74q30 5 129 19.5t160 26.5t119 31q-18 35 -16.5 70t21 72t42 66t47.5 50
q100 80 187 67q62 -9 79 -58q20 -62 -51 -135l-2 -2q-70 -61 -262 -134q27 -34 97 -38q34 0 53 3q11 3 12 -6q1 -7 -8 -9h-2q-94 -22 -192.5 -79t-167.5 -128q-89 -91 -94 -167q-3 -31 10.5 -53.5t43.5 -30.5q42 -13 102 6q94 28 253.5 137t245.5 197q4 4 8 2t5 -6.5
t-2 -8.5q-89 -93 -250 -201t-260 -136q-27 -7 -53.5 -9.5t-54.5 1.5t-49.5 20.5t-31.5 43.5q-11 34 0 79q17 65 87 139q60 61 142.5 112t165.5 79q-70 11 -96 41zM605 519q67 68 45 116q-17 40 -78 36q-75 -5 -151 -75q-45 -40 -73 -99t-5 -111q202 71 262 133z" />
    <glyph glyph-name="F" unicode="F" horiz-adv-x="950" 
d="M867 703l38 26q7 5 12.5 4.5t6 -4t-1.5 -9.5l-15 -28q73 -18 124.5 -28t109.5 -10.5t95 15.5q38 17 49 43.5t-5 46t-46 19.5q-40 0 -64 -50q-3 -7 -10 -4t-4 10q25 59 78 59q43 0 62.5 -30t1.5 -69.5t-69 -61.5q-28 -12 -63 -15t-92.5 7t-82 15.5l-100.5 23.5
q-104 -208 -135 -265q12 0 32.5 -0.5t48.5 -1.5t45 -1q40 57 70 68q44 16 53 -13q8 -26 -16 -50q-14 -16 -35 -18h-48q-2 -2 -11 -15.5t-12.5 -17.5t-13 -16t-15.5 -17l-15.5 -13.5t-17.5 -11t-18 -5t-20 -0.5t-21 7q-9 5 -3 12q4 4 9 0q20 -10 42 3t34 29t28 40q2 3 3 5
l-125 4l-21 -38l-21.5 -39.5t-19.5 -35l-21 -36.5l-19 -31.5t-21 -33.5l-20 -29.5t-23 -31l-22 -27.5q-151 -181 -323 -116q-57 21 -98 65t-59 106q0 6 4.5 8.5t9 0t6.5 -7.5q39 -113 142 -152q160 -58 299 118q76 102 162 275q-29 -6 -29 -27q0 -9 -9 -8q-8 0 -6 8
q3 19 13.5 28t36.5 13l71.5 141.5l58.5 112.5l13 25q-64 15 -110.5 22t-98 3.5t-90.5 -22.5q-49 -23 -79.5 -72t-10.5 -97q8 -20 24.5 -32t35.5 -13t39 14t35 45q4 6 20 47q3 7 10.5 4t4.5 -10q-3 -9 -20 -47q-17 -35 -42 -52.5t-48.5 -16.5t-44.5 15t-31 38
q-23 54 11.5 116t88.5 92q44 24 101 27.5t98 -4.5t120 -28zM916 396q7 -1 35 -1q31 3 40 31q7 21 -7 25q-10 2 -26 -10q-22 -17 -42 -45z" />
    <glyph glyph-name="G" unicode="G" horiz-adv-x="769" 
d="M933 702q14 0 13.5 -8t-10.5 -11q-43 -15 -89 -97q-14 -24 -75 -135.5t-90 -158.5q-107 -175 -159 -241q-20 -25 -40 -47q-167 -183 -338 -116q-56 21 -94 65t-52 106q1 9 9.5 9t10.5 -8q31 -113 132 -152q157 -59 307 118q85 105 176 267q16 30 87 152q-22 -19 -46 -37
l-54.5 -39t-59.5 -35.5t-56 -24.5t-50.5 -9t-37.5 14q-32 34 -23 94q-65 -15 -185.5 -32t-167.5 -26q-122 -19 -145 -64q-10 -18 -5.5 -43.5t22.5 -34.5q8 -4 6 -9.5t-12 -6.5q-29 11 -34.5 45.5t8.5 57.5q9 18 26 31t43.5 21.5t42 12t44.5 8.5q33 5 115.5 16t138 20
t107.5 22q12 55 51 119q15 32 47 69q99 130 185 154q69 20 99 -12.5t19.5 -85.5t-46.5 -91q-56 -58 -152.5 -103.5t-163.5 -56.5q-14 -52 -2 -79q7 -18 26.5 -21t47.5 8.5t59 29t65.5 42l60.5 44.5l51 41q126 217 188 218zM703 747q-81 -32 -167 -143q-2 -4 -13 -19.5
l-20.5 -30t-14.5 -24.5q-27 -44 -46 -94q71 16 163 58t140 101q39 40 41 97q2 55 -36 62q-20 4 -47 -7z" />
    <glyph glyph-name="H" unicode="H" horiz-adv-x="1147" 
d="M17 94q0 6 4.5 8.5t9 0t6.5 -7.5q34 -113 137 -152q159 -59 302 118q77 97 169 267q-18 -5 -25 -11q-2 -2 -6 -2t-5 2q-5 7 0 11q13 13 44 15l143 261q-74 -54 -161.5 -85.5t-226.5 -60t-176 -38.5q-36 -9 -56 -15t-47 -22t-35 -37q-9 -18 -2 -43.5t25 -33.5q5 -2 6.5 -6
t-1.5 -7t-9 -4q-30 9 -40 43.5t2 58.5q7 19 23.5 33.5t42 24t42 14.5t44.5 11q36 8 116.5 24.5t119.5 25.5t105.5 29t109.5 41t96 56t97 79q6 6 12 5.5t7.5 -5t-1.5 -10.5l-186 -340q21 -3 72.5 -12t71.5 -10q34 57 66 104q206 306 302 266q12 -6 5 -14q-4 -4 -10 -1
q-65 28 -241 -236q-4 -6 -5 -8q-27 -40 -68 -107q23 7 30 11t11 -2.5t-2 -11.5q-26 -14 -51 -15q-2 -4 -35 -60.5l-50.5 -88l-44.5 -84t-42.5 -94t-20.5 -72.5q-3 -23 3.5 -34t20 -9t26 7t27.5 14q51 29 135.5 98.5t123.5 105.5l120 113q7 5 11.5 -1.5t-0.5 -11.5
q-271 -256 -383 -318q-101 -54 -118 32q-2 19 4 47.5t20.5 63l29.5 67t37 71.5l35.5 62.5l32.5 55t21 35.5q-16 1 -67 10t-77 12l-22.5 -38.5l-23.5 -40.5t-21.5 -36l-24 -38.5l-22.5 -34t-25.5 -36.5l-24 -31.5t-27.5 -32.5q-160 -183 -334 -116q-118 45 -151 171z" />
    <glyph glyph-name="I" unicode="I" horiz-adv-x="737" 
d="M876 692q7 6 12.5 5.5t7 -5t-1.5 -10.5l-86 -146l-126 -209q-2 -3 -24 -38l-26 -41l-23 -35.5t-26 -39l-23.5 -33.5t-27 -37l-25.5 -31t-29 -33q-169 -183 -340 -116q-116 45 -143 171q1 10 9.5 10t10.5 -9q30 -113 130 -152q156 -59 308 118q84 100 181 267
q33 59 90.5 154t72.5 122q-46 -32 -104 -57t-97 -37t-110 -31q-36 -9 -57 -15t-48.5 -22t-36.5 -37q-10 -18 -4 -43.5t24 -33.5q5 -2 6 -6t-2 -7t-9 -4q-29 9 -37.5 43.5t4.5 58.5q8 19 25 33.5t42.5 24t43 14.5t45.5 11q129 31 224 76t170 120z" />
    <glyph glyph-name="J" unicode="J" horiz-adv-x="748" 
d="M797 604q-76 -54 -165 -85.5t-229.5 -60t-177.5 -38.5q-36 -9 -57 -15t-48.5 -22t-36.5 -37q-10 -18 -4 -43.5t24 -33.5q5 -2 6 -6t-2 -7t-9 -4q-29 9 -37.5 43.5t4.5 58.5q8 19 25 33.5t42.5 24t43 14.5t45.5 11l117.5 24.5t120 25.5t107 29t111.5 41t98.5 56t100.5 79
q7 6 12.5 5.5t7 -5t-1.5 -10.5l-86 -146l-126 -209q-2 -3 -24 -38l-26 -41l-23 -35.5t-26 -39l-23.5 -33.5t-27 -37l-25.5 -31t-29 -33q-169 -183 -340 -116q-116 45 -143 171q1 10 9.5 10t10.5 -9q30 -113 130 -152q156 -59 308 118q84 100 181 267q33 59 90.5 154
t72.5 122z" />
    <glyph glyph-name="K" unicode="K" horiz-adv-x="1174" 
d="M797 604q-76 -54 -165 -85.5t-229.5 -60t-177.5 -38.5q-36 -9 -57 -15t-48.5 -22t-36.5 -37q-10 -18 -4 -43.5t24 -33.5q5 -2 6 -6t-2 -7t-9 -4q-29 9 -37.5 43.5t4.5 58.5q8 19 25 33.5t42.5 24t43 14.5t45.5 11l117.5 24.5t120 25.5t107 29t111.5 41t98.5 56t100.5 79
q7 6 12.5 5.5t7 -5t-1.5 -10.5l-86 -146l-126 -209l-16 -26q7 5 25.5 17t38 26.5t35.5 30.5q188 191 271 235q55 31 89.5 13t38.5 -85q0 -5 -3.5 -7.5t-7.5 -0.5t-4 7q-5 62 -30 70t-70 -25q-79 -49 -252 -220q-17 -17 -40 -32.5t-38 -24t-35.5 -18t-22.5 -10.5
q1 -2 18.5 -43.5t20.5 -65.5q5 -41 12 -78q2 -16 2 -19q15 -98 35 -134q40 -69 128 -19q40 22 84.5 60t71 66l76 84.5t65.5 73.5q6 6 12 -1q5 -5 -1 -10q-17 -18 -66 -74t-76 -84.5t-72 -67t-86 -61.5q-121 -65 -176 50q-27 54 -36 139q-1 9 -10 75q-1 13 -22 95
q-96 -152 -163 -224q-169 -183 -340 -116q-116 45 -143 171q1 10 9.5 10t10.5 -9q30 -113 130 -152q156 -59 308 118q84 100 181 267q33 59 90.5 154t72.5 122z" />
    <glyph glyph-name="L" unicode="L" horiz-adv-x="618" 
d="M596 609q-76 -54 -166 -86.5t-237.5 -63.5t-178.5 -39q-36 -9 -57 -15t-48.5 -22t-36.5 -37q-10 -18 -4 -43.5t24 -33.5q5 -2 6 -6t-2 -7t-9 -4q-29 9 -37.5 43.5t4.5 58.5q8 19 25 33.5t42.5 24t43 14.5t45.5 11l117.5 24.5t120 25.5t107 29t111.5 41t98.5 56t100.5 79
q7 6 12.5 5.5t6.5 -5t-1 -10.5l-88 -166t-86.5 -161l-67.5 -118t-84 -133t-84 -110q67 -33 150 -87l34.5 -23l42.5 -27.5t44 -25t48 -20.5t44 -8.5t42 6.5t34 29q3 4 7.5 3t6 -4.5t-1.5 -7.5q-19 -25 -41.5 -37t-51.5 -9.5t-53.5 8.5t-62.5 26.5t-61.5 35l-67.5 42.5
q-101 62 -133 78q-75 -66 -137 -77q-51 -10 -78.5 4.5t-28 39t21 50.5t58.5 37q59 18 155 -19q67 86 128 189.5t127.5 231t96.5 180.5zM225 -13q-89 38 -133 25q-52 -16 -64 -55q-9 -32 20 -45q22 -10 60 2q64 20 117 73z" />
    <glyph glyph-name="M" unicode="M" horiz-adv-x="1445" 
d="M802 116q-5 -9 -13 -7t-7 12l1 1q21 39 46 80l57 92.5l46 74.5q62 103 69 124q9 27 -15 14q-17 -8 -50 -36q-84 -71 -220 -196l-174 -159q-19 -25 -64 -77q-77 -83 -163 -117t-175 1q-54 21 -91.5 66t-50.5 108q1 10 7.5 10.5t8.5 -7.5q32 -122 130 -160q79 -31 160.5 6
t148.5 115q84 100 181 267q33 59 90.5 154t72.5 122q-76 -54 -165 -85.5t-229.5 -60t-177.5 -38.5q-36 -9 -57 -15t-48.5 -22t-36.5 -37q-10 -18 -4 -43.5t24 -33.5q5 -2 6 -6t-2 -7t-9 -4q-29 9 -37.5 43.5t4.5 58.5q8 19 25 33.5t42.5 24t43 14.5t45.5 11l117.5 24.5
t120 25.5t107 29t111.5 41t98.5 56t100.5 79q7 6 12.5 5.5t7 -5t-1.5 -10.5l-86 -146l-126 -209l-90 -141q226 211 335 303q57 49 86 41q20 -8 13 -46.5t-36 -95.5q-21 -41 -74 -127l88 102.5l99 114l81.5 89.5t74.5 75q46 41 83 52.5t54 -4.5t13.5 -55t-30.5 -91
q-13 -25 -144.5 -253t-165.5 -310q-40 -99 0 -102q32 -2 112 64q77 64 126.5 113.5t137.5 145.5q2 2 6 1.5t7 -4t1 -8.5q-133 -146 -270 -266q-104 -84 -145.5 -58t-11.5 122q20 65 83 182l136 242.5t91 159.5q51 100 26 108.5t-100 -57.5q-77 -70 -245 -263t-221 -245z" />
    <glyph glyph-name="N" unicode="N" horiz-adv-x="1184" 
d="M542 116q-2 -4 -4 -5q-28 -37 -60 -72q-169 -183 -340 -116q-116 45 -143 171q1 10 9.5 10t10.5 -9q30 -113 130 -152q156 -59 308 118q84 100 181 267q33 59 90.5 154t72.5 122q-76 -54 -165 -85.5t-229.5 -60t-177.5 -38.5q-36 -9 -57 -15t-48.5 -22t-36.5 -37
q-10 -18 -4 -43.5t24 -33.5q5 -2 6 -6t-2 -7t-9 -4q-29 9 -37.5 43.5t4.5 58.5q8 19 25 33.5t42.5 24t43 14.5t45.5 11l117.5 24.5t120 25.5t107 29t111.5 41t98.5 56t100.5 79q7 6 12.5 5.5t7 -5t-1.5 -10.5l-86 -146l-126 -209l-90 -141q226 211 335 303q48 40 85 51
t53.5 -4.5t12.5 -54t-31 -90.5q-25 -47 -115.5 -189t-122.5 -221q-40 -99 0 -102q32 -2 112 64q53 44 99.5 88.5t72.5 72l91 98.5q8 1 11.5 -1.5t1.5 -12.5l-134.5 -140t-133.5 -123q-104 -84 -145.5 -58t-11.5 122q20 65 65.5 145t99 163.5t73.5 122.5q51 100 26 108.5
t-100 -57.5q-84 -71 -220 -196z" />
    <glyph glyph-name="O" unicode="O" horiz-adv-x="538" 
d="M99 324q49 93 94 157q89 128 170 163q18 9 37 13.5t39.5 5t35.5 -12t19 -37.5q45 -41 30 -136q-15 -90 -61 -201t-117.5 -212.5t-144.5 -142.5q-34 -18 -65.5 -25t-63.5 4.5t-48 46.5q-42 94 43 304q-68 -22 -195.5 -48.5t-168.5 -36.5q-36 -9 -57 -15t-48.5 -22
t-36.5 -37q-10 -18 -4 -43.5t24 -33.5q5 -2 6 -6t-2 -7t-9 -4q-29 9 -37.5 43.5t4.5 58.5q8 19 25 33.5t42.5 24t43 14.5t45.5 11l120 24.5t147 32t109 32.5q16 36 24 52zM70 -54q15 -25 37.5 -31.5t41.5 0t45 21.5q105 59 198 230.5t116 311.5q14 72 -15 114
q-6 -38 -42 -87q-109 -149 -331 -236q-19 -42 -33.5 -83.5t-25 -87.5t-9 -86t17.5 -66zM438 514q37 53 41 92q-27 22 -69 9q-61 -18 -113 -97q-2 -5 -7 -4.5t-6.5 4.5t0.5 8q53 82 122 105q39 10 70 -5q-9 18 -32 18t-40.5 -7.5t-31.5 -16.5q-14 -10 -29 -22.5t-24.5 -22
t-24.5 -27t-20 -24.5l-21 -28.5t-19 -24.5q-55 -78 -92 -154l-12 -25q96 40 170.5 90.5t137.5 131.5z" />
    <glyph glyph-name="P" unicode="P" horiz-adv-x="1025" 
d="M809 607q-76 -54 -165 -85.5t-229.5 -60t-177.5 -38.5q-36 -9 -57 -15t-48.5 -22t-36.5 -37q-10 -18 -4 -43.5t24 -33.5q5 -2 6 -6t-2 -7t-9 -4q-29 9 -37.5 43.5t4.5 58.5q8 19 25 33.5t42.5 24t43 14.5t45.5 11l117.5 24.5t120 25.5t107 29t111.5 41t98.5 56t100.5 79
q7 6 12.5 5.5t7 -5t-1.5 -10.5l-119 -201q54 56 157 141q44 38 91 51t80.5 -6.5t36.5 -70.5q0 -58 -44 -126.5t-95 -117t-104 -85.5q19 -71 -24 -125q-3 -4 -7.5 -2.5t-6 5t0.5 7.5q35 45 24 106q-110 -73 -187 -60q-38 6 -70 41q-81 -126 -149 -200q-169 -183 -340 -116
q-116 45 -143 171q1 9 9.5 9t10.5 -8q30 -113 130 -152q156 -59 308 118q72 86 151 217q-6 34 12.5 66t53.5 48l2 4h1l63.5 106zM755 406q46 -4 84.5 -32t58.5 -72q73 59 144.5 147.5t77.5 151.5q0 32 -16.5 47.5t-41.5 13.5t-53 -15t-54 -34q-108 -90 -193 -173
q-18 -28 -20 -32q8 -2 13 -2zM708 218q29 -4 67 10.5t57.5 27.5l52.5 36q-17 41 -53 68t-78 31h-22l-38 -61l-48 -75q34 -34 62 -37z" />
    <glyph glyph-name="Q" unicode="Q" horiz-adv-x="586" 
d="M99 324q49 93 94 157q89 128 170 163q18 9 37 13.5t39.5 5t35.5 -12t19 -37.5q45 -41 30 -136q-23 -137 -112 -305.5t-192 -237.5q157 -73 196 -75q35 0 36 36q0 9 7 10q8 0 8 -8q0 -60 -55 -60q-32 0 -68 11.5t-90 37t-64 29.5q-32 -15 -61 -20t-57.5 5.5t-44.5 40.5
q-47 -18 -47 -86q0 -7 -8 -7t-8 7q0 92 52 116q-23 98 51 280q-68 -22 -195.5 -48.5t-168.5 -36.5q-36 -9 -57 -15t-48.5 -22t-36.5 -37q-10 -18 -4 -43.5t24 -33.5q5 -2 6 -6t-2 -7t-9 -4q-29 9 -37.5 43.5t4.5 58.5q8 19 25 33.5t42.5 24t43 14.5t45.5 11l120 24.5t147 32
t109 32.5q16 36 24 52zM203 -58q69 42 136.5 141t110.5 204.5t58 190.5q14 72 -15 114q-6 -38 -42 -87q-109 -149 -331 -236q-85 -190 -64 -288q58 3 147 -39zM438 514q37 53 41 92q-27 22 -69 9q-61 -18 -113 -97q-2 -5 -7 -4.5t-6.5 4.5t0.5 8q53 82 122 105q39 10 70 -5
q-9 18 -32 18t-40.5 -7.5t-31.5 -16.5q-14 -10 -29 -22.5t-24.5 -22t-24.5 -27t-20 -24.5l-21 -28.5t-19 -24.5q-55 -78 -92 -154l-12 -25q96 40 170.5 90.5t137.5 131.5zM69 -53l1 -1q32 -54 99 -22q-60 22 -100 23z" />
    <glyph glyph-name="R" unicode="R" horiz-adv-x="1076" 
d="M807 604q-76 -54 -165 -85.5t-229.5 -60t-177.5 -38.5q-36 -9 -57 -15t-48.5 -22t-36.5 -37q-10 -18 -4 -43.5t24 -33.5q5 -2 6 -6t-2 -7t-9 -4q-29 9 -37.5 43.5t4.5 58.5q8 19 25 33.5t42.5 24t43 14.5t45.5 11l117.5 24.5t120 25.5t107 29t111.5 41t98.5 56t100.5 79
q7 6 12.5 5.5t7 -5t-1.5 -10.5q-17 -26 -58 -97l-60 -104q63 59 137.5 119t114.5 77q77 34 109.5 -15t3.5 -120q-25 -60 -81.5 -124t-127.5 -118q-107 -80 -201 -98q1 -9 6 -60t7.5 -70l8 -58.5t11.5 -69.5t14 -59q48 -161 161 -109q4 2 7.5 -0.5t3.5 -6.5t-4 -6
q-28 -13 -54.5 -13.5t-45.5 8.5t-35.5 26t-27.5 33.5t-19 35.5q-48 106 -69 347q-45 0 -78 10l-7 3q-68 -105 -132 -174q-169 -183 -340 -116q-116 45 -143 171q1 10 9.5 10t10.5 -9q30 -113 130 -152q156 -59 308 118q63 74 127 178q-17 29 3.5 63t56.5 37zM738 224
q82 24 165 87q68 52 126 117t86 121q18 36 17 69.5t-22.5 47t-65.5 -3.5q-45 -20 -130 -90t-156 -138l-65 -105q34 -26 45 -105zM628 226l5 -2q44 -11 71 -7q-5 56 -25 90zM601 256l38 64q-19 -7 -31.5 -26.5t-6.5 -37.5z" />
    <glyph glyph-name="S" unicode="S" horiz-adv-x="844" 
d="M689 409l3 -98t2.5 -98.5t-1.5 -91t-8.5 -92t-21 -83t-37 -82t-57 -72t-80.5 -68.5q-73 -46 -150.5 -53t-139 21t-103.5 91.5t-46 151.5q-8 128 72 241.5t202 131.5q106 15 147 -54q35 -58 5 -133q-32 -81 -116 -115q-22 -9 -46 -14q-79 -15 -133 6q-8 2 -3 10q3 6 10 3
q58 -20 132 -2q92 23 133 100q35 68 7 125q-31 65 -122 58q-7 0 -14 -1q-79 -11 -141.5 -69t-92.5 -135t-25 -153q6 -84 47.5 -143t100 -82.5t128 -14t129.5 54.5q56 42 93 96.5t54 106.5t24 121t5.5 121.5l-3.5 127.5t0 120q-79 -49 -170 -78.5t-225.5 -56t-175.5 -37.5
q-36 -8 -58 -14.5t-50.5 -22.5t-40.5 -37q-11 -19 -7.5 -41.5t20.5 -30.5q8 -4 6 -10t-12 -7q-29 9 -33.5 41t11.5 56q10 19 28 33.5t43.5 24t43.5 14.5t46 11q35 8 145.5 29.5t158.5 33.5t127 41.5t142 69.5q5 165 102 249q39 30 73.5 37.5t53 -6.5t24.5 -40t-12 -62
q-18 -38 -80 -88.5t-113 -81.5q-2 -29 -1 -60zM781 699q-80 -70 -89 -210q126 76 172 153q25 57 -3 79.5t-80 -22.5z" />
    <glyph glyph-name="T" unicode="T" horiz-adv-x="861" 
d="M874 711l38 26q7 5 13 4.5t7 -4.5t-1 -10l-14 -27q156 -39 210 -44q66 -5 109 13q38 17 49 43.5t-5 46t-46 19.5q-40 0 -64 -50q-3 -7 -10 -4t-4 10q25 59 78 59q43 0 62.5 -30t1.5 -69.5t-69 -61.5q-67 -30 -224 5q-14 3 -107 26q-101 -205 -149 -291q-3 -5 -17 -31
l-17.5 -32.5t-16.5 -29l-18 -31l-16.5 -28.5t-18 -30l-17.5 -26.5t-19.5 -28l-19 -25.5t-20.5 -26q-153 -183 -330 -116q-57 21 -98 65t-59 106q0 6 4.5 8.5t9 0t6.5 -7.5q39 -113 142 -152q160 -58 299 118q76 102 158 267q28 59 77.5 154t62.5 122l13 25q-64 15 -110.5 22
t-98 3.5t-90.5 -22.5q-49 -23 -79.5 -72t-10.5 -97q8 -20 24.5 -32t35.5 -13t39 14t35 45q4 6 20 47q3 7 10.5 4t4.5 -10q-3 -9 -20 -47q-17 -35 -42 -52.5t-48.5 -16.5t-44.5 15t-31 38q-23 54 11.5 116t88.5 92q45 25 101 30.5t105.5 -2t119.5 -25.5z" />
    <glyph glyph-name="U" unicode="U" horiz-adv-x="892" 
d="M394 574q-70 -61 -156.5 -101t-222 -81.5t-173.5 -55.5q-34 -11 -55 -19.5t-47 -27t-33 -40.5q-7 -21 0.5 -45t26.5 -30q8 -3 7.5 -9t-10.5 -8q-30 6 -41 37.5t-2 60.5q8 25 36.5 46.5t51.5 30.5t60 21t115 35.5t117 36.5t104 39t107 51.5t92.5 65t92.5 88.5q6 7 12 7
t7.5 -5t-0.5 -11l-220 -451q-51 -105 -59 -167q-6 -42 15.5 -45t49.5 20q52 35 140 131q106 115 336 419q58 80 92 121q6 6 15.5 6t17.5 -6t4 -13q-47 -91 -168 -344q-95 -196 -140 -303q-26 -58 -32 -96q-8 -43 7 -51t51 21l35.5 30l36.5 32.5l33 30.5t34.5 34.5l31.5 32.5
t33.5 35.5l31 34l33 37t31.5 34.5q5 5 10.5 -0.5t0.5 -10.5q-2 -2 -30.5 -33.5l-33.5 -37l-30 -33t-34 -36.5l-31.5 -32.5t-35.5 -35.5l-32.5 -31t-37 -34l-35.5 -30q-41 -33 -73.5 -24t-31.5 65q0 44 27 105q45 103 148 319l128 263q-10 -15 -44 -59q-215 -290 -337 -421
q-85 -93 -142 -134q-24 -17 -44.5 -21.5t-36 8t-19.5 44.5q-8 71 52 200z" />
    <glyph glyph-name="V" unicode="V" horiz-adv-x="586" 
d="M453 660q-50 -53 -122.5 -101.5t-131.5 -76.5l-148.5 -68.5t-133.5 -62.5l-53 -26.5t-44 -32t-29 -43.5q-6 -21 4 -44t29 -27q8 -2 8 -8t-9 -10q-31 3 -44.5 33t-6.5 60q12 58 137 114l111 49l113 50.5t100 51t102 64t86.5 76t84.5 98.5q8 11 15 7.5t5 -13.5
q-50 -176 -122 -402.5t-120 -344.5q200 353 413 595q269 304 413 233l4 -2q7 -3 3 -11q-4 -5 -12 -3l-2 1q-133 67 -395 -229q-244 -277 -432 -631q-27 -51 -42 -49q-21 2 10 109q153 433 209 644z" />
    <glyph glyph-name="W" unicode="W" horiz-adv-x="885" 
d="M327 221q62 184 158 439q-68 -69 -155 -120.5t-224.5 -111.5t-172.5 -77q-34 -15 -55 -26t-46 -32.5t-31 -43.5q-7 -21 1.5 -44t27.5 -27q8 -2 7.5 -8t-9.5 -10q-31 3 -43 33t-3 60q7 26 34 50t50.5 36t59.5 28l97.5 42.5l99 43t90.5 42t91.5 49.5t82.5 56t83 71t74 85
q6 7 11 8t7.5 -3.5t0.5 -10.5q-18 -53 -100.5 -269.5t-117.5 -326.5q-16 -51 3 -49q8 1 22 14q63 60 98 102.5t86 117.5q15 132 46 156q27 21 42 1q19 -25 -11 -75q-2 -2 -3 -4l-31 -48q-26 -173 -26 -335q0 -59 5 -83q16 -67 65 45q164 391 340 612q21 26 43.5 51t52.5 54
t59.5 51t64 43t67 30t68 12t67.5 -11q5 -2 5 -6.5t-3 -7.5t-7 -1q-30 13 -64 10t-65 -12t-64.5 -29.5t-61.5 -42t-57 -49.5t-50.5 -52t-41.5 -49q-171 -213 -339 -608q-60 -135 -101 -45q-13 35 -16 83q-5 132 12 278q-45 -67 -79 -108t-93 -97q-35 -30 -53.5 -10.5
t-13.5 62.5q8 42 16 67zM596 392l21 34q26 43 16 61q-7 11 -18 -6q-7 -11 -11 -31q-7 -28 -8 -58z" />
    <glyph glyph-name="X" unicode="X" horiz-adv-x="1125" 
d="M611 365q0 28 1.5 80.5t2 84t-1 70.5t-6.5 66q-15 79 -61 90q19 -98 -62 -235q-73 -124 -152 -143q-57 -14 -83 32q-33 57 13 153q15 31 38 63q27 37 69 73t86 55q36 16 69 18q-14 38 -48 54t-76 8q-54 -9 -105.5 -54t-82.5 -122q-2 -4 -6.5 -4.5t-7.5 3t-1 8.5
q34 81 88 128.5t113 57.5q48 9 87.5 -11.5t55.5 -67.5q73 -3 100 -95q21 -69 17 -253l77.5 93t73.5 80t72.5 64t67 40t63.5 14t57 -21q4 -3 3 -7.5t-4.5 -6t-8.5 1.5q-21 15 -46 16.5t-50 -7.5t-55 -30t-58 -46.5t-62.5 -63t-63.5 -72.5l-66 -81q0 -7 -1 -20t-1 -20
q-7 -102 -1.5 -215.5t32.5 -177.5q36 -87 105 -72q49 11 118.5 71.5t118 117t96.5 120.5q3 4 7.5 3t6 -5t-1.5 -8q-216 -286 -340 -314q-93 -20 -141 73q-13 26 -22.5 63t-14 68.5t-6.5 77t-2.5 68.5t0 65t0.5 46l-45.5 -60l-63 -81.5l-73 -87.5t-83 -90t-85.5 -74
t-88 -54.5t-82 -18t-77 23.5q-6 4 -1.5 10.5t10.5 2.5q29 -20 64 -22t72 14.5t74.5 41.5t77.5 64l74 75t71 82l62 78l54 70.5zM471 529q80 135 59 228q-25 0 -68 -16q-43 -20 -84 -55t-66 -69q-73 -102 -59 -176q9 -47 50 -51q58 -6 126 78q22 27 42 61z" />
    <glyph glyph-name="Y" unicode="Y" horiz-adv-x="731" 
d="M399 629q-66 -30 -145 -51.5t-178.5 -41.5t-146.5 -32q-36 -9 -57 -15t-48.5 -22t-36.5 -37q-10 -18 -4 -43.5t24 -33.5q5 -2 6 -6t-2 -7t-9 -4q-29 9 -37.5 43.5t4.5 58.5q8 19 25 33.5t42.5 24t43 14.5t45.5 11q43 9 122.5 24t125 24.5t108 28.5t113.5 44q28 14 113 68
q47 26 66.5 10.5t12.5 -55.5q-5 -30 -33.5 -82t-57.5 -97.5t-47.5 -92.5t-8.5 -73q21 -53 127 30q4 3 6 4q41 33 176 195l56 68q23 27 36 40.5t23 21.5t15 13q7 6 12.5 5.5t7 -5t-1.5 -10.5l-86 -146l-126 -209q-2 -3 -24 -38l-26 -41l-23 -35.5t-26 -39l-23.5 -33.5
t-27 -37l-25.5 -31t-29 -33q-169 -183 -340 -116q-116 45 -143 171q1 10 9.5 10t10.5 -9q30 -113 130 -152q156 -59 308 118q84 100 181 267l125 211l-1 -1q-131 -159 -178 -196q-101 -82 -156 -50q-22 14 -29 41q0 13 -1.5 20.5t3 22.5t7 24.5t10 25l12 25t13 24.5l13 23
l12 20.5l10.5 17.5q53 92 66 124q16 36 10.5 46t-36.5 -8l-53.5 -33t-63.5 -36z" />
    <glyph glyph-name="Z" unicode="Z" horiz-adv-x="851" 
d="M590 686q-120 -7 -178 -134q-2 -4 -6.5 -4.5t-7.5 3t-1 8.5q71 152 221 143q70 -5 216 -58h1l1 -1h1h1l1 -1h1h1l1 -1h1h1l1 -1h1l1 -1h1q61 47 121 63q65 17 96 -20q25 -29 3 -60q-25 -38 -100 -38q-43 0 -109 23q-42 -37 -94 -99t-79 -98l-92 -127l-95 -130t-89.5 -110
t-99.5 -103q25 -11 98.5 -50.5t135.5 -69t133 -53.5t122 -14t71 58q2 4 6 4t7 -3.5t1 -7.5q-22 -46 -67.5 -62.5t-95.5 -9t-117.5 33t-118 52l-112.5 59t-87 44.5q-90 -70 -177 -81q-78 -9 -95 35q-14 37 21 74t92 41q52 2 149 -35q99 87 275 333q169 241 272 332l-43.5 16
t-49.5 17.5t-44 13.5t-50.5 12.5t-45.5 6.5zM980 683q-48 -17 -97 -57q48 -18 83 -23q65 -10 88 28q16 26 -4 46q-22 24 -70 6zM111 -140q71 19 142 75q-80 32 -127 35q-55 4 -86 -38q-25 -35 -7 -60q20 -26 78 -12z" />
    <glyph glyph-name="bracketleft" unicode="[" horiz-adv-x="226" 
d="M36 53q-8 0 -4 7l232 633q0 6 4 6h67q6 0 6 -5t-6 -5l-41 -2l-229 -624l39 1q6 0 6 -5.5t-6 -5.5h-68z" />
    <glyph glyph-name="backslash" unicode="\" horiz-adv-x="406" 
d="M272 64h-16q-1 0 -3.5 1t-3.5 1l-228 628q-1 1 -1 2.5t2 3t4 1.5h15q4 0 4 -6q20 -51 125 -337t105 -291q0 -3 -3 -3z" />
    <glyph glyph-name="bracketright" unicode="]" horiz-adv-x="346" 
d="M310 699q7 0 4 -8l-232 -637q-1 -1 -4 -1h-66q-6 0 -6 6t6 6l38 -1l231 625l-39 -2q-5 0 -5 6t5 6h68z" />
    <glyph glyph-name="asciicircum" unicode="^" horiz-adv-x="194" 
d="M105 632l-75 -100q-5 -4 -8.5 -1.5t0.5 8.5l79 132q5 7 10 0l62 -139q2 -4 -1.5 -6.5t-7.5 1.5q-8 13 -59 105z" />
    <glyph glyph-name="underscore" unicode="_" horiz-adv-x="286" 
d="M28 23q-6 0 -7.5 4t1 8t6.5 4q35 -1 161 -1q9 0 9 -7.5t-9 -7.5h-161z" />
    <glyph glyph-name="grave" unicode="`" horiz-adv-x="108" 
d="M21 661q-1 9 6.5 14t14.5 2l45 -61q2 -5 -1.5 -8.5t-7.5 0.5q-47 41 -57 53z" />
    <glyph glyph-name="a" unicode="a" horiz-adv-x="421" 
d="M51 158q0 24 -8 31.5t-28 -8.5q-43 -40 -64 -85q-9 -22 -5.5 -28t24.5 12q53 49 81 78zM64 171l70 72q5 5 14 4.5t16 -5.5t4 -12q-3 -6 -10.5 -18.5l-11.5 -19.5q-51 -88 -66 -127q-5 -13 -7.5 -22t-4 -20.5t2.5 -15.5t13 -7t26 5q63 21 155.5 81.5t155.5 115.5
q6 5 11 -1.5t-1 -11.5q-55 -47 -161.5 -117t-156.5 -84q-49 -13 -62.5 9.5t-1.5 65.5q15 64 55 126l-123 -121q-30 -25 -51 -16.5t-16 35.5q6 34 40.5 76.5t66.5 47.5q43 8 43 -40z" />
    <glyph glyph-name="b" unicode="b" horiz-adv-x="373" 
d="M305 528q-26 -12 -73 -55q-65 -67 -137 -179q67 30 144 79.5t110 93.5q29 38 13.5 58t-57.5 3zM217 499q44 37 74 46q55 21 81.5 -8t-10.5 -80q-36 -46 -127 -104.5t-155 -82.5q-62 -98 -101 -192h4q81 101 120 125q28 18 46 7t13 -44q-4 -26 -32 -69q171 44 243 105
q7 6 12 -2q4 -6 -1 -9q-89 -76 -270 -113q-39 -42 -90.5 -65.5t-93.5 -17.5q-28 1 -42 17t-5 34t41 25q2 0 6 0.5t5 0.5q47 114 125 235.5t157 191.5zM-77 38q0 2 2 8t3 10q-23 -5 -30.5 -15.5t2 -19.5t30.5 -9q61 -4 128 57l-66 -6q-22 -25 -36 -46q-7 -9 -22 1t-11 20z
M5 80q65 6 72 7q33 40 47 73q15 39 -1 36q-5 -1 -12 -5q-37 -26 -106 -111z" />
    <glyph glyph-name="c" unicode="c" horiz-adv-x="347" 
d="M110 219q1 -4 -2.5 -6.5t-7.5 -1.5t-5 6q-6 20 -35 -1q-2 -1 -3 -2q-25 -18 -54 -63t-34 -80q-12 -73 96 -28q7 2 26 11q159 77 256 148q4 3 8 1t4.5 -6t-3.5 -7q-98 -73 -261 -151q-127 -59 -155 0q-18 39 14 99.5t72 90.5q12 8 23.5 12.5t24 6t22.5 -5.5t14 -23z" />
    <glyph glyph-name="d" unicode="d" horiz-adv-x="444" 
d="M411 528q-25 -11 -73 -55q-58 -59 -138 -179q67 30 144 79.5t111 93.5q28 38 13 58t-57 3zM56 159q-6 54 -38 22q-42 -42 -57 -85q-7 -22 -2.5 -28t24.5 12zM68 171l60 70q93 170 194 258q43 36 75 46q54 21 80.5 -8t-10.5 -80q-36 -46 -127 -104.5t-155 -82.5l-1 -2
q-29 -49 -63 -125t-42 -126q-7 -40 6.5 -53.5t58.5 5.5q120 58 300 233q2 2 6 2t5 -2q5 -6 0 -11q-73 -72 -158 -141.5t-149 -96.5q-60 -22 -82.5 -0.5t-15.5 74.5q10 75 50 157q-70 -79 -106 -115q-28 -24 -49.5 -15.5t-19.5 33.5q2 35 33 77t63 47q42 8 47 -40z" />
    <glyph glyph-name="e" unicode="e" horiz-adv-x="329" 
d="M74 162q-37 -26 -73 -36q-1 0 -6.5 -1t-7.5 -2q-30 -54 -17 -82q4 -7 8.5 -11t12 -5t12.5 -1.5t15 2.5l13.5 4t13.5 5t11 4q121 51 273 163q7 6 10 -2q3 -7 -2 -11q-142 -107 -276 -165q-72 -29 -106 -5q-28 23 -21.5 63t34 82t59.5 65q35 22 58.5 17t22 -32t-33.5 -52z
M56 214q-27 -19 -59 -73q36 9 68 33q30 23 28 43q-2 17 -25 5q-6 -3 -12 -8z" />
    <glyph glyph-name="f" unicode="f" horiz-adv-x="342" 
d="M52 222q69 33 113 68q68 49 105 114q25 46 9 62q-12 12 -40 -7q-46 -33 -129 -147q-33 -48 -58 -90zM176 277q-64 -48 -138 -78l-2 -3l-2 -4q-34 -54 -72 -136q2 -14 6 -26q80 9 195.5 63.5t178.5 108.5q3 3 7 1t5.5 -5.5t-1.5 -6.5q-68 -59 -183 -112.5t-200 -62.5
q9 -58 -9.5 -135.5t-54.5 -112.5q-32 -28 -49.5 -15.5t-17.5 54.5q2 61 66 214q-19 11 -26 25t-2 26q6 15 24 17t32 -6q48 94 96 172q115 183 194 229q48 22 70 -3.5t-10 -84.5q-40 -69 -107 -119zM-80 56q5 12 5 13q-7 4 -18.5 4t-14.5 -6q-6 -17 17 -31q2 5 5 9.5t4.5 7
t1.5 3.5zM-105 -221q35 36 51.5 108t7.5 127q-2 0 -6.5 -0.5t-6.5 -0.5q-63 -141 -74 -212q-2 -15 -1 -24t7.5 -12t21.5 14zM-47 30l-2 6l-2 -6h4z" />
    <glyph glyph-name="g" unicode="g" horiz-adv-x="354" 
d="M11 -16q-90 -47 -147.5 -90t-105.5 -116q-42 -66 -30 -113q11 -50 62 -21q29 16 60.5 55.5t65.5 100t50.5 93.5zM55 159q-2 23 -10 30.5t-27 -8.5q-43 -43 -56 -85q-7 -23 -3.5 -28.5t23.5 12.5q27 27 73 79zM68 171l63 73q0 1 5 3q11 3 23 -0.5t8 -11.5q-6 -15 -11 -25
q-47 -111 -75 -171q13 7 59.5 30.5t74.5 39t68.5 41.5t70.5 52q4 3 8.5 1.5t5 -5.5t-2.5 -8q-34 -29 -79.5 -58.5t-70.5 -43t-83 -42l-62 -30.5q-159 -347 -272 -394q-28 -11 -53.5 -1t-31.5 40q-14 57 31 125q36 55 86 99t85 64.5t107 58.5l87 189l-4 -8v2
q-80 -90 -112 -122q-28 -24 -49 -15.5t-19 33.5q2 35 33 77t63 47q42 8 47 -40z" />
    <glyph glyph-name="h" unicode="h" horiz-adv-x="388" 
d="M-20 71l-4 -9l86 102q32 36 53.5 27.5t19.5 -48.5q-4 -76 0 -106q6 -39 56 -5q32 22 63.5 48.5t72.5 65l61 56.5q3 3 7.5 1t5 -5.5t-2.5 -7.5l-37.5 -35l-40.5 -37.5l-36.5 -33t-42.5 -35l-42 -30.5q-38 -25 -65 -14t-33 54q-5 48 -5 81q0 10 -0.5 15t-2.5 9t-6.5 1.5
t-11.5 -11.5q-79 -96 -112 -129q-8 -10 -24 -1.5t-11 19.5q27 83 83.5 187.5t135 197.5t145.5 117q50 16 73 2.5t15.5 -48.5t-41.5 -69q-47 -44 -125.5 -92t-131.5 -68q-63 -99 -102 -199zM307 528q-79 -35 -210 -234q55 25 122.5 67t108.5 81q36 35 39 70q2 33 -38 24
q-10 -3 -22 -8z" />
    <glyph glyph-name="i" unicode="i" horiz-adv-x="338" 
d="M338 202q5 4 9 2.5t4 -5.5t-4 -8q-59 -45 -159.5 -98t-160.5 -63q-41 -9 -57 24q-11 33 -1 74.5t31 72.5q7 9 26 1q14 -5 8 -14q-19 -27 -35 -66.5t-7 -60.5q6 -19 38 -16q56 6 166.5 68t141.5 89zM77 285q16 -16 -2 -33q-17 -16 -33 0t2 33q17 17 33 0z" />
    <glyph glyph-name="j" unicode="j" horiz-adv-x="264" 
d="M-104 -16q-90 -46 -148 -89.5t-106 -116.5q-42 -66 -30 -113q6 -25 24 -30t38 9q12 7 25.5 19t25 24.5t26 33l24.5 35t24.5 40.5l22 40l22 42l19.5 38l18 37zM62 285q6 -7 6 -16.5t-6 -16.5q-18 -16 -34 0t0 33q7 7 16.5 7t17.5 -7zM-93 8q68 145 95 207q5 12 26 8
q17 -3 13 -13q-8 -21 -11 -25q-13 -32 -64 -146q19 10 83.5 40t119 60.5t95.5 62.5q8 5 13 -2q4 -5 -2 -9q-46 -35 -102.5 -67t-131 -67t-86.5 -41q-161 -347 -273 -394q-27 -11 -52.5 -1t-32.5 40q-14 58 32 125q28 42 58.5 74.5t71 60.5t67.5 43.5t81 43.5z" />
    <glyph glyph-name="k" unicode="k" horiz-adv-x="405" 
d="M157 189q5 23 -22 6q-31 -20 -59 -50q-2 -1 -22 -19q26 -7 61.5 15t41.5 48zM307 528q-79 -35 -210 -234q55 25 122.5 67t108.5 81q36 35 39 70q2 33 -38 24q-10 -3 -22 -8zM292 545q50 16 73 2.5t15.5 -48.5t-41.5 -69q-47 -44 -125.5 -92t-131.5 -68q-63 -99 -102 -199
q39 44 85 87q62 57 91 63q31 6 41 -17q8 -22 -20 -55q-19 -18 -49 -31.5t-55 -12.5q-7 -21 -10.5 -42.5t-2 -41.5t9.5 -31.5t27.5 -11.5t48.5 17q58 34 134.5 96.5t124.5 110.5q4 4 8 2.5t5 -5t-1 -7.5q-46 -47 -124 -111t-139 -100q-40 -24 -67.5 -21.5t-38 26t-13.5 57
t7 71.5q-60 -60 -80 -90q-6 -10 -22 -0.5t-12 19.5q27 83 83.5 187.5t135 197.5t145.5 117z" />
    <glyph glyph-name="l" unicode="l" horiz-adv-x="356" 
d="M299 528q-30 -14 -73 -55q-65 -67 -137 -179q67 30 144 79.5t110 93.5q29 38 13.5 58t-57.5 3zM74 270l-2 -2q-28 -48 -62 -124t-42 -127q-8 -40 6 -53.5t58 5.5q74 35 168 103t156 129q4 3 8.5 1.5t5 -5t-2.5 -7.5q-60 -60 -161.5 -133.5t-169.5 -103.5
q-41 -18 -64 -10.5t-31 29t-4 55.5q14 107 101 252t173 220q41 36 73 46q56 21 82.5 -8t-10.5 -80q-36 -46 -127 -104.5t-155 -82.5z" />
    <glyph glyph-name="m" unicode="m" horiz-adv-x="624" 
d="M78 97l51 61q34 40 56.5 32t14.5 -53q-1 -10 -3 -22t-2 -14q-2 -13 3 -12q3 1 16 16q5 5 15.5 17.5t16.5 18.5q34 45 64 76q29 28 52 18t19 -49q-2 -20 -16 -45.5t-40.5 -62t-31.5 -44.5q-7 -10 -11 -16.5t-9 -16.5t-7 -15t-3 -11.5t2.5 -8t9.5 -1.5t17.5 4.5t27.5 13.5
q52 29 167 114q74 54 137 105q3 4 7.5 2.5t5 -5.5t-2.5 -8q-223 -178 -310 -223q-60 -33 -78 -8.5t12 78.5q8 16 48.5 75.5t47.5 86.5q8 29 -8 23q-10 -4 -25 -19q-19 -19 -64 -73q-18 -24 -33 -38q-34 -37 -54 -18q-7 5 -10 19q-3 16 0 44q7 25 3 27.5t-23 -18.5
q-61 -72 -83 -89q-20 -17 -29.5 -12t0.5 29q65 135 75 161q9 23 1.5 26t-25.5 -11q-33 -23 -67 -59q-5 -3 -10.5 0.5t-1.5 9.5q48 48 71 63q27 19 44.5 9.5t10.5 -44.5q-4 -22 -20 -66t-28 -67z" />
    <glyph glyph-name="n" unicode="n" horiz-adv-x="453" 
d="M67 76l51 61q32 38 56.5 30.5t16.5 -51.5q-8 -37 -5 -64q4 -35 56 -5q110 69 211 155q3 3 7.5 1t5 -5.5t-2.5 -7.5q-108 -92 -213 -156q-64 -39 -90 9q-18 31 -9 76q6 24 2.5 27.5t-22.5 -19.5q-50 -60 -81 -88q-25 -20 -32.5 -13t3.5 35q13 32 44 90t42 86q9 23 2 25.5
t-26 -10.5q-33 -23 -72 -60q-5 -5 -10.5 -0.5t-0.5 10.5q42 42 74 63q27 20 45.5 10.5t9.5 -43.5q-6 -22 -15.5 -46.5t-26 -62.5z" />
    <glyph glyph-name="o" unicode="o" horiz-adv-x="317" 
d="M37 193q-6 -28 2.5 -58t36.5 -37q27 54 29 80q3 36 -18 55t-39 -12q17 -1 28.5 -12.5t12.5 -28.5q0 -5 -4 -7t-8 0t-4 7q-1 15 -12 18t-24 -5zM29 219q13 31 36.5 35.5t41 -18t14.5 -59.5q-5 -45 -27 -82q64 5 108 28t115 79q6 4 10.5 -1.5t-1.5 -10.5
q-128 -111 -243 -111q-29 -42 -65 -49q-19 -6 -47 6q-23 14 -27.5 42.5t6.5 57t32.5 52.5t46.5 31zM14 45q27 7 52 38q-29 10 -40 37.5t-7 59.5q-22 -22 -35 -61t-2 -61q10 -18 32 -13z" />
    <glyph glyph-name="p" unicode="p" horiz-adv-x="311" 
d="M38 197l-24 -55q19 18 62 54q22 18 44.5 23t39.5 -9q12 -11 8.5 -29.5t-11 -34t-18.5 -30.5q39 10 60 16.5t54 25t58 44.5q5 5 10.5 -0.5t0.5 -10.5q-29 -31 -69 -51.5t-60.5 -26t-70.5 -17.5q-50 -57 -90 -71q-33 -10 -43.5 2.5t19.5 39.5q33 25 73 36q2 1 3.5 3t3.5 3
q24 29 39 58q20 39 -2 38q-15 -1 -40 -21t-64 -57l-12 -11.5l-12 -11.5q-2 -4 -22 -48t-27 -58l-27.5 -56.5t-31.5 -63l-30.5 -56t-34 -56.5t-32.5 -44.5t-34 -39.5q-45 -44 -77 -39q-31 6 -11 62q11 30 48 88l38.5 54t53.5 73q56 73 128 148q44 93 62 134q4 13 26 10
q18 -3 12 -15zM-83 23q-48 -52 -94 -113q-53 -69 -91 -127q-36 -50 -47 -85q-16 -43 1 -41q14 3 40 30q15 15 30 35.5t31.5 47l28.5 47.5t29 55.5l25 51.5l25.5 54zM14 38q14 9 47 42q-24 -7 -46 -27q-19 -20 -12 -21q3 -1 11 6z" />
    <glyph glyph-name="q" unicode="q" horiz-adv-x="351" 
d="M55 159q-6 53 -37 22q-42 -42 -57 -85q-7 -23 -3 -28.5t24 12.5zM103 189q-72 -81 -110 -120q-28 -24 -49.5 -15.5t-19.5 33.5q2 35 33 77t64 47q41 7 46 -40l64 73q7 7 16 6.5t15 -7t3 -13.5q-22 -47 -118 -239q59 9 121 48q53 31 103 77t80 86q5 6 11 3q3 -2 3.5 -6
t-1.5 -5q-29 -41 -80.5 -88.5t-107.5 -80.5q-72 -43 -138 -52q-4 -11 -9 -18q9 -210 -70 -297q-18 -19 -35.5 -20t-28.5 23q-9 28 12.5 98t44.5 121t45 95q-28 5 -23 28q4 19 21 24q13 3 23 -7q63 121 85 169zM4 -10l6 12q-6 15 -15 7q-8 -8 -1 -15q3 -3 10 -4zM-51 -329
q67 74 65 253q-65 -136 -90 -209q-13 -47 -8 -60q4 -8 15.5 0t17.5 16z" />
    <glyph glyph-name="r" unicode="r" horiz-adv-x="266" 
d="M13 191q6 -11 19 -14q14 -4 31 0q5 1 8 -3t1 -8q-8 -15 -19 -30q-2 -3 -13.5 -21.5t-19 -29.5t-19 -31.5t-19 -36t-14.5 -33t-9 -30.5q-5 -28 6.5 -33.5t35.5 8.5q43 24 78 58q110 107 187 215q5 6 10.5 2.5t1.5 -10.5q-77 -110 -188 -218q-42 -41 -81 -61
q-76 -37 -76 40q0 10 2 21.5t4.5 22t8.5 23.5t10 22.5t12 24t12.5 22l13 22t12 19t12 18t9.5 14.5q-33 3 -47.5 25.5t-8.5 50t27 46.5q24 22 46.5 18.5t19.5 -32.5q-8 -45 -53 -81zM7 205q13 9 27 30t17 37q2 10 -5 10q-14 0 -28 -24q-6 -9 -8 -17q-6 -19 -3 -36z" />
    <glyph glyph-name="s" unicode="s" horiz-adv-x="268" 
d="M115 210q-2 -5 -6.5 -5.5t-6.5 3t0 8.5q15 32 -5.5 38t-40.5 -22q-11 -13 -16 -32q-6 -22 -6.5 -41t4 -47.5t5.5 -39.5q116 48 159 77q36 23 66 53q3 2 6.5 2t4.5 -2q5 -4 0 -11q-33 -32 -75 -58t-73 -40t-87 -36q4 -67 -20.5 -119t-88.5 -72q-44 -13 -68 8t-14.5 58.5
t51.5 68.5q32 26 99 55q-1 16 -4 53t-2.5 49.5t4.5 44.5q13 54 59 69q37 12 55 -12q15 -18 0 -50zM5 41q-70 -34 -93 -51q-50 -39 -45 -80q4 -28 32 -31q13 -1 28 6q78 32 78 156z" />
    <glyph glyph-name="t" unicode="t" horiz-adv-x="271" 
d="M180 435q-13 -17 -30 -44q1 0 22 -4t35.5 -6t34.5 -3.5t32.5 0t16.5 7.5q5 6 11 2t2 -11q-6 -7 -19 -10.5t-26.5 -4t-33.5 2t-32.5 4.5t-31 5.5t-21.5 4.5q-64 -98 -128 -224t-72 -199q-2 -16 3.5 -22.5t16 -3t21 9t24.5 15.5q110 81 267 248q6 7 11 0q4 -6 -1 -11
q-169 -179 -270 -249q-76 -58 -98 -6q-15 35 24.5 134t85 181t78.5 132q-143 21 -169 -30q-6 -9 -13 -3q-4 3 -2 8q36 65 194 40q24 36 37 53q9 10 17.5 9t13 -9.5t0.5 -15.5z" />
    <glyph glyph-name="u" unicode="u" 
d="M0 202q11 18 29 5q12 -8 7 -15q-5 -10 -20.5 -38t-21.5 -42q-18 -36 -26 -56q-15 -35 -12 -36.5t24 23.5l52 61l47 57q9 11 24 2.5t10 -19.5q-1 -3 -24.5 -49t-35.5 -74.5t-12 -41.5q-1 -8 2.5 -11.5t11.5 -2.5q22 2 68 33q30 21 65.5 49l60.5 49l64.5 55.5l58.5 50.5
q6 6 11 -1q4 -5 -1 -10q-148 -134 -251 -205q-45 -33 -74 -38q-33 -3 -38 31v23q9 51 33 105l-9 -12l-52 -61q-33 -38 -52 -31q-9 4 -10.5 16t2.5 28.5t10.5 34.5t16 38t17.5 35l15.5 29.5t9.5 17.5z" />
    <glyph glyph-name="v" unicode="v" horiz-adv-x="364" 
d="M11 224q-66 -100 -62 -192q0 -30 11 -42t28 -7.5t36 22.5q28 28 36 38q18 21 47 66q7 -21 25 -34q20 -15 51 -12q71 5 194 128q3 3 1 7.5t-6 5.5t-8 -2q-113 -119 -183 -123q-25 -2 -40 8q-17 14 -22 39l50 89q14 27 18 47t1 29t-11 11q-15 4 -33.5 -14t-29.5 -55
q-20 -62 -11 -103q-30 -46 -55 -76q-20 -24 -35 -38q-14 -13 -21.5 -17t-12.5 2t-4 27q1 69 60 165q1 2 4 7t5 7q4 7 -3 13.5t-16 8t-14 -4.5zM117 152q0 34 12 77q14 42 34 54q12 8 11 -8q-1 -17 -19 -53z" />
    <glyph glyph-name="w" unicode="w" horiz-adv-x="499" 
d="M0 202q5 6 14 5t16.5 -7.5t3.5 -13.5q-31 -46 -42 -87q-21 -75 17 -42q30 26 84 106q9 15 24 5.5t10 -21.5q-19 -57 -18 -94q0 -20 2.5 -30.5t11 -14t25.5 11.5q9 7 18.5 16t15.5 16t15.5 20.5t13 18t14 21t11.5 18.5q-7 48 12 103q14 49 44 69q19 10 27.5 1.5t5.5 -27.5
q-7 -30 -23 -61q-11 -22 -50 -89q5 -25 22 -39q15 -10 40 -8q72 5 185 123q5 6 11 -1q4 -5 0 -10q-117 -122 -194 -128q-32 -3 -51 12q-15 12 -24 34q-47 -74 -84 -101q-25 -23 -50.5 -19.5t-34.5 36.5q-8 35 3 86q-31 -47 -57 -66q-25 -21 -44 -13.5t-20 37.5q4 60 46 133z
M250 152l38 70q18 39 21 55q2 8 1 12.5t-8 0.5q-26 -16 -39 -61q-13 -42 -13 -77z" />
    <glyph glyph-name="x" unicode="x" horiz-adv-x="388" 
d="M227 239q4 -2 4 -6t-3.5 -7t-7.5 -1q-24 12 -58.5 -13t-83.5 -78q2 -7 4 -21.5t2 -15.5q1 -7 2 -21t2 -21.5t3 -18t4.5 -18t5.5 -12.5q18 -29 64 -5q78 39 223 201q5 6 11.5 0.5t1.5 -11.5q-147 -162 -232 -204q-55 -26 -84 -1q-27 25 -37 115l-29.5 -31l-27 -27
t-27.5 -23t-23.5 -13.5t-22.5 -5t-19 8.5q-4 3 -2.5 7.5t5 5.5t7.5 -2q7 -2 12 -4t15.5 4t17.5 10.5t18.5 15l19 17.5t18 18t15.5 17l12 14t8 9q-4 45 -12.5 62.5t-28.5 5.5q-5 -1 -7 1.5t-1 7t4 5.5q21 13 44.5 -1t30.5 -50q50 53 86.5 77t65.5 9z" />
    <glyph glyph-name="y" unicode="y" horiz-adv-x="353" 
d="M0 202q6 10 17 9.5t18 -9.5q4 -8 2 -11q-53 -114 -64 -148q-8 -27 12 -14q8 5 20 16q16 16 39.5 43.5t39 48l37.5 50.5t24 32q13 19 38 27q19 7 17 -9v-2q-85 -195 -86 -196q134 72 239 163q6 6 11 -1q6 -6 -1 -11q-115 -101 -260 -174q-150 -327 -260 -387
q-29 -18 -59 -10t-38 42q-16 55 31 125q36 55 86 99t85 64.5t107 58.5l79 172l-34.5 -45.5t-46.5 -58t-40 -41.5q-17 -15 -32 -22t-26 0t-10 33q1 43 55 156zM44 -16q-90 -47 -147.5 -90t-105.5 -116q-42 -63 -30 -113q12 -56 73 -14q13 10 44 42q42 47 117 194z" />
    <glyph glyph-name="z" unicode="z" horiz-adv-x="403" 
d="M55 237q-30 -28 -43 -45q-2 -4 -6.5 -3t-6.5 5t1 8q14 19 45 47q29 27 65 41t67 6q31 -7 40 -30t0.5 -49.5t-28.5 -47.5q-15 -16 -39 -33q34 -22 36 -68q31 21 105 64.5t112 69.5q4 3 7.5 0.5t3.5 -6.5t-3 -7q-42 -29 -121 -76.5l-105 -63.5q-6 -46 -38 -107
q-41 -81 -112 -170.5t-134 -117.5q-25 -14 -51 -9t-26 37q4 60 77 150q90 106 242 209q12 54 -20 78q-5 -2 -13.5 -6.5l-16 -8.5t-14.5 -7q-12 -7 -18 -8q-46 -18 -54.5 2.5t30.5 44.5q42 25 88 11q19 13 39 44q40 61 2 83q-21 11 -54 -1t-57 -36zM54 105q3 2 20.5 11
t24.5 14q-30 7 -55 -8q-16 -10 -21 -18t3.5 -8t27.5 9zM-97 -314q57 44 113.5 117.5t92.5 144.5q22 46 29 71q-139 -95 -224 -199q-73 -86 -73 -138q0 -15 7.5 -19t18.5 0.5t20 10.5t16 12z" />
    <glyph glyph-name="braceleft" unicode="{" horiz-adv-x="214" 
d="M153 544q8 18 13 27.5l14.5 28t17.5 29l19.5 25t23 21.5t25.5 13t30.5 5.5t33.5 -6.5q5 -3 2.5 -9t-8.5 -5q-11 5 -21.5 5.5t-20 -3.5t-17 -9t-16 -16.5t-14 -20.5t-13 -25l-12 -26l-12.5 -28q-22 -55 -50 -90t-80 -54q20 -14 22.5 -48t-1.5 -52.5t-14 -55.5
q-27 -97 -27 -126q0 -60 60 -60q4 0 4 -5t-4 -5q-100 0 -86 116q1 31 21 101q2 6 6.5 23t6 24t3.5 21.5t1.5 23.5t-4 21t-9.5 22q-9 13 0 16q9 0 17.5 2.5t16 8.5l14 11t13.5 15.5l11 16.5t10.5 18.5t8.5 17l8 17.5t7 15z" />
    <glyph glyph-name="bar" unicode="|" horiz-adv-x="289" 
d="M262 699h14q3 -2 3 -3q-2 -6 -116.5 -296t-131.5 -330q1 -1 -0.5 -3.5t-3.5 -2.5h-12q-4 2 -3 7l245 626q1 0 2.5 1t2.5 1z" />
    <glyph glyph-name="braceright" unicode="}" horiz-adv-x="339" 
d="M191 258l-10 -23l-12 -27l-13.5 -29t-15 -30t-17 -28t-19 -25t-21 -20.5t-23 -13.5l-25 -5t-27.5 5q-6 2 -2 7q4 4 8 2q11 -2 20 -3t18.5 7.5l17 15.5t16 21t14 25.5l13 28.5t12.5 29.5l11.5 28.5l10.5 26q34 71 53 94q30 35 78 51q-11 8 -17 18t-8.5 17.5t-1 21t3 19.5
t6.5 23t6 21q23 67 23 106q0 60 -58 60q-4 0 -6 2.5t0 5t6 2.5q100 0 84 -115q-2 -29 -14 -78q-3 -11 -8 -25.5t-6.5 -20.5t-2 -16t3.5 -20t13 -24q3 -1 3.5 -6t-5.5 -6q-16 0 -30 -7.5t-26.5 -24t-19.5 -28t-18.5 -34.5t-14.5 -28z" />
    <glyph glyph-name="asciitilde" unicode="~" horiz-adv-x="321" 
d="M27 124q-5 -4 -7.5 -1.5t1.5 7.5q12 14 25 20.5t31 5t27.5 -3.5t34.5 -9q67 -22 92 2q8 8 10 1q1 -4 -2 -7q-24 -24 -57 -25t-64 11q-26 7 -37 9.5t-28 1.5t-26 -12z" />
    <glyph glyph-name="sterling" unicode="&#xa3;" horiz-adv-x="535" 
d="M253 414h-40q-7 0 -9 4t0.5 8.5t8.5 4.5h46q78 211 151 277q14 13 29 21q43 25 65.5 0.5t17.5 -80.5h-8q6 49 -11.5 70t-53.5 -5q-79 -59 -158 -283h30q8 0 8 -8.5t-8 -8.5h-36q-46 -133 -72 -199.5t-53 -112.5q12 -3 75 -22t100.5 -28t84.5 -7t68 26q2 2 5 -0.5t1 -4.5
q-22 -25 -70.5 -27.5t-86.5 6t-103.5 28.5t-77.5 23q-34 -54 -68 -69q-48 -21 -70 9q-18 25 1 52q16 22 50 27q26 3 64 -6q36 67 120 305zM77 39q24 16 52 64q-31 7 -59 5q-44 -6 -51 -39q-6 -26 14 -37q19 -10 44 7z" />
    <glyph glyph-name="dieresis" unicode="&#xa8;" horiz-adv-x="154" 
d="M57 651q0 -9 -5.5 -14t-12.5 -5q-12 0 -17 9.5t3 21.5q10 9 21 5t11 -17zM134 651q0 -9 -5.5 -14t-12.5 -5q-12 0 -17 9.5t3 21.5q10 9 21 5t11 -17z" />
    <glyph glyph-name="guillemotleft" unicode="&#xab;" horiz-adv-x="302" 
d="M64 179l97 -87q3 -6 -3 -10q-3 -3 -5 0q-13 12 -37.5 29l-55 37.5l-40.5 27.5q-8 6 0 10l179 88q8 5 10 -2q1 -3 -3 -6l-75 -46t-67 -41zM136 179l95 -87q5 -6 -2 -10q-3 -3 -5 0q-16 15 -70 52l-61 42q-3 1 -4.5 3t0 4t4.5 3l177 88q3 2 6 1t3 -3.5t-3 -5.5
q-28 -16 -76.5 -47z" />
    <glyph glyph-name="acute" unicode="&#xb4;" horiz-adv-x="110" 
d="M22 616l48 61q4 2 10 -1.5t8 -8.5t-1 -8l-57 -51q-2 -2 -5 -1.5t-4.5 3.5t1.5 6z" />
    <glyph glyph-name="mu" unicode="&#xb5;" horiz-adv-x="397" 
d="M264 35q6 3 6 -3q0 -3 -4 -6q-23 -11 -37.5 -8t-16.5 18q-4 34 49 136q-69 -91 -109 -128q-37 -35 -55 -29q-4 -6 -14 -24.5l-15 -27.5q-9 -16 -34 -13q-19 1 -13 13q104 213 151 297q7 15 33 13q18 -1 17 -11q0 -1 -1 -3q-5 -9 -49.5 -94t-57.5 -114q-13 -30 3 -23
q10 4 29 21q50 48 166 210q10 16 35 13q19 -2 12 -14q-7 -14 -38.5 -68t-53.5 -96.5t-20 -54.5q0 -13 17 -4z" />
    <glyph glyph-name="paragraph" unicode="&#xb6;" horiz-adv-x="484" 
d="M332 684l-291 -674q-5 -11 -21 -9q-10 2 -8 9l161 374q-66 3 -84.5 49.5t9.5 102.5q26 61 84.5 108.5t127.5 51.5h164q6 0 1 -7q-2 -5 -6 -5h-20l-291 -674q-5 -12 -21 -9q-9 2 -6 9l291 674h-90z" />
    <glyph glyph-name="cedilla" unicode="&#xb8;" horiz-adv-x="124" 
d="M55 -4v-20q3 -2 8 -2t8 -1q27 -10 32 -35q4 -28 -31 -34q-18 -3 -44 1q-4 0 -6 4t0 7.5t8 2.5q51 -3 56 15q2 10 -19 23q-3 2 -7 2.5t-9 0.5h-7q-8 1 -8 37q0 5 5 7.5t9.5 0t4.5 -8.5z" />
    <glyph glyph-name="guillemotright" unicode="&#xbb;" horiz-adv-x="373" 
d="M172 182l-94 90q-2 3 -1.5 5.5t3 3t4.5 -0.5q1 -1 134 -92q7 -5 0 -10l-179 -90q-3 -2 -6 -0.5t-3 4.5t2 6q23 13 69.5 42t70.5 42zM264 182l-95 90q-2 3 -2 6.5t2.5 4t6.5 -2.5q15 -13 133 -92q4 -3 0 -10l-182 -90q-5 -5 -7 3q-1 4 2 7q131 78 142 84z" />
    <glyph glyph-name="Agrave" unicode="&#xc0;" horiz-adv-x="1075" 
d="M416 221q-9 -4 -12 0.5t2 12.5q64 64 232 37l243 333q-84 -54 -178 -85.5t-237.5 -60t-182.5 -38.5q-37 -9 -57.5 -15t-51 -22t-42.5 -37q-12 -18 -10 -43.5t19 -33.5q8 -4 5.5 -10t-12.5 -7q-28 9 -31.5 43.5t13.5 58.5q14 24 47 42.5t56.5 25t63.5 15.5l120.5 24.5
t123 25.5t110.5 29t117 41t106 56t111 79q16 13 20 1q1 -5 -3 -11q-141 -265 -219 -434q18 0 25.5 0.5t18.5 6t18 17.5q4 7 10.5 3.5t3.5 -10.5q-19 -40 -86 -34q-76 -157 -95 -237q-8 -35 -7 -59t10.5 -35.5t32 -6.5t57.5 28q98 64 318 281q4 4 8.5 3t5.5 -5t-2 -8
l-49 -47.5l-67 -64.5l-65.5 -60.5t-75.5 -64t-65 -47.5q-83 -49 -116 -23t-17 107q28 115 94 245l-59 13q-104 -136 -184 -211q-195 -183 -354 -116q-52 21 -83.5 65t-35.5 106q3 10 11 10t9 -9q14 -114 109 -152q145 -59 322 118q79 81 166 196q-162 25 -211 -36zM733 252
q124 245 174 333l-54 -78.5l-81.5 -117.5t-93.5 -126q11 -2 29.5 -6t25.5 -5zM939 803q-1 9 6.5 14t14.5 2l45 -61q2 -5 -1.5 -8.5t-7.5 0.5q-47 41 -57 53z" />
    <glyph glyph-name="Aacute" unicode="&#xc1;" horiz-adv-x="1075" 
d="M416 221q-9 -4 -12 0.5t2 12.5q64 64 232 37l243 333q-84 -54 -178 -85.5t-237.5 -60t-182.5 -38.5q-37 -9 -57.5 -15t-51 -22t-42.5 -37q-12 -18 -10 -43.5t19 -33.5q8 -4 5.5 -10t-12.5 -7q-28 9 -31.5 43.5t13.5 58.5q14 24 47 42.5t56.5 25t63.5 15.5l120.5 24.5
t123 25.5t110.5 29t117 41t106 56t111 79q16 13 20 1q1 -5 -3 -11q-141 -265 -219 -434q18 0 25.5 0.5t18.5 6t18 17.5q4 7 10.5 3.5t3.5 -10.5q-19 -40 -86 -34q-76 -157 -95 -237q-8 -35 -7 -59t10.5 -35.5t32 -6.5t57.5 28q98 64 318 281q4 4 8.5 3t5.5 -5t-2 -8
l-49 -47.5l-67 -64.5l-65.5 -60.5t-75.5 -64t-65 -47.5q-83 -49 -116 -23t-17 107q28 115 94 245l-59 13q-104 -136 -184 -211q-195 -183 -354 -116q-52 21 -83.5 65t-35.5 106q3 10 11 10t9 -9q14 -114 109 -152q145 -59 322 118q79 81 166 196q-162 25 -211 -36zM733 252
q124 245 174 333l-54 -78.5l-81.5 -117.5t-93.5 -126q11 -2 29.5 -6t25.5 -5zM939 760l48 61q4 2 10 -1.5t8 -8.5t-1 -8l-57 -51q-2 -2 -5 -1.5t-4.5 3.5t1.5 6z" />
    <glyph glyph-name="Acircumflex" unicode="&#xc2;" horiz-adv-x="1075" 
d="M416 221q-9 -4 -12 0.5t2 12.5q64 64 232 37l243 333q-84 -54 -178 -85.5t-237.5 -60t-182.5 -38.5q-37 -9 -57.5 -15t-51 -22t-42.5 -37q-12 -18 -10 -43.5t19 -33.5q8 -4 5.5 -10t-12.5 -7q-28 9 -31.5 43.5t13.5 58.5q14 24 47 42.5t56.5 25t63.5 15.5l120.5 24.5
t123 25.5t110.5 29t117 41t106 56t111 79q16 13 20 1q1 -5 -3 -11q-141 -265 -219 -434q18 0 25.5 0.5t18.5 6t18 17.5q4 7 10.5 3.5t3.5 -10.5q-19 -40 -86 -34q-76 -157 -95 -237q-8 -35 -7 -59t10.5 -35.5t32 -6.5t57.5 28q98 64 318 281q4 4 8.5 3t5.5 -5t-2 -8
l-49 -47.5l-67 -64.5l-65.5 -60.5t-75.5 -64t-65 -47.5q-83 -49 -116 -23t-17 107q28 115 94 245l-59 13q-104 -136 -184 -211q-195 -183 -354 -116q-52 21 -83.5 65t-35.5 106q3 10 11 10t9 -9q14 -114 109 -152q145 -59 322 118q79 81 166 196q-162 25 -211 -36zM733 252
q124 245 174 333l-54 -78.5l-81.5 -117.5t-93.5 -126q11 -2 29.5 -6t25.5 -5zM944 782q0 3 19.5 36t26.5 44q7 4 10 -2q9 -37 18 -96q1 -4 -1 -6t-5.5 -1t-4.5 5l-19 56l-37 -44q-1 -4 -4.5 -1t-2.5 9z" />
    <glyph glyph-name="Atilde" unicode="&#xc3;" horiz-adv-x="1075" 
d="M416 221q-9 -4 -12 0.5t2 12.5q64 64 232 37l243 333q-84 -54 -178 -85.5t-237.5 -60t-182.5 -38.5q-37 -9 -57.5 -15t-51 -22t-42.5 -37q-12 -18 -10 -43.5t19 -33.5q8 -4 5.5 -10t-12.5 -7q-28 9 -31.5 43.5t13.5 58.5q14 24 47 42.5t56.5 25t63.5 15.5l120.5 24.5
t123 25.5t110.5 29t117 41t106 56t111 79q16 13 20 1q1 -5 -3 -11q-141 -265 -219 -434q18 0 25.5 0.5t18.5 6t18 17.5q4 7 10.5 3.5t3.5 -10.5q-19 -40 -86 -34q-76 -157 -95 -237q-8 -35 -7 -59t10.5 -35.5t32 -6.5t57.5 28q98 64 318 281q4 4 8.5 3t5.5 -5t-2 -8
l-49 -47.5l-67 -64.5l-65.5 -60.5t-75.5 -64t-65 -47.5q-83 -49 -116 -23t-17 107q28 115 94 245l-59 13q-104 -136 -184 -211q-195 -183 -354 -116q-52 21 -83.5 65t-35.5 106q3 10 11 10t9 -9q14 -114 109 -152q145 -59 322 118q79 81 166 196q-162 25 -211 -36zM733 252
q124 245 174 333l-54 -78.5l-81.5 -117.5t-93.5 -126q11 -2 29.5 -6t25.5 -5zM913 763q-4 -1 -8 4q18 20 41.5 22t44.5 -7q17 -5 25 -7t20 -1t19 8q4 2 6.5 -0.5t-1.5 -6.5q-25 -26 -87 -12q-17 6 -25 8t-19 1t-16 -9z" />
    <glyph glyph-name="Adieresis" unicode="&#xc4;" horiz-adv-x="1075" 
d="M416 221q-9 -4 -12 0.5t2 12.5q64 64 232 37l243 333q-84 -54 -178 -85.5t-237.5 -60t-182.5 -38.5q-37 -9 -57.5 -15t-51 -22t-42.5 -37q-12 -18 -10 -43.5t19 -33.5q8 -4 5.5 -10t-12.5 -7q-28 9 -31.5 43.5t13.5 58.5q14 24 47 42.5t56.5 25t63.5 15.5l120.5 24.5
t123 25.5t110.5 29t117 41t106 56t111 79q16 13 20 1q1 -5 -3 -11q-141 -265 -219 -434q18 0 25.5 0.5t18.5 6t18 17.5q4 7 10.5 3.5t3.5 -10.5q-19 -40 -86 -34q-76 -157 -95 -237q-8 -35 -7 -59t10.5 -35.5t32 -6.5t57.5 28q98 64 318 281q4 4 8.5 3t5.5 -5t-2 -8
l-49 -47.5l-67 -64.5l-65.5 -60.5t-75.5 -64t-65 -47.5q-83 -49 -116 -23t-17 107q28 115 94 245l-59 13q-104 -136 -184 -211q-195 -183 -354 -116q-52 21 -83.5 65t-35.5 106q3 10 11 10t9 -9q14 -114 109 -152q145 -59 322 118q79 81 166 196q-162 25 -211 -36zM733 252
q124 245 174 333l-54 -78.5l-81.5 -117.5t-93.5 -126q11 -2 29.5 -6t25.5 -5zM964 776q0 -9 -5.5 -14t-12.5 -5q-12 0 -17 9.5t3 21.5q10 9 21 5t11 -17zM1041 776q0 -9 -5.5 -14t-12.5 -5q-12 0 -17 9.5t3 21.5q10 9 21 5t11 -17z" />
    <glyph glyph-name="Aring" unicode="&#xc5;" horiz-adv-x="1075" 
d="M988 765q19 0 30.5 -12t11.5 -30q0 -20 -13 -31t-30 -11q-137 -257 -218 -433q18 0 25.5 0.5t18.5 6t18 17.5q4 7 10.5 3.5t3.5 -10.5q-19 -40 -86 -34q-76 -157 -95 -237q-8 -35 -7 -59t10.5 -35.5t32 -6.5t57.5 28q98 64 318 281q4 4 8.5 3t5.5 -5t-2 -8l-49 -47.5
l-67 -64.5l-65.5 -60.5t-75.5 -64t-65 -47.5q-83 -49 -116 -23t-17 107q28 115 94 245l-59 13q-104 -136 -184 -211q-195 -183 -354 -116q-52 21 -83.5 65t-35.5 106q3 10 11 10t9 -9q14 -114 109 -152q145 -59 322 118q79 81 166 196q-162 25 -211 -36q-9 -4 -12 0.5
t2 12.5q64 64 232 37l243 333q-84 -54 -178 -85.5t-237.5 -60t-182.5 -38.5q-37 -9 -57.5 -15t-51 -22t-42.5 -37q-12 -18 -10 -43.5t19 -33.5q8 -4 5.5 -10t-12.5 -7q-28 9 -31.5 43.5t13.5 58.5q14 24 47 42.5t56.5 25t63.5 15.5q36 8 119.5 24.5t122.5 25t109 28.5
t116.5 40.5t105 55t110.5 77.5q-18 10 -18 35q0 18 11.5 30t28.5 12zM733 252q124 245 174 333l-54 -78.5l-81.5 -117.5t-93.5 -126q11 -2 29.5 -6t25.5 -5zM988 753q-13 0 -21.5 -9t-8.5 -22q0 -20 18 -27q12 7 14 -2q28 2 28 29q0 14 -8 22.5t-22 8.5z" />
    <glyph glyph-name="AE" unicode="&#xc6;" horiz-adv-x="1317" 
d="M1013 632q100 80 187 67q62 -9 79 -58q20 -62 -51 -135l-2 -2q-70 -61 -262 -134q27 -34 97 -38q33 0 53 3q11 3 12 -6q1 -7 -8 -9h-2q-94 -22 -192.5 -79t-167.5 -128q-89 -91 -94 -167q-3 -31 10.5 -53.5t43.5 -30.5q42 -13 102 6q94 28 253.5 137t245.5 197q4 4 8 2
t5 -6.5t-2 -8.5q-89 -93 -250 -201t-260 -136q-93 -26 -149.5 18t-28.5 148q37 121 86 219l-59 13q-104 -136 -184 -211q-195 -183 -354 -116q-52 21 -83.5 65t-35.5 106q3 10 11 10t9 -9q14 -114 109 -152q145 -59 322 118q79 81 166 196q-162 25 -211 -36q-9 -4 -12 0.5
t2 12.5q64 64 232 37l243 333q-84 -54 -178 -85.5t-237.5 -60t-182.5 -38.5q-37 -9 -57.5 -15t-51 -22t-42.5 -37q-12 -18 -10 -43.5t19 -33.5q8 -4 5.5 -10t-12.5 -7q-28 9 -31.5 43.5t13.5 58.5q14 24 47 42.5t56.5 25t63.5 15.5l120.5 24.5t123 25.5t110.5 29t117 41
t106 56t111 79q16 13 20 1q1 -5 -3 -11q-141 -265 -219 -434q18 0 25.5 0.5t18.5 6t18 17.5q4 7 10.5 3.5t3.5 -10.5q-19 -40 -86 -34q-42 -86 -56 -119l13 14q60 61 142.5 112t165.5 79q-70 11 -96 41q-25 30 -25.5 70.5t17.5 78.5t42 70.5t51 54.5zM1218 519q67 68 45 116
q-17 40 -78 36q-75 -5 -151 -75q-45 -40 -73 -99t-5 -111q202 71 262 133zM733 252q124 245 174 333l-54 -78.5l-81.5 -117.5t-93.5 -126q11 -2 29.5 -6t25.5 -5z" />
    <glyph glyph-name="Ccedilla" unicode="&#xc7;" horiz-adv-x="608" 
d="M609 203q4 3 8 1t4.5 -6t-2.5 -8q-144 -126 -247 -203q-78 -57 -131 -82q-44 -22 -92 -28v-20q3 -2 8 -2t8 -1q27 -10 32 -35q4 -28 -31 -34q-18 -3 -44 1q-4 0 -6 4t0 7.5t8 2.5q51 -3 56 15q2 10 -19 23q-3 2 -7 2.5t-9 0.5h-7q-8 1 -8 34q-13 0 -33 2q-36 4 -58 28.5
t-27 62.5q-7 53 21.5 133.5t64 142t75.5 117.5l1 1q-37 20 -48.5 57t0.5 74.5t40 66.5q40 42 93 45.5t97 -42.5q105 92 200 113q66 16 90 -18.5t-12 -98.5q-14 -25 -56 -71q-99 -98 -223 -131q-35 -64 -99 -106q-4 -3 -8 -0.5t-4 7t3 7.5q51 31 86 86q-71 -15 -121 -2
q-67 -93 -117.5 -199t-41.5 -184q6 -49 39 -66q51 -26 142 19q51 25 128 81q104 76 247 203zM560 653q-88 -32 -186 -119q31 -70 -10 -158q118 38 203 123q28 28 50 63q33 53 16 82t-73 9zM183 375q78 105 162 179q-38 40 -85.5 36t-82.5 -41q-25 -25 -35.5 -58.5t-0.5 -66
t42 -49.5zM362 522q-72 -67 -141 -160q56 -11 123 9q4 7 5 9q35 80 13 142z" />
    <glyph glyph-name="Egrave" unicode="&#xc8;" horiz-adv-x="704" 
d="M315 358q-80 -25 -239.5 -50t-174.5 -28q-27 -5 -42 -8.5t-39.5 -11t-40.5 -19t-24 -27.5q-10 -18 -5.5 -43.5t21.5 -34.5q8 -4 6 -8.5t-12 -5.5q-29 11 -35.5 44.5t8.5 56.5q26 52 160 74q30 5 129 19.5t160 26.5t119 31q-18 35 -16.5 70t21 72t42 66t47.5 50
q100 80 187 67q62 -9 79 -58q20 -62 -51 -135l-2 -2q-70 -61 -262 -134q27 -34 97 -38q34 0 53 3q11 3 12 -6q1 -7 -8 -9h-2q-94 -22 -192.5 -79t-167.5 -128q-89 -91 -94 -167q-3 -31 10.5 -53.5t43.5 -30.5q42 -13 102 6q94 28 253.5 137t245.5 197q4 4 8 2t5 -6.5
t-2 -8.5q-89 -93 -250 -201t-260 -136q-27 -7 -53.5 -9.5t-54.5 1.5t-49.5 20.5t-31.5 43.5q-11 34 0 79q17 65 87 139q60 61 142.5 112t165.5 79q-70 11 -96 41zM605 519q67 68 45 116q-17 40 -78 36q-75 -5 -151 -75q-45 -40 -73 -99t-5 -111q202 71 262 133zM515 807
q-1 9 6.5 14t14.5 2l45 -61q2 -5 -1.5 -8.5t-7.5 0.5q-47 41 -57 53z" />
    <glyph glyph-name="Eacute" unicode="&#xc9;" horiz-adv-x="704" 
d="M315 358q-80 -25 -239.5 -50t-174.5 -28q-27 -5 -42 -8.5t-39.5 -11t-40.5 -19t-24 -27.5q-10 -18 -5.5 -43.5t21.5 -34.5q8 -4 6 -8.5t-12 -5.5q-29 11 -35.5 44.5t8.5 56.5q26 52 160 74q30 5 129 19.5t160 26.5t119 31q-18 35 -16.5 70t21 72t42 66t47.5 50
q100 80 187 67q62 -9 79 -58q20 -62 -51 -135l-2 -2q-70 -61 -262 -134q27 -34 97 -38q34 0 53 3q11 3 12 -6q1 -7 -8 -9h-2q-94 -22 -192.5 -79t-167.5 -128q-89 -91 -94 -167q-3 -31 10.5 -53.5t43.5 -30.5q42 -13 102 6q94 28 253.5 137t245.5 197q4 4 8 2t5 -6.5
t-2 -8.5q-89 -93 -250 -201t-260 -136q-27 -7 -53.5 -9.5t-54.5 1.5t-49.5 20.5t-31.5 43.5q-11 34 0 79q17 65 87 139q60 61 142.5 112t165.5 79q-70 11 -96 41zM605 519q67 68 45 116q-17 40 -78 36q-75 -5 -151 -75q-45 -40 -73 -99t-5 -111q202 71 262 133zM512 762
l48 61q4 2 10 -1.5t8 -8.5t-1 -8l-57 -51q-2 -2 -5 -1.5t-4.5 3.5t1.5 6z" />
    <glyph glyph-name="Ecircumflex" unicode="&#xca;" horiz-adv-x="704" 
d="M315 358q-80 -25 -239.5 -50t-174.5 -28q-27 -5 -42 -8.5t-39.5 -11t-40.5 -19t-24 -27.5q-10 -18 -5.5 -43.5t21.5 -34.5q8 -4 6 -8.5t-12 -5.5q-29 11 -35.5 44.5t8.5 56.5q26 52 160 74q30 5 129 19.5t160 26.5t119 31q-18 35 -16.5 70t21 72t42 66t47.5 50
q100 80 187 67q62 -9 79 -58q20 -62 -51 -135l-2 -2q-70 -61 -262 -134q27 -34 97 -38q34 0 53 3q11 3 12 -6q1 -7 -8 -9h-2q-94 -22 -192.5 -79t-167.5 -128q-89 -91 -94 -167q-3 -31 10.5 -53.5t43.5 -30.5q42 -13 102 6q94 28 253.5 137t245.5 197q4 4 8 2t5 -6.5
t-2 -8.5q-89 -93 -250 -201t-260 -136q-27 -7 -53.5 -9.5t-54.5 1.5t-49.5 20.5t-31.5 43.5q-11 34 0 79q17 65 87 139q60 61 142.5 112t165.5 79q-70 11 -96 41zM605 519q67 68 45 116q-17 40 -78 36q-75 -5 -151 -75q-45 -40 -73 -99t-5 -111q202 71 262 133zM521 783
q0 3 19.5 36t26.5 44q7 4 10 -2q9 -37 18 -96q1 -4 -1 -6t-5.5 -1t-4.5 5l-19 56l-37 -44q-1 -4 -4.5 -1t-2.5 9z" />
    <glyph glyph-name="Edieresis" unicode="&#xcb;" horiz-adv-x="704" 
d="M315 358q-80 -25 -239.5 -50t-174.5 -28q-27 -5 -42 -8.5t-39.5 -11t-40.5 -19t-24 -27.5q-10 -18 -5.5 -43.5t21.5 -34.5q8 -4 6 -8.5t-12 -5.5q-29 11 -35.5 44.5t8.5 56.5q26 52 160 74q30 5 129 19.5t160 26.5t119 31q-18 35 -16.5 70t21 72t42 66t47.5 50
q100 80 187 67q62 -9 79 -58q20 -62 -51 -135l-2 -2q-70 -61 -262 -134q27 -34 97 -38q34 0 53 3q11 3 12 -6q1 -7 -8 -9h-2q-94 -22 -192.5 -79t-167.5 -128q-89 -91 -94 -167q-3 -31 10.5 -53.5t43.5 -30.5q42 -13 102 6q94 28 253.5 137t245.5 197q4 4 8 2t5 -6.5
t-2 -8.5q-89 -93 -250 -201t-260 -136q-27 -7 -53.5 -9.5t-54.5 1.5t-49.5 20.5t-31.5 43.5q-11 34 0 79q17 65 87 139q60 61 142.5 112t165.5 79q-70 11 -96 41zM605 519q67 68 45 116q-17 40 -78 36q-75 -5 -151 -75q-45 -40 -73 -99t-5 -111q202 71 262 133zM516 769
q0 -9 -5.5 -14t-12.5 -5q-12 0 -17 9.5t3 21.5q10 9 21 5t11 -17zM593 769q0 -9 -5.5 -14t-12.5 -5q-12 0 -17 9.5t3 21.5q10 9 21 5t11 -17z" />
    <glyph glyph-name="Igrave" unicode="&#xcc;" horiz-adv-x="737" 
d="M876 692q7 6 12.5 5.5t7 -5t-1.5 -10.5l-86 -146l-126 -209q-2 -3 -24 -38l-26 -41l-23 -35.5t-26 -39l-23.5 -33.5t-27 -37l-25.5 -31t-29 -33q-169 -183 -340 -116q-116 45 -143 171q1 10 9.5 10t10.5 -9q30 -113 130 -152q156 -59 308 118q84 100 181 267
q33 59 90.5 154t72.5 122q-46 -32 -104 -57t-97 -37t-110 -31q-36 -9 -57 -15t-48.5 -22t-36.5 -37q-10 -18 -4 -43.5t24 -33.5q5 -2 6 -6t-2 -7t-9 -4q-29 9 -37.5 43.5t4.5 58.5q8 19 25 33.5t42.5 24t43 14.5t45.5 11q129 31 224 76t170 120zM834 807q-1 9 6.5 14t14.5 2
l45 -61q2 -5 -1.5 -8.5t-7.5 0.5q-47 41 -57 53z" />
    <glyph glyph-name="Iacute" unicode="&#xcd;" horiz-adv-x="737" 
d="M876 692q7 6 12.5 5.5t7 -5t-1.5 -10.5l-86 -146l-126 -209q-2 -3 -24 -38l-26 -41l-23 -35.5t-26 -39l-23.5 -33.5t-27 -37l-25.5 -31t-29 -33q-169 -183 -340 -116q-116 45 -143 171q1 10 9.5 10t10.5 -9q30 -113 130 -152q156 -59 308 118q84 100 181 267
q33 59 90.5 154t72.5 122q-46 -32 -104 -57t-97 -37t-110 -31q-36 -9 -57 -15t-48.5 -22t-36.5 -37q-10 -18 -4 -43.5t24 -33.5q5 -2 6 -6t-2 -7t-9 -4q-29 9 -37.5 43.5t4.5 58.5q8 19 25 33.5t42.5 24t43 14.5t45.5 11q129 31 224 76t170 120zM834 769l48 61q4 2 10 -1.5
t8 -8.5t-1 -8l-57 -51q-2 -2 -5 -1.5t-4.5 3.5t1.5 6z" />
    <glyph glyph-name="Icircumflex" unicode="&#xce;" horiz-adv-x="737" 
d="M876 692q7 6 12.5 5.5t7 -5t-1.5 -10.5l-86 -146l-126 -209q-2 -3 -24 -38l-26 -41l-23 -35.5t-26 -39l-23.5 -33.5t-27 -37l-25.5 -31t-29 -33q-169 -183 -340 -116q-116 45 -143 171q1 10 9.5 10t10.5 -9q30 -113 130 -152q156 -59 308 118q84 100 181 267
q33 59 90.5 154t72.5 122q-46 -32 -104 -57t-97 -37t-110 -31q-36 -9 -57 -15t-48.5 -22t-36.5 -37q-10 -18 -4 -43.5t24 -33.5q5 -2 6 -6t-2 -7t-9 -4q-29 9 -37.5 43.5t4.5 58.5q8 19 25 33.5t42.5 24t43 14.5t45.5 11q129 31 224 76t170 120zM847 768q0 3 19.5 36
t26.5 44q7 4 10 -2q9 -37 18 -96q1 -4 -1 -6t-5.5 -1t-4.5 5l-19 56l-37 -44q-1 -4 -4.5 -1t-2.5 9z" />
    <glyph glyph-name="Idieresis" unicode="&#xcf;" horiz-adv-x="737" 
d="M876 692q7 6 12.5 5.5t7 -5t-1.5 -10.5l-86 -146l-126 -209q-2 -3 -24 -38l-26 -41l-23 -35.5t-26 -39l-23.5 -33.5t-27 -37l-25.5 -31t-29 -33q-169 -183 -340 -116q-116 45 -143 171q1 10 9.5 10t10.5 -9q30 -113 130 -152q156 -59 308 118q84 100 181 267
q33 59 90.5 154t72.5 122q-46 -32 -104 -57t-97 -37t-110 -31q-36 -9 -57 -15t-48.5 -22t-36.5 -37q-10 -18 -4 -43.5t24 -33.5q5 -2 6 -6t-2 -7t-9 -4q-29 9 -37.5 43.5t4.5 58.5q8 19 25 33.5t42.5 24t43 14.5t45.5 11q129 31 224 76t170 120zM873 769q0 -9 -5.5 -14
t-12.5 -5q-12 0 -17 9.5t3 21.5q10 9 21 5t11 -17zM950 769q0 -9 -5.5 -14t-12.5 -5q-12 0 -17 9.5t3 21.5q10 9 21 5t11 -17z" />
    <glyph glyph-name="Eth" unicode="&#xd0;" horiz-adv-x="1156" 
d="M577 234h-14q-7 0 -9 4t0.5 8.5t8.5 4.5h24l44 77l87 157l67 119q-74 -54 -162.5 -85.5t-227.5 -60t-176 -38.5q-26 -6 -41.5 -10.5t-39 -13.5t-38 -21.5t-21.5 -28.5q-9 -19 -1 -41t27 -30q5 -2 6 -6t-2 -7t-9 -4q-30 9 -40.5 40.5t1.5 55.5q6 15 19.5 28t27.5 20.5
t36 15.5t35 11l35 8l117 24.5t119.5 25.5t106 29t110 41t96.5 56t98 79q6 6 12 5.5t7.5 -5t-1.5 -10.5q-1 -2 -77 -140t-123 -215l-27 -45q108 129 222 240t194 147q49 26 89 10t44 -76q4 -81 -77 -218.5t-180 -254t-180 -187.5q35 -81 -20 -149q-3 -4 -7.5 -3t-6 5t1.5 8
q48 61 20 128q-47 -37 -76 -54q-48 -25 -95 -26q-63 -2 -86 46t10 96q26 39 73.5 48t94 -10.5t73.5 -57.5q57 53 123.5 129.5t133 166t110.5 180t44 152.5q-1 85 -82 52q-135 -54 -427 -403h23q8 0 8 -8.5t-8 -8.5h-37l-48 -60l-2 -2q-54 -82 -100 -133q-162 -183 -336 -116
q-56 21 -94.5 65t-53.5 106q0 6 4.5 8.5t9 0t5.5 -7.5q34 -113 135 -152q158 -59 305 118q59 74 118 173zM735 -37q-38 54 -108 64t-108 -42q-26 -36 -8.5 -77.5t67.5 -36.5q35 4 80 32q29 19 77 60z" />
    <glyph glyph-name="Ntilde" unicode="&#xd1;" horiz-adv-x="1184" 
d="M542 116q-2 -4 -4 -5q-28 -37 -60 -72q-169 -183 -340 -116q-116 45 -143 171q1 10 9.5 10t10.5 -9q30 -113 130 -152q156 -59 308 118q84 100 181 267q33 59 90.5 154t72.5 122q-76 -54 -165 -85.5t-229.5 -60t-177.5 -38.5q-36 -9 -57 -15t-48.5 -22t-36.5 -37
q-10 -18 -4 -43.5t24 -33.5q5 -2 6 -6t-2 -7t-9 -4q-29 9 -37.5 43.5t4.5 58.5q8 19 25 33.5t42.5 24t43 14.5t45.5 11l117.5 24.5t120 25.5t107 29t111.5 41t98.5 56t100.5 79q7 6 12.5 5.5t7 -5t-1.5 -10.5l-86 -146l-126 -209l-90 -141q226 211 335 303q48 40 85 51
t53.5 -4.5t12.5 -54t-31 -90.5q-25 -47 -115.5 -189t-122.5 -221q-40 -99 0 -102q32 -2 112 64q53 44 99.5 88.5t72.5 72l91 98.5q8 1 11.5 -1.5t1.5 -12.5l-134.5 -140t-133.5 -123q-104 -84 -145.5 -58t-11.5 122q20 65 65.5 145t99 163.5t73.5 122.5q51 100 26 108.5
t-100 -57.5q-84 -71 -220 -196zM953 757q-4 -1 -8 4q18 20 41.5 22t44.5 -7q17 -5 25 -7t20 -1t19 8q4 2 6.5 -0.5t-1.5 -6.5q-25 -26 -87 -12q-17 6 -25 8t-19 1t-16 -9z" />
    <glyph glyph-name="Ograve" unicode="&#xd2;" horiz-adv-x="538" 
d="M99 324q49 93 94 157q89 128 170 163q18 9 37 13.5t39.5 5t35.5 -12t19 -37.5q45 -41 30 -136q-15 -90 -61 -201t-117.5 -212.5t-144.5 -142.5q-34 -18 -65.5 -25t-63.5 4.5t-48 46.5q-42 94 43 304q-68 -22 -195.5 -48.5t-168.5 -36.5q-36 -9 -57 -15t-48.5 -22
t-36.5 -37q-10 -18 -4 -43.5t24 -33.5q5 -2 6 -6t-2 -7t-9 -4q-29 9 -37.5 43.5t4.5 58.5q8 19 25 33.5t42.5 24t43 14.5t45.5 11l120 24.5t147 32t109 32.5q16 36 24 52zM70 -54q15 -25 37.5 -31.5t41.5 0t45 21.5q105 59 198 230.5t116 311.5q14 72 -15 114
q-6 -38 -42 -87q-109 -149 -331 -236q-19 -42 -33.5 -83.5t-25 -87.5t-9 -86t17.5 -66zM438 514q37 53 41 92q-27 22 -69 9q-61 -18 -113 -97q-2 -5 -7 -4.5t-6.5 4.5t0.5 8q53 82 122 105q39 10 70 -5q-9 18 -32 18t-40.5 -7.5t-31.5 -16.5q-14 -10 -29 -22.5t-24.5 -22
t-24.5 -27t-20 -24.5l-21 -28.5t-19 -24.5q-55 -78 -92 -154l-12 -25q96 40 170.5 90.5t137.5 131.5zM402 795q-1 9 6.5 14t14.5 2l45 -61q2 -5 -1.5 -8.5t-7.5 0.5q-47 41 -57 53z" />
    <glyph glyph-name="Oacute" unicode="&#xd3;" horiz-adv-x="538" 
d="M99 324q49 93 94 157q89 128 170 163q18 9 37 13.5t39.5 5t35.5 -12t19 -37.5q45 -41 30 -136q-15 -90 -61 -201t-117.5 -212.5t-144.5 -142.5q-34 -18 -65.5 -25t-63.5 4.5t-48 46.5q-42 94 43 304q-68 -22 -195.5 -48.5t-168.5 -36.5q-36 -9 -57 -15t-48.5 -22
t-36.5 -37q-10 -18 -4 -43.5t24 -33.5q5 -2 6 -6t-2 -7t-9 -4q-29 9 -37.5 43.5t4.5 58.5q8 19 25 33.5t42.5 24t43 14.5t45.5 11l120 24.5t147 32t109 32.5q16 36 24 52zM70 -54q15 -25 37.5 -31.5t41.5 0t45 21.5q105 59 198 230.5t116 311.5q14 72 -15 114
q-6 -38 -42 -87q-109 -149 -331 -236q-19 -42 -33.5 -83.5t-25 -87.5t-9 -86t17.5 -66zM438 514q37 53 41 92q-27 22 -69 9q-61 -18 -113 -97q-2 -5 -7 -4.5t-6.5 4.5t0.5 8q53 82 122 105q39 10 70 -5q-9 18 -32 18t-40.5 -7.5t-31.5 -16.5q-14 -10 -29 -22.5t-24.5 -22
t-24.5 -27t-20 -24.5l-21 -28.5t-19 -24.5q-55 -78 -92 -154l-12 -25q96 40 170.5 90.5t137.5 131.5zM395 754l48 61q4 2 10 -1.5t8 -8.5t-1 -8l-57 -51q-2 -2 -5 -1.5t-4.5 3.5t1.5 6z" />
    <glyph glyph-name="Ocircumflex" unicode="&#xd4;" horiz-adv-x="538" 
d="M99 324q49 93 94 157q89 128 170 163q18 9 37 13.5t39.5 5t35.5 -12t19 -37.5q45 -41 30 -136q-15 -90 -61 -201t-117.5 -212.5t-144.5 -142.5q-34 -18 -65.5 -25t-63.5 4.5t-48 46.5q-42 94 43 304q-68 -22 -195.5 -48.5t-168.5 -36.5q-36 -9 -57 -15t-48.5 -22
t-36.5 -37q-10 -18 -4 -43.5t24 -33.5q5 -2 6 -6t-2 -7t-9 -4q-29 9 -37.5 43.5t4.5 58.5q8 19 25 33.5t42.5 24t43 14.5t45.5 11l120 24.5t147 32t109 32.5q16 36 24 52zM70 -54q15 -25 37.5 -31.5t41.5 0t45 21.5q105 59 198 230.5t116 311.5q14 72 -15 114
q-6 -38 -42 -87q-109 -149 -331 -236q-19 -42 -33.5 -83.5t-25 -87.5t-9 -86t17.5 -66zM438 514q37 53 41 92q-27 22 -69 9q-61 -18 -113 -97q-2 -5 -7 -4.5t-6.5 4.5t0.5 8q53 82 122 105q39 10 70 -5q-9 18 -32 18t-40.5 -7.5t-31.5 -16.5q-14 -10 -29 -22.5t-24.5 -22
t-24.5 -27t-20 -24.5l-21 -28.5t-19 -24.5q-55 -78 -92 -154l-12 -25q96 40 170.5 90.5t137.5 131.5zM434 768q0 3 19.5 36t26.5 44q7 4 10 -2q9 -37 18 -96q1 -4 -1 -6t-5.5 -1t-4.5 5l-19 56l-37 -44q-1 -4 -4.5 -1t-2.5 9z" />
    <glyph glyph-name="Otilde" unicode="&#xd5;" horiz-adv-x="538" 
d="M99 324q49 93 94 157q89 128 170 163q18 9 37 13.5t39.5 5t35.5 -12t19 -37.5q45 -41 30 -136q-15 -90 -61 -201t-117.5 -212.5t-144.5 -142.5q-34 -18 -65.5 -25t-63.5 4.5t-48 46.5q-42 94 43 304q-68 -22 -195.5 -48.5t-168.5 -36.5q-36 -9 -57 -15t-48.5 -22
t-36.5 -37q-10 -18 -4 -43.5t24 -33.5q5 -2 6 -6t-2 -7t-9 -4q-29 9 -37.5 43.5t4.5 58.5q8 19 25 33.5t42.5 24t43 14.5t45.5 11l120 24.5t147 32t109 32.5q16 36 24 52zM70 -54q15 -25 37.5 -31.5t41.5 0t45 21.5q105 59 198 230.5t116 311.5q14 72 -15 114
q-6 -38 -42 -87q-109 -149 -331 -236q-19 -42 -33.5 -83.5t-25 -87.5t-9 -86t17.5 -66zM438 514q37 53 41 92q-27 22 -69 9q-61 -18 -113 -97q-2 -5 -7 -4.5t-6.5 4.5t0.5 8q53 82 122 105q39 10 70 -5q-9 18 -32 18t-40.5 -7.5t-31.5 -16.5q-14 -10 -29 -22.5t-24.5 -22
t-24.5 -27t-20 -24.5l-21 -28.5t-19 -24.5q-55 -78 -92 -154l-12 -25q96 40 170.5 90.5t137.5 131.5zM380 754q-4 -1 -8 4q18 20 41.5 22t44.5 -7q17 -5 25 -7t20 -1t19 8q4 2 6.5 -0.5t-1.5 -6.5q-25 -26 -87 -12q-17 6 -25 8t-19 1t-16 -9z" />
    <glyph glyph-name="Odieresis" unicode="&#xd6;" horiz-adv-x="538" 
d="M99 324q49 93 94 157q89 128 170 163q18 9 37 13.5t39.5 5t35.5 -12t19 -37.5q45 -41 30 -136q-15 -90 -61 -201t-117.5 -212.5t-144.5 -142.5q-34 -18 -65.5 -25t-63.5 4.5t-48 46.5q-42 94 43 304q-68 -22 -195.5 -48.5t-168.5 -36.5q-36 -9 -57 -15t-48.5 -22
t-36.5 -37q-10 -18 -4 -43.5t24 -33.5q5 -2 6 -6t-2 -7t-9 -4q-29 9 -37.5 43.5t4.5 58.5q8 19 25 33.5t42.5 24t43 14.5t45.5 11l120 24.5t147 32t109 32.5q16 36 24 52zM70 -54q15 -25 37.5 -31.5t41.5 0t45 21.5q105 59 198 230.5t116 311.5q14 72 -15 114
q-6 -38 -42 -87q-109 -149 -331 -236q-19 -42 -33.5 -83.5t-25 -87.5t-9 -86t17.5 -66zM438 514q37 53 41 92q-27 22 -69 9q-61 -18 -113 -97q-2 -5 -7 -4.5t-6.5 4.5t0.5 8q53 82 122 105q39 10 70 -5q-9 18 -32 18t-40.5 -7.5t-31.5 -16.5q-14 -10 -29 -22.5t-24.5 -22
t-24.5 -27t-20 -24.5l-21 -28.5t-19 -24.5q-55 -78 -92 -154l-12 -25q96 40 170.5 90.5t137.5 131.5zM425 775q0 -9 -5.5 -14t-12.5 -5q-12 0 -17 9.5t3 21.5q10 9 21 5t11 -17zM502 775q0 -9 -5.5 -14t-12.5 -5q-12 0 -17 9.5t3 21.5q10 9 21 5t11 -17z" />
    <glyph glyph-name="multiply" unicode="&#xd7;" horiz-adv-x="236" 
d="M106 317l-62 47q-4 3 -3 6.5t4 4.5t6 -1l65 -49l69 50q5 3 10.5 0t7 -8.5t-2.5 -8.5l-65 -47l65 -50q5 -3 -1 -8q-3 -4 -7 -1l-67 52l-75 -49q-10 -8 -18 4q-5 8 2 12z" />
    <glyph glyph-name="Oslash" unicode="&#xd8;" horiz-adv-x="538" 
d="M473 708h16q3 0 3 -3l-2 -6q-3 -6 -8.5 -19l-11.5 -26q20 -13 24 -41q45 -41 30 -136q-15 -90 -61 -201t-117.5 -212.5t-144.5 -142.5q-40 -20 -70 -25l-26 -58q0 -6 -4 -6h-15q-2 0 -4 1.5t-2 3t1 2.5l24 55q-57 2 -81 53q-42 94 43 304q-68 -22 -195.5 -48.5
t-168.5 -36.5q-36 -9 -57 -15t-48.5 -22t-36.5 -37q-10 -18 -4 -43.5t24 -33.5q5 -2 6 -6t-2 -7t-9 -4q-29 9 -37.5 43.5t4.5 58.5q8 19 25 33.5t42.5 24t43 14.5t45.5 11l120 24.5t147 32t109 32.5q16 36 24 52q49 93 94 157q89 128 170 163q45 23 83 17l20 45q1 0 3.5 1
t3.5 1zM194 -64q105 59 198 230.5t116 311.5q14 72 -15 114q-6 -38 -42 -87q-37 -50 -91 -98l-221 -494q19 3 55 23zM70 -54q17 -29 43 -34l205 462q-85 -62 -198 -105q-19 -42 -33.5 -83.5t-25 -87.5t-9 -86t17.5 -66zM410 615q-61 -18 -113 -97q-2 -5 -7 -4.5t-6.5 4.5
t0.5 8q53 82 122 105q18 4 28 4l5 10q-32 -2 -67 -25q-14 -10 -29 -22.5t-24.5 -22t-24.5 -27t-20 -24.5l-21 -28.5t-19 -24.5q-55 -78 -92 -154l-12 -25q127 54 203 115l94 211q-2 0 -17 -3zM438 514q37 53 41 92q-10 8 -25 11l-76 -170q27 26 60 67zM460 632l16 -6
q-5 10 -12 14z" />
    <glyph glyph-name="Ugrave" unicode="&#xd9;" horiz-adv-x="892" 
d="M394 574q-70 -61 -156.5 -101t-222 -81.5t-173.5 -55.5q-34 -11 -55 -19.5t-47 -27t-33 -40.5q-7 -21 0.5 -45t26.5 -30q8 -3 7.5 -9t-10.5 -8q-30 6 -41 37.5t-2 60.5q8 25 36.5 46.5t51.5 30.5t60 21t115 35.5t117 36.5t104 39t107 51.5t92.5 65t92.5 88.5q6 7 12 7
t7.5 -5t-0.5 -11l-220 -451q-51 -105 -59 -167q-6 -42 15.5 -45t49.5 20q52 35 140 131q106 115 336 419q58 80 92 121q6 6 15.5 6t17.5 -6t4 -13q-47 -91 -168 -344q-95 -196 -140 -303q-26 -58 -32 -96q-8 -43 7 -51t51 21l35.5 30l36.5 32.5l33 30.5t34.5 34.5l31.5 32.5
t33.5 35.5l31 34l33 37t31.5 34.5q5 5 10.5 -0.5t0.5 -10.5q-2 -2 -30.5 -33.5l-33.5 -37l-30 -33t-34 -36.5l-31.5 -32.5t-35.5 -35.5l-32.5 -31t-37 -34l-35.5 -30q-41 -33 -73.5 -24t-31.5 65q0 44 27 105q45 103 148 319l128 263q-10 -15 -44 -59q-215 -290 -337 -421
q-85 -93 -142 -134q-24 -17 -44.5 -21.5t-36 8t-19.5 44.5q-8 71 52 200zM634 807q-1 9 6.5 14t14.5 2l45 -61q2 -5 -1.5 -8.5t-7.5 0.5q-47 41 -57 53z" />
    <glyph glyph-name="Uacute" unicode="&#xda;" horiz-adv-x="892" 
d="M394 574q-70 -61 -156.5 -101t-222 -81.5t-173.5 -55.5q-34 -11 -55 -19.5t-47 -27t-33 -40.5q-7 -21 0.5 -45t26.5 -30q8 -3 7.5 -9t-10.5 -8q-30 6 -41 37.5t-2 60.5q8 25 36.5 46.5t51.5 30.5t60 21t115 35.5t117 36.5t104 39t107 51.5t92.5 65t92.5 88.5q6 7 12 7
t7.5 -5t-0.5 -11l-220 -451q-51 -105 -59 -167q-6 -42 15.5 -45t49.5 20q52 35 140 131q106 115 336 419q58 80 92 121q6 6 15.5 6t17.5 -6t4 -13q-47 -91 -168 -344q-95 -196 -140 -303q-26 -58 -32 -96q-8 -43 7 -51t51 21l35.5 30l36.5 32.5l33 30.5t34.5 34.5l31.5 32.5
t33.5 35.5l31 34l33 37t31.5 34.5q5 5 10.5 -0.5t0.5 -10.5q-2 -2 -30.5 -33.5l-33.5 -37l-30 -33t-34 -36.5l-31.5 -32.5t-35.5 -35.5l-32.5 -31t-37 -34l-35.5 -30q-41 -33 -73.5 -24t-31.5 65q0 44 27 105q45 103 148 319l128 263q-10 -15 -44 -59q-215 -290 -337 -421
q-85 -93 -142 -134q-24 -17 -44.5 -21.5t-36 8t-19.5 44.5q-8 71 52 200zM629 760l48 61q4 2 10 -1.5t8 -8.5t-1 -8l-57 -51q-2 -2 -5 -1.5t-4.5 3.5t1.5 6z" />
    <glyph glyph-name="Ucircumflex" unicode="&#xdb;" horiz-adv-x="892" 
d="M394 574q-70 -61 -156.5 -101t-222 -81.5t-173.5 -55.5q-34 -11 -55 -19.5t-47 -27t-33 -40.5q-7 -21 0.5 -45t26.5 -30q8 -3 7.5 -9t-10.5 -8q-30 6 -41 37.5t-2 60.5q8 25 36.5 46.5t51.5 30.5t60 21t115 35.5t117 36.5t104 39t107 51.5t92.5 65t92.5 88.5q6 7 12 7
t7.5 -5t-0.5 -11l-220 -451q-51 -105 -59 -167q-6 -42 15.5 -45t49.5 20q52 35 140 131q106 115 336 419q58 80 92 121q6 6 15.5 6t17.5 -6t4 -13q-47 -91 -168 -344q-95 -196 -140 -303q-26 -58 -32 -96q-8 -43 7 -51t51 21l35.5 30l36.5 32.5l33 30.5t34.5 34.5l31.5 32.5
t33.5 35.5l31 34l33 37t31.5 34.5q5 5 10.5 -0.5t0.5 -10.5q-2 -2 -30.5 -33.5l-33.5 -37l-30 -33t-34 -36.5l-31.5 -32.5t-35.5 -35.5l-32.5 -31t-37 -34l-35.5 -30q-41 -33 -73.5 -24t-31.5 65q0 44 27 105q45 103 148 319l128 263q-10 -15 -44 -59q-215 -290 -337 -421
q-85 -93 -142 -134q-24 -17 -44.5 -21.5t-36 8t-19.5 44.5q-8 71 52 200zM644 768q0 3 23 36.5t31 43.5q8 4 9 -2q7 -45 9 -96q1 -6 -4.5 -7t-6.5 5l-14 56l-41 -44q-1 -4 -4.5 -1t-1.5 9z" />
    <glyph glyph-name="Udieresis" unicode="&#xdc;" horiz-adv-x="892" 
d="M394 574q-70 -61 -156.5 -101t-222 -81.5t-173.5 -55.5q-34 -11 -55 -19.5t-47 -27t-33 -40.5q-7 -21 0.5 -45t26.5 -30q8 -3 7.5 -9t-10.5 -8q-30 6 -41 37.5t-2 60.5q8 25 36.5 46.5t51.5 30.5t60 21t115 35.5t117 36.5t104 39t107 51.5t92.5 65t92.5 88.5q6 7 12 7
t7.5 -5t-0.5 -11l-220 -451q-51 -105 -59 -167q-6 -42 15.5 -45t49.5 20q52 35 140 131q106 115 336 419q58 80 92 121q6 6 15.5 6t17.5 -6t4 -13q-47 -91 -168 -344q-95 -196 -140 -303q-26 -58 -32 -96q-8 -43 7 -51t51 21l35.5 30l36.5 32.5l33 30.5t34.5 34.5l31.5 32.5
t33.5 35.5l31 34l33 37t31.5 34.5q5 5 10.5 -0.5t0.5 -10.5q-2 -2 -30.5 -33.5l-33.5 -37l-30 -33t-34 -36.5l-31.5 -32.5t-35.5 -35.5l-32.5 -31t-37 -34l-35.5 -30q-41 -33 -73.5 -24t-31.5 65q0 44 27 105q45 103 148 319l128 263q-10 -15 -44 -59q-215 -290 -337 -421
q-85 -93 -142 -134q-24 -17 -44.5 -21.5t-36 8t-19.5 44.5q-8 71 52 200zM673 775q0 -9 -5.5 -14t-12.5 -5q-12 0 -17 9.5t3 21.5q10 9 21 5t11 -17zM750 775q0 -9 -5.5 -14t-12.5 -5q-12 0 -17 9.5t3 21.5q10 9 21 5t11 -17z" />
    <glyph glyph-name="Yacute" unicode="&#xdd;" horiz-adv-x="731" 
d="M399 629q-66 -30 -145 -51.5t-178.5 -41.5t-146.5 -32q-36 -9 -57 -15t-48.5 -22t-36.5 -37q-10 -18 -4 -43.5t24 -33.5q5 -2 6 -6t-2 -7t-9 -4q-29 9 -37.5 43.5t4.5 58.5q8 19 25 33.5t42.5 24t43 14.5t45.5 11q43 9 122.5 24t125 24.5t108 28.5t113.5 44q28 14 113 68
q47 26 66.5 10.5t12.5 -55.5q-5 -30 -33.5 -82t-57.5 -97.5t-47.5 -92.5t-8.5 -73q21 -53 127 30q4 3 6 4q41 33 176 195l56 68q23 27 36 40.5t23 21.5t15 13q7 6 12.5 5.5t7 -5t-1.5 -10.5l-86 -146l-126 -209q-2 -3 -24 -38l-26 -41l-23 -35.5t-26 -39l-23.5 -33.5
t-27 -37l-25.5 -31t-29 -33q-169 -183 -340 -116q-116 45 -143 171q1 10 9.5 10t10.5 -9q30 -113 130 -152q156 -59 308 118q84 100 181 267l125 211l-1 -1q-131 -159 -178 -196q-101 -82 -156 -50q-22 14 -29 41q0 13 -1.5 20.5t3 22.5t7 24.5t10 25l12 25t13 24.5l13 23
l12 20.5l10.5 17.5q53 92 66 124q16 36 10.5 46t-36.5 -8l-53.5 -33t-63.5 -36zM716 761l48 61q4 2 10 -1.5t8 -8.5t-1 -8l-57 -51q-2 -2 -5 -1.5t-4.5 3.5t1.5 6z" />
    <glyph glyph-name="agrave" unicode="&#xe0;" horiz-adv-x="422" 
d="M65 171l70 72q5 5 14 4.5t16 -5.5t4 -12q-3 -6 -10.5 -18.5l-11.5 -19.5q-51 -88 -66 -127q-5 -13 -7.5 -22t-4 -20.5t2.5 -15.5t13 -7t26 5q63 21 155.5 81.5t155.5 115.5q6 5 11 -1.5t-1 -11.5q-55 -47 -161.5 -117t-156.5 -84q-49 -13 -62.5 9.5t-1.5 65.5
q15 64 55 126l-123 -121q-30 -25 -51 -16.5t-16 35.5q6 34 40.5 76.5t66.5 47.5q43 8 43 -40zM52 158q0 24 -8 31.5t-28 -8.5q-43 -40 -64 -85q-9 -22 -5.5 -28t24.5 12q53 49 81 78zM152 399q-1 9 6.5 14t14.5 2l45 -61q2 -5 -1.5 -8.5t-7.5 0.5q-47 41 -57 53z" />
    <glyph glyph-name="aacute" unicode="&#xe1;" horiz-adv-x="422" 
d="M65 171l70 72q5 5 14 4.5t16 -5.5t4 -12q-3 -6 -10.5 -18.5l-11.5 -19.5q-51 -88 -66 -127q-5 -13 -7.5 -22t-4 -20.5t2.5 -15.5t13 -7t26 5q63 21 155.5 81.5t155.5 115.5q6 5 11 -1.5t-1 -11.5q-55 -47 -161.5 -117t-156.5 -84q-49 -13 -62.5 9.5t-1.5 65.5
q15 64 55 126l-123 -121q-30 -25 -51 -16.5t-16 35.5q6 34 40.5 76.5t66.5 47.5q43 8 43 -40zM52 158q0 24 -8 31.5t-28 -8.5q-43 -40 -64 -85q-9 -22 -5.5 -28t24.5 12q53 49 81 78zM144 355l48 61q4 2 10 -1.5t8 -8.5t-1 -8l-57 -51q-2 -2 -5 -1.5t-4.5 3.5t1.5 6z" />
    <glyph glyph-name="acircumflex" unicode="&#xe2;" horiz-adv-x="422" 
d="M65 171l70 72q5 5 14 4.5t16 -5.5t4 -12q-3 -6 -10.5 -18.5l-11.5 -19.5q-51 -88 -66 -127q-5 -13 -7.5 -22t-4 -20.5t2.5 -15.5t13 -7t26 5q63 21 155.5 81.5t155.5 115.5q6 5 11 -1.5t-1 -11.5q-55 -47 -161.5 -117t-156.5 -84q-49 -13 -62.5 9.5t-1.5 65.5
q15 64 55 126l-123 -121q-30 -25 -51 -16.5t-16 35.5q6 34 40.5 76.5t66.5 47.5q43 8 43 -40zM52 158q0 24 -8 31.5t-28 -8.5q-43 -40 -64 -85q-9 -22 -5.5 -28t24.5 12q53 49 81 78zM107 370q1 3 24.5 37t31.5 43q8 4 9 -2q5 -42 7 -96q1 -6 -4.5 -7t-6.5 5l-12 56l-43 -44
q-1 -4 -4.5 -1t-1.5 9z" />
    <glyph glyph-name="atilde" unicode="&#xe3;" horiz-adv-x="422" 
d="M65 171l70 72q5 5 14 4.5t16 -5.5t4 -12q-3 -6 -10.5 -18.5l-11.5 -19.5q-51 -88 -66 -127q-5 -13 -7.5 -22t-4 -20.5t2.5 -15.5t13 -7t26 5q63 21 155.5 81.5t155.5 115.5q6 5 11 -1.5t-1 -11.5q-55 -47 -161.5 -117t-156.5 -84q-49 -13 -62.5 9.5t-1.5 65.5
q15 64 55 126l-123 -121q-30 -25 -51 -16.5t-16 35.5q6 34 40.5 76.5t66.5 47.5q43 8 43 -40zM52 158q0 24 -8 31.5t-28 -8.5q-43 -40 -64 -85q-9 -22 -5.5 -28t24.5 12q53 49 81 78zM99 352q-4 -1 -8 4q18 20 41.5 22t44.5 -7q17 -5 25 -7t20 -1t19 8q4 2 6.5 -0.5
t-1.5 -6.5q-25 -26 -87 -12q-17 6 -25 8t-19 1t-16 -9z" />
    <glyph glyph-name="adieresis" unicode="&#xe4;" horiz-adv-x="422" 
d="M65 171l70 72q5 5 14 4.5t16 -5.5t4 -12q-3 -6 -10.5 -18.5l-11.5 -19.5q-51 -88 -66 -127q-5 -13 -7.5 -22t-4 -20.5t2.5 -15.5t13 -7t26 5q63 21 155.5 81.5t155.5 115.5q6 5 11 -1.5t-1 -11.5q-55 -47 -161.5 -117t-156.5 -84q-49 -13 -62.5 9.5t-1.5 65.5
q15 64 55 126l-123 -121q-30 -25 -51 -16.5t-16 35.5q6 34 40.5 76.5t66.5 47.5q43 8 43 -40zM52 158q0 24 -8 31.5t-28 -8.5q-43 -40 -64 -85q-9 -22 -5.5 -28t24.5 12q53 49 81 78zM135 363q0 -9 -5.5 -14t-12.5 -5q-12 0 -17 9.5t3 21.5q10 9 21 5t11 -17zM212 363
q0 -9 -5.5 -14t-12.5 -5q-12 0 -17 9.5t3 21.5q10 9 21 5t11 -17z" />
    <glyph glyph-name="aring" unicode="&#xe5;" horiz-adv-x="422" 
d="M52 158q0 24 -8 31.5t-28 -8.5q-43 -40 -64 -85q-9 -22 -5.5 -28t24.5 12q53 49 81 78zM65 171l70 72q5 5 14 4.5t16 -5.5t4 -12q-3 -6 -10.5 -18.5l-11.5 -19.5q-51 -88 -66 -127q-5 -13 -7.5 -22t-4 -20.5t2.5 -15.5t13 -7t26 5q63 21 155.5 81.5t155.5 115.5
q6 5 11 -1.5t-1 -11.5q-55 -47 -161.5 -117t-156.5 -84q-49 -13 -62.5 9.5t-1.5 65.5q15 64 55 126l-123 -121q-30 -25 -51 -16.5t-16 35.5q6 34 40.5 76.5t66.5 47.5q43 8 43 -40zM165 409q15 0 23.5 -9t8.5 -23q0 -20 -15.5 -28.5t-31.5 0t-16 28.5q0 14 9 23t22 9z
M165 400q-10 0 -16.5 -7t-6.5 -17q0 -14 11.5 -19.5t23 0t11.5 19.5q0 24 -23 24z" />
    <glyph glyph-name="ae" unicode="&#xe6;" horiz-adv-x="449" 
d="M194 162q-37 -26 -73 -36q-1 0 -6.5 -1t-7.5 -2q-30 -54 -17 -82q4 -7 8.5 -11t12 -5t12.5 -1.5t15 2.5l13.5 4t13.5 5t11 4q121 51 273 163q7 6 10 -2q3 -7 -2 -11q-142 -107 -276 -165q-72 -29 -106 -5q-21 15 -22 45t13 61t37 60l2 4l-123 -121q-30 -25 -51 -16.5
t-16 35.5q6 34 40.5 76.5t66.5 47.5q43 8 43 -40l70 72q5 6 16 4.5t16 -7.5q39 18 55.5 -6.5t-12.5 -57.5q-7 -7 -16 -14zM52 158q0 24 -8 31.5t-28 -8.5q-43 -40 -64 -85q-9 -22 -5.5 -28t24.5 12q53 49 81 78zM176 214q-27 -19 -59 -73q36 9 68 33q30 23 28 43
q-2 17 -25 5q-6 -3 -12 -8z" />
    <glyph glyph-name="ccedilla" unicode="&#xe7;" horiz-adv-x="347" 
d="M110 219q1 -4 -2.5 -6.5t-7.5 -1.5t-5 6q-6 20 -35 -1q-2 -1 -3 -2q-25 -18 -54 -63t-34 -80q-12 -73 96 -28q7 2 26 11q159 77 256 148q4 3 8 1t4.5 -6t-3.5 -7q-98 -73 -261 -151q-51 -23 -86 -28q-3 -16 0 -17q3 -2 8 -2t8 -1q27 -10 32 -35q4 -28 -31 -34
q-18 -3 -44 1q-4 0 -6 4t0 7.5t8 2.5q51 -3 56 15q2 10 -19 23q-3 2 -7 2.5t-9 0.5h-7q-8 1 -8 32q-36 0 -50 29q-18 39 14 99.5t72 90.5q12 8 23.5 12.5t24 6t22.5 -5.5t14 -23z" />
    <glyph glyph-name="egrave" unicode="&#xe8;" horiz-adv-x="329" 
d="M74 162q-37 -26 -73 -36q-1 0 -6.5 -1t-7.5 -2q-30 -54 -17 -82q4 -7 8.5 -11t12 -5t12.5 -1.5t15 2.5l13.5 4t13.5 5t11 4q121 51 273 163q7 6 10 -2q3 -7 -2 -11q-142 -107 -276 -165q-72 -29 -106 -5q-28 23 -21.5 63t34 82t59.5 65q35 22 58.5 17t22 -32t-33.5 -52z
M56 214q-27 -19 -59 -73q36 9 68 33q30 23 28 43q-2 17 -25 5q-6 -3 -12 -8zM53 397q-1 9 6.5 14t14.5 2l45 -61q2 -5 -1.5 -8.5t-7.5 0.5q-47 41 -57 53z" />
    <glyph glyph-name="eacute" unicode="&#xe9;" horiz-adv-x="329" 
d="M74 162q-37 -26 -73 -36q-1 0 -6.5 -1t-7.5 -2q-30 -54 -17 -82q4 -7 8.5 -11t12 -5t12.5 -1.5t15 2.5l13.5 4t13.5 5t11 4q121 51 273 163q7 6 10 -2q3 -7 -2 -11q-142 -107 -276 -165q-72 -29 -106 -5q-28 23 -21.5 63t34 82t59.5 65q35 22 58.5 17t22 -32t-33.5 -52z
M56 214q-27 -19 -59 -73q36 9 68 33q30 23 28 43q-2 17 -25 5q-6 -3 -12 -8zM48 356l48 61q4 2 10 -1.5t8 -8.5t-1 -8l-57 -51q-2 -2 -5 -1.5t-4.5 3.5t1.5 6z" />
    <glyph glyph-name="ecircumflex" unicode="&#xea;" horiz-adv-x="329" 
d="M74 162q-37 -26 -73 -36q-1 0 -6.5 -1t-7.5 -2q-30 -54 -17 -82q4 -7 8.5 -11t12 -5t12.5 -1.5t15 2.5l13.5 4t13.5 5t11 4q121 51 273 163q7 6 10 -2q3 -7 -2 -11q-142 -107 -276 -165q-72 -29 -106 -5q-28 23 -21.5 63t34 82t59.5 65q35 22 58.5 17t22 -32t-33.5 -52z
M56 214q-27 -19 -59 -73q36 9 68 33q30 23 28 43q-2 17 -25 5q-6 -3 -12 -8zM62 349q0 3 19.5 36t26.5 44q7 4 10 -2q9 -37 18 -96q1 -4 -1 -6t-5.5 -1t-4.5 5l-19 56l-37 -44q-1 -4 -4.5 -1t-2.5 9z" />
    <glyph glyph-name="edieresis" unicode="&#xeb;" horiz-adv-x="329" 
d="M74 162q-37 -26 -73 -36q-1 0 -6.5 -1t-7.5 -2q-30 -54 -17 -82q4 -7 8.5 -11t12 -5t12.5 -1.5t15 2.5l13.5 4t13.5 5t11 4q121 51 273 163q7 6 10 -2q3 -7 -2 -11q-142 -107 -276 -165q-72 -29 -106 -5q-28 23 -21.5 63t34 82t59.5 65q35 22 58.5 17t22 -32t-33.5 -52z
M56 214q-27 -19 -59 -73q36 9 68 33q30 23 28 43q-2 17 -25 5q-6 -3 -12 -8zM75 363q0 -9 -5.5 -14t-12.5 -5q-12 0 -17 9.5t3 21.5q10 9 21 5t11 -17zM152 363q0 -9 -5.5 -14t-12.5 -5q-12 0 -17 9.5t3 21.5q10 9 21 5t11 -17z" />
    <glyph glyph-name="igrave" unicode="&#xec;" horiz-adv-x="338" 
d="M338 202q5 4 9 2.5t4 -5.5t-4 -8q-59 -45 -159.5 -98t-160.5 -63q-41 -9 -57 24q-11 33 -1 74.5t31 72.5q7 9 26 1q14 -5 8 -14q-19 -27 -35 -66.5t-7 -60.5q6 -19 38 -16q56 6 166.5 68t141.5 89zM39 401q-1 9 6.5 14t14.5 2l45 -61q2 -5 -1.5 -8.5t-7.5 0.5
q-47 41 -57 53z" />
    <glyph glyph-name="iacute" unicode="&#xed;" horiz-adv-x="338" 
d="M338 202q5 4 9 2.5t4 -5.5t-4 -8q-59 -45 -159.5 -98t-160.5 -63q-41 -9 -57 24q-11 33 -1 74.5t31 72.5q7 9 26 1q14 -5 8 -14q-19 -27 -35 -66.5t-7 -60.5q6 -19 38 -16q56 6 166.5 68t141.5 89zM40 353l48 61q4 2 10 -1.5t8 -8.5t-1 -8l-57 -51q-2 -2 -5 -1.5
t-4.5 3.5t1.5 6z" />
    <glyph glyph-name="icircumflex" unicode="&#xee;" horiz-adv-x="338" 
d="M338 202q5 4 9 2.5t4 -5.5t-4 -8q-59 -45 -159.5 -98t-160.5 -63q-41 -9 -57 24q-11 33 -1 74.5t31 72.5q7 9 26 1q14 -5 8 -14q-19 -27 -35 -66.5t-7 -60.5q6 -19 38 -16q56 6 166.5 68t141.5 89zM43 362q0 3 19.5 36t26.5 44q7 4 10 -2q9 -37 18 -96q1 -4 -1 -6
t-5.5 -1t-4.5 5l-19 56l-37 -44q-1 -4 -4.5 -1t-2.5 9z" />
    <glyph glyph-name="idieresis" unicode="&#xef;" horiz-adv-x="338" 
d="M338 202q5 4 9 2.5t4 -5.5t-4 -8q-59 -45 -159.5 -98t-160.5 -63q-41 -9 -57 24q-11 33 -1 74.5t31 72.5q7 9 26 1q14 -5 8 -14q-19 -27 -35 -66.5t-7 -60.5q6 -19 38 -16q56 6 166.5 68t141.5 89zM60 363q0 -9 -5.5 -14t-12.5 -5q-12 0 -17 9.5t3 21.5q10 9 21 5t11 -17
zM137 363q0 -9 -5.5 -14t-12.5 -5q-12 0 -17 9.5t3 21.5q10 9 21 5t11 -17z" />
    <glyph glyph-name="ntilde" unicode="&#xf1;" horiz-adv-x="453" 
d="M67 76l51 61q32 38 56.5 30.5t16.5 -51.5q-8 -37 -5 -64q4 -35 56 -5q110 69 211 155q3 3 7.5 1t5 -5.5t-2.5 -7.5q-108 -92 -213 -156q-64 -39 -90 9q-18 31 -9 76q6 24 2.5 27.5t-22.5 -19.5q-50 -60 -81 -88q-25 -20 -32.5 -13t3.5 35q13 32 44 90t42 86q9 23 2 25.5
t-26 -10.5q-33 -23 -72 -60q-5 -5 -10.5 -0.5t-0.5 10.5q42 42 74 63q27 20 45.5 10.5t9.5 -43.5q-6 -22 -15.5 -46.5t-26 -62.5zM155 623q-4 -1 -8 4q18 20 41.5 22t44.5 -7q17 -5 25 -7t20 -1t19 8q4 2 6.5 -0.5t-1.5 -6.5q-25 -26 -87 -12q-17 6 -25 8t-19 1t-16 -9z" />
    <glyph glyph-name="ograve" unicode="&#xf2;" horiz-adv-x="317" 
d="M37 193q-6 -28 2.5 -58t36.5 -37q27 54 29 80q3 36 -18 55t-39 -12q17 -1 28.5 -12.5t12.5 -28.5q0 -5 -4 -7t-8 0t-4 7q-1 15 -12 18t-24 -5zM29 219q13 31 36.5 35.5t41 -18t14.5 -59.5q-5 -45 -27 -82q64 5 108 28t115 79q6 4 10.5 -1.5t-1.5 -10.5
q-128 -111 -243 -111q-29 -42 -65 -49q-19 -6 -47 6q-23 14 -27.5 42.5t6.5 57t32.5 52.5t46.5 31zM14 45q27 7 52 38q-29 10 -40 37.5t-7 59.5q-22 -22 -35 -61t-2 -61q10 -18 32 -13zM68 397q-1 9 6.5 14t14.5 2l45 -61q2 -5 -1.5 -8.5t-7.5 0.5q-47 41 -57 53z" />
    <glyph glyph-name="oacute" unicode="&#xf3;" horiz-adv-x="317" 
d="M37 193q-6 -28 2.5 -58t36.5 -37q27 54 29 80q3 36 -18 55t-39 -12q17 -1 28.5 -12.5t12.5 -28.5q0 -5 -4 -7t-8 0t-4 7q-1 15 -12 18t-24 -5zM29 219q13 31 36.5 35.5t41 -18t14.5 -59.5q-5 -45 -27 -82q64 5 108 28t115 79q6 4 10.5 -1.5t-1.5 -10.5
q-128 -111 -243 -111q-29 -42 -65 -49q-19 -6 -47 6q-23 14 -27.5 42.5t6.5 57t32.5 52.5t46.5 31zM14 45q27 7 52 38q-29 10 -40 37.5t-7 59.5q-22 -22 -35 -61t-2 -61q10 -18 32 -13zM92 353l48 61q4 2 10 -1.5t8 -8.5t-1 -8l-57 -51q-2 -2 -5 -1.5t-4.5 3.5t1.5 6z" />
    <glyph glyph-name="ocircumflex" unicode="&#xf4;" horiz-adv-x="317" 
d="M37 193q-6 -28 2.5 -58t36.5 -37q27 54 29 80q3 36 -18 55t-39 -12q17 -1 28.5 -12.5t12.5 -28.5q0 -5 -4 -7t-8 0t-4 7q-1 15 -12 18t-24 -5zM29 219q13 31 36.5 35.5t41 -18t14.5 -59.5q-5 -45 -27 -82q64 5 108 28t115 79q6 4 10.5 -1.5t-1.5 -10.5
q-128 -111 -243 -111q-29 -42 -65 -49q-19 -6 -47 6q-23 14 -27.5 42.5t6.5 57t32.5 52.5t46.5 31zM14 45q27 7 52 38q-29 10 -40 37.5t-7 59.5q-22 -22 -35 -61t-2 -61q10 -18 32 -13zM59 370q0 3 19.5 36t26.5 44q7 4 10 -2q9 -37 18 -96q1 -4 -1 -6t-5.5 -1t-4.5 5
l-19 56l-37 -44q-1 -4 -4.5 -1t-2.5 9z" />
    <glyph glyph-name="otilde" unicode="&#xf5;" horiz-adv-x="317" 
d="M37 193q-6 -28 2.5 -58t36.5 -37q27 54 29 80q3 36 -18 55t-39 -12q17 -1 28.5 -12.5t12.5 -28.5q0 -5 -4 -7t-8 0t-4 7q-1 15 -12 18t-24 -5zM29 219q13 31 36.5 35.5t41 -18t14.5 -59.5q-5 -45 -27 -82q64 5 108 28t115 79q6 4 10.5 -1.5t-1.5 -10.5
q-128 -111 -243 -111q-29 -42 -65 -49q-19 -6 -47 6q-23 14 -27.5 42.5t6.5 57t32.5 52.5t46.5 31zM14 45q27 7 52 38q-29 10 -40 37.5t-7 59.5q-22 -22 -35 -61t-2 -61q10 -18 32 -13zM52 344q-4 -1 -8 4q18 20 41.5 22t44.5 -7q17 -5 25 -7t20 -1t19 8q4 2 6.5 -0.5
t-1.5 -6.5q-28 -29 -87 -12q-3 1 -8 2.5t-8 2.5t-8 2l-7.5 1.5t-6.5 1t-7 0t-6 -1.5t-5 -3t-4 -5z" />
    <glyph glyph-name="odieresis" unicode="&#xf6;" horiz-adv-x="317" 
d="M37 193q-6 -28 2.5 -58t36.5 -37q27 54 29 80q3 36 -18 55t-39 -12q17 -1 28.5 -12.5t12.5 -28.5q0 -5 -4 -7t-8 0t-4 7q-1 15 -12 18t-24 -5zM29 219q13 31 36.5 35.5t41 -18t14.5 -59.5q-5 -45 -27 -82q64 5 108 28t115 79q6 4 10.5 -1.5t-1.5 -10.5
q-128 -111 -243 -111q-29 -42 -65 -49q-19 -6 -47 6q-23 14 -27.5 42.5t6.5 57t32.5 52.5t46.5 31zM14 45q27 7 52 38q-29 10 -40 37.5t-7 59.5q-22 -22 -35 -61t-2 -61q10 -18 32 -13zM87 363q0 -9 -5.5 -14t-12.5 -5q-12 0 -17 9.5t3 21.5q10 9 21 5t11 -17zM164 363
q0 -9 -5.5 -14t-12.5 -5q-12 0 -17 9.5t3 21.5q10 9 21 5t11 -17z" />
    <glyph glyph-name="oslash" unicode="&#xf8;" horiz-adv-x="317" 
d="M105 299h8l2 -1l-2 -6q-2 -7 -7.5 -20.5t-9.5 -26.5q28 -21 25 -68q-5 -45 -27 -82q64 5 108 28t115 79q6 4 10.5 -1.5t-1.5 -10.5q-128 -111 -243 -111q-29 -42 -65 -49l-1 -1l-22 -59q0 -3 -2 -3h-8q-2 0 -3 1.5t0 2.5l20 57q-11 0 -31 8q-23 14 -27.5 42.5t6.5 57
t32.5 52.5t46.5 31q9 22 24.5 30.5t30.5 2.5l17 46h2zM19 180q-22 -22 -35 -61t-2 -61q9 -16 26 -14l24 65q-18 28 -13 71zM76 98q27 54 29 80q3 29 -14 51l-10 -27q7 -12 8 -22q0 -5 -4 -7t-8 0t-4 7l-24 -64q11 -14 27 -18zM37 193q-8 -31 4 -61l23 65q-10 4 -27 -4z
M66 83q-13 4 -24 14l-18 -48q23 10 42 34zM48 221q12 -2 22 -8l9 25q-17 7 -31 -17z" />
    <glyph glyph-name="ugrave" unicode="&#xf9;" 
d="M0 202q11 18 29 5q12 -8 7 -15q-5 -10 -20.5 -38t-21.5 -42q-18 -36 -26 -56q-15 -35 -12 -36.5t24 23.5l52 61l47 57q9 11 24 2.5t10 -19.5q-1 -3 -24.5 -49t-35.5 -74.5t-12 -41.5q-1 -8 2.5 -11.5t11.5 -2.5q22 2 68 33q30 21 65.5 49l60.5 49l64.5 55.5l58.5 50.5
q6 6 11 -1q4 -5 -1 -10q-148 -134 -251 -205q-45 -33 -74 -38q-33 -3 -38 31v23q9 51 33 105l-9 -12l-52 -61q-33 -38 -52 -31q-9 4 -10.5 16t2.5 28.5t10.5 34.5t16 38t17.5 35l15.5 29.5t9.5 17.5zM100 397q-1 9 6.5 14t14.5 2l45 -61q2 -5 -1.5 -8.5t-7.5 0.5
q-47 41 -57 53z" />
    <glyph glyph-name="uacute" unicode="&#xfa;" 
d="M0 202q11 18 29 5q12 -8 7 -15q-5 -10 -20.5 -38t-21.5 -42q-18 -36 -26 -56q-15 -35 -12 -36.5t24 23.5l52 61l47 57q9 11 24 2.5t10 -19.5q-1 -3 -24.5 -49t-35.5 -74.5t-12 -41.5q-1 -8 2.5 -11.5t11.5 -2.5q22 2 68 33q30 21 65.5 49l60.5 49l64.5 55.5l58.5 50.5
q6 6 11 -1q4 -5 -1 -10q-148 -134 -251 -205q-45 -33 -74 -38q-33 -3 -38 31v23q9 51 33 105l-9 -12l-52 -61q-33 -38 -52 -31q-9 4 -10.5 16t2.5 28.5t10.5 34.5t16 38t17.5 35l15.5 29.5t9.5 17.5zM81 353l48 61q4 2 10 -1.5t8 -8.5t-1 -8l-57 -51q-2 -2 -5 -1.5t-4.5 3.5
t1.5 6z" />
    <glyph glyph-name="ucircumflex" unicode="&#xfb;" 
d="M0 202q11 18 29 5q12 -8 7 -15q-5 -10 -20.5 -38t-21.5 -42q-18 -36 -26 -56q-15 -35 -12 -36.5t24 23.5l52 61l47 57q9 11 24 2.5t10 -19.5q-1 -3 -24.5 -49t-35.5 -74.5t-12 -41.5q-1 -8 2.5 -11.5t11.5 -2.5q22 2 68 33q30 21 65.5 49l60.5 49l64.5 55.5l58.5 50.5
q6 6 11 -1q4 -5 -1 -10q-148 -134 -251 -205q-45 -33 -74 -38q-33 -3 -38 31v23q9 51 33 105l-9 -12l-52 -61q-33 -38 -52 -31q-9 4 -10.5 16t2.5 28.5t10.5 34.5t16 38t17.5 35l15.5 29.5t9.5 17.5zM93 362q0 3 19.5 36t26.5 44q7 4 10 -2q9 -37 18 -96q1 -4 -1 -6t-5.5 -1
t-4.5 5l-19 56l-37 -44q-1 -4 -4.5 -1t-2.5 9z" />
    <glyph glyph-name="udieresis" unicode="&#xfc;" 
d="M0 202q11 18 29 5q12 -8 7 -15q-5 -10 -20.5 -38t-21.5 -42q-18 -36 -26 -56q-15 -35 -12 -36.5t24 23.5l52 61l47 57q9 11 24 2.5t10 -19.5q-1 -3 -24.5 -49t-35.5 -74.5t-12 -41.5q-1 -8 2.5 -11.5t11.5 -2.5q22 2 68 33q30 21 65.5 49l60.5 49l64.5 55.5l58.5 50.5
q6 6 11 -1q4 -5 -1 -10q-148 -134 -251 -205q-45 -33 -74 -38q-33 -3 -38 31v23q9 51 33 105l-9 -12l-52 -61q-33 -38 -52 -31q-9 4 -10.5 16t2.5 28.5t10.5 34.5t16 38t17.5 35l15.5 29.5t9.5 17.5zM101 363q0 -9 -5.5 -14t-12.5 -5q-12 0 -17 9.5t3 21.5q10 9 21 5t11 -17
zM178 363q0 -9 -5.5 -14t-12.5 -5q-12 0 -17 9.5t3 21.5q10 9 21 5t11 -17z" />
    <glyph glyph-name="yacute" unicode="&#xfd;" horiz-adv-x="353" 
d="M0 202q6 10 17 9.5t18 -9.5q4 -8 2 -11q-53 -114 -64 -148q-8 -27 12 -14q8 5 20 16q16 16 39.5 43.5t39 48l37.5 50.5t24 32q13 19 38 27q19 7 17 -9v-2q-85 -195 -86 -196q134 72 239 163q6 6 11 -1q6 -6 -1 -11q-115 -101 -260 -174q-150 -327 -260 -387
q-29 -18 -59 -10t-38 42q-16 55 31 125q36 55 86 99t85 64.5t107 58.5l79 172l-34.5 -45.5t-46.5 -58t-40 -41.5q-17 -15 -32 -22t-26 0t-10 33q1 43 55 156zM44 -16q-90 -47 -147.5 -90t-105.5 -116q-42 -63 -30 -113q12 -56 73 -14q13 10 44 42q42 47 117 194zM115 355
l48 61q4 2 10 -1.5t8 -8.5t-1 -8l-57 -51q-2 -2 -5 -1.5t-4.5 3.5t1.5 6z" />
    <glyph glyph-name="ydieresis" unicode="&#xff;" horiz-adv-x="353" 
d="M0 202q6 10 17 9.5t18 -9.5q4 -8 2 -11q-53 -114 -64 -148q-8 -27 12 -14q8 5 20 16q16 16 39.5 43.5t39 48l37.5 50.5t24 32q13 19 38 27q19 7 17 -9v-2q-85 -195 -86 -196q134 72 239 163q6 6 11 -1q6 -6 -1 -11q-115 -101 -260 -174q-150 -327 -260 -387
q-29 -18 -59 -10t-38 42q-16 55 31 125q36 55 86 99t85 64.5t107 58.5l79 172l-34.5 -45.5t-46.5 -58t-40 -41.5q-17 -15 -32 -22t-26 0t-10 33q1 43 55 156zM44 -16q-90 -47 -147.5 -90t-105.5 -116q-42 -63 -30 -113q12 -56 73 -14q13 10 44 42q42 47 117 194zM145 363
q0 -9 -5.5 -14t-12.5 -5q-12 0 -17 9.5t3 21.5q10 9 21 5t11 -17zM222 363q0 -9 -5.5 -14t-12.5 -5q-12 0 -17 9.5t3 21.5q10 9 21 5t11 -17z" />
    <glyph glyph-name="dotlessi" unicode="&#x131;" horiz-adv-x="338" 
d="M338 202q5 4 9 2.5t4 -5.5t-4 -8q-59 -45 -159.5 -98t-160.5 -63q-41 -9 -57 24q-11 33 -1 74.5t31 72.5q7 9 26 1q14 -5 8 -14q-19 -27 -35 -66.5t-7 -60.5q6 -19 38 -16q56 6 166.5 68t141.5 89z" />
    <glyph glyph-name="OE" unicode="&#x152;" horiz-adv-x="982" 
d="M99 324q49 93 94 157q89 128 170 163q18 9 37 13.5t39.5 5t35.5 -12t19 -37.5q45 -41 30 -136q-12 -64 -34 -128q52 12 93 25q-18 35 -16.5 70t21 72t42 66t47.5 50q100 80 187 67q62 -9 79 -58q20 -62 -51 -135l-2 -2q-70 -61 -262 -134q27 -34 97 -38q33 0 53 3
q11 3 12 -6q1 -7 -8 -9h-2q-94 -22 -192.5 -79t-167.5 -128q-89 -91 -94 -167q-3 -31 10.5 -53.5t43.5 -30.5q42 -13 102 6q94 28 253.5 137t245.5 197q4 4 8 2t5 -6.5t-2 -8.5q-89 -93 -250 -201t-260 -136q-27 -7 -53.5 -9.5t-54.5 1.5t-49.5 20.5t-31.5 43.5q-11 34 0 79
q1 5 5 15q-48 -53 -97 -81q-34 -18 -65.5 -25t-63.5 4.5t-48 46.5q-42 94 43 304q-68 -22 -195.5 -48.5t-168.5 -36.5q-36 -9 -57 -15t-48.5 -22t-36.5 -37q-10 -18 -4 -43.5t24 -33.5q5 -2 6 -6t-2 -7t-9 -4q-29 9 -37.5 43.5t4.5 58.5q8 19 25 33.5t42.5 24t43 14.5
t45.5 11l120 24.5t147 32t109 32.5q16 36 24 52zM70 -54q15 -25 37.5 -31.5t41.5 0t45 21.5q105 59 198 230.5t116 311.5q14 72 -15 114q-6 -38 -42 -87q-109 -149 -331 -236q-19 -42 -33.5 -83.5t-25 -87.5t-9 -86t17.5 -66zM882 519q67 68 45 116q-17 40 -78 36
q-75 -5 -151 -75q-45 -40 -73 -99t-5 -111q202 71 262 133zM438 514q37 53 41 92q-27 22 -69 9q-61 -18 -113 -97q-2 -5 -7 -4.5t-6.5 4.5t0.5 8q53 82 122 105q39 10 70 -5q-9 18 -32 18t-40.5 -7.5t-31.5 -16.5q-14 -10 -29 -22.5t-24.5 -22t-24.5 -27t-20 -24.5
l-21 -28.5t-19 -24.5q-55 -78 -92 -154l-12 -25q96 40 170.5 90.5t137.5 131.5zM396 142q127 119 292 175q-70 11 -96 41q-55 -17 -109 -27q-33 -95 -87 -189z" />
    <glyph glyph-name="oe" unicode="&#x153;" horiz-adv-x="283" 
d="M163 84q65 40 120 125q4 5 6 0q1 -2 0 -4q-59 -89 -123 -128q-28 -19 -57.5 -12.5t-35.5 43.5q-3 16 1 37q-17 -25 -42 -32q-40 -13 -51 26q-12 46 30 83q7 39 38 52q25 9 40 -6.5t14 -40.5q-2 -14 -4 -22q21 30 48 43q15 10 37.5 7t22.5 -23q0 -16 -10 -30
q-27 -41 -89 -49q-12 -37 -7 -57q11 -42 62 -12zM20 193q7 -16 22 -26t31 -10q20 36 23 71q2 21 -11 34t-33 5q-23 -9 -32 -39q22 14 46 7q4 -1 3 -4t-5 -2q-12 0 -25 -12.5t-19 -23.5zM110 161q59 8 81 45q9 14 9 26q0 9 -8 11t-16.5 -1.5t-15.5 -8.5q-34 -26 -50 -72z
M17 184q-9 -20 -7 -44q3 -21 22 -18q22 6 37 28q-38 7 -52 34z" />
    <glyph glyph-name="Scaron" unicode="&#x160;" horiz-adv-x="844" 
d="M689 409l3 -98t2.5 -98.5t-1.5 -91t-8.5 -92t-21 -83t-37 -82t-57 -72t-80.5 -68.5q-73 -46 -150.5 -53t-139 21t-103.5 91.5t-46 151.5q-8 128 72 241.5t202 131.5q106 15 147 -54q35 -58 5 -133q-32 -81 -116 -115q-22 -9 -46 -14q-79 -15 -133 6q-8 2 -3 10q3 6 10 3
q58 -20 132 -2q92 23 133 100q35 68 7 125q-31 65 -122 58q-7 0 -14 -1q-79 -11 -141.5 -69t-92.5 -135t-25 -153q6 -84 47.5 -143t100 -82.5t128 -14t129.5 54.5q56 42 93 96.5t54 106.5t24 121t5.5 121.5l-3.5 127.5t0 120q-79 -49 -170 -78.5t-225.5 -56t-175.5 -37.5
q-36 -8 -58 -14.5t-50.5 -22.5t-40.5 -37q-11 -19 -7.5 -41.5t20.5 -30.5q8 -4 6 -10t-12 -7q-29 9 -33.5 41t11.5 56q10 19 28 33.5t43.5 24t43.5 14.5t46 11q35 8 145.5 29.5t158.5 33.5t127 41.5t142 69.5q5 165 102 249q39 30 73.5 37.5t53 -6.5t24.5 -40t-12 -62
q-18 -38 -80 -88.5t-113 -81.5q-2 -29 -1 -60zM781 699q-80 -70 -89 -210q126 76 172 153q25 57 -3 79.5t-80 -22.5zM834 898q-5 -6 -40 -38q-3 -2 -6 0q-40 36 -41 38q-1 6 4.5 10t10.5 2l30 -42l28 42q5 2 10 -2t4 -10z" />
    <glyph glyph-name="scaron" unicode="&#x161;" horiz-adv-x="152" 
d="M34 271q-17 -27 1 -102q4 -17 5 -22q85 32 112 62q2 2 5 0t1 -5q-28 -29 -116 -64q15 -71 -9 -107q-10 -16 -33 -24q-38 -11 -57.5 17t-0.5 61q14 25 73 50q-3 13 -8 31q-8 30 -11 46t2.5 41.5t26.5 36.5q16 8 32 3.5t24 -20.5q5 -10 5 -26q0 -5 -4 -4q-3 1 -3 4
q2 20 -10 30q-7 6 -17.5 4t-17.5 -12zM-5 25q41 31 22 106q-58 -26 -71 -52q-14 -28 4 -50t45 -4zM92 427q-5 -6 -40 -38q-3 -2 -6 0q-40 36 -41 38q-1 6 4.5 10t10.5 2l30 -42l28 42q5 2 10 -2t4 -10z" />
    <glyph glyph-name="Ydieresis" unicode="&#x178;" horiz-adv-x="731" 
d="M399 629q-66 -30 -145 -51.5t-178.5 -41.5t-146.5 -32q-36 -9 -57 -15t-48.5 -22t-36.5 -37q-10 -18 -4 -43.5t24 -33.5q5 -2 6 -6t-2 -7t-9 -4q-29 9 -37.5 43.5t4.5 58.5q8 19 25 33.5t42.5 24t43 14.5t45.5 11q43 9 122.5 24t125 24.5t108 28.5t113.5 44q28 14 113 68
q47 26 66.5 10.5t12.5 -55.5q-5 -30 -33.5 -82t-57.5 -97.5t-47.5 -92.5t-8.5 -73q21 -53 127 30q4 3 6 4q41 33 176 195l56 68q23 27 36 40.5t23 21.5t15 13q7 6 12.5 5.5t7 -5t-1.5 -10.5l-86 -146l-126 -209q-2 -3 -24 -38l-26 -41l-23 -35.5t-26 -39l-23.5 -33.5
t-27 -37l-25.5 -31t-29 -33q-169 -183 -340 -116q-116 45 -143 171q1 10 9.5 10t10.5 -9q30 -113 130 -152q156 -59 308 118q84 100 181 267l125 211l-1 -1q-131 -159 -178 -196q-101 -82 -156 -50q-22 14 -29 41q0 13 -1.5 20.5t3 22.5t7 24.5t10 25l12 25t13 24.5l13 23
l12 20.5l10.5 17.5q53 92 66 124q16 36 10.5 46t-36.5 -8l-53.5 -33t-63.5 -36zM726 819q0 -9 -5.5 -14t-12.5 -5q-12 0 -17 9.5t3 21.5q10 9 21 5t11 -17zM803 819q0 -9 -5.5 -14t-12.5 -5q-12 0 -17 9.5t3 21.5q10 9 21 5t11 -17z" />
    <glyph glyph-name="Zcaron" unicode="&#x17d;" horiz-adv-x="851" 
d="M590 686q-120 -7 -178 -134q-2 -4 -6.5 -4.5t-7.5 3t-1 8.5q71 152 221 143q70 -5 216 -58h1l1 -1h1h1l1 -1h1h1l1 -1h1h1l1 -1h1l1 -1h1q61 47 121 63q65 17 96 -20q25 -29 3 -60q-25 -38 -100 -38q-43 0 -109 23q-42 -37 -94 -99t-79 -98l-92 -127l-95 -130t-89.5 -110
t-99.5 -103q25 -11 98.5 -50.5t135.5 -69t133 -53.5t122 -14t71 58q2 4 6 4t7 -3.5t1 -7.5q-22 -46 -67.5 -62.5t-95.5 -9t-117.5 33t-118 52l-112.5 59t-87 44.5q-90 -70 -177 -81q-78 -9 -95 35q-14 37 21 74t92 41q52 2 149 -35q99 87 275 333q169 241 272 332l-43.5 16
t-49.5 17.5t-44 13.5t-50.5 12.5t-45.5 6.5zM980 683q-48 -17 -97 -57q48 -18 83 -23q65 -10 88 28q16 26 -4 46q-22 24 -70 6zM111 -140q71 19 142 75q-80 32 -127 35q-55 4 -86 -38q-25 -35 -7 -60q20 -26 78 -12zM851 879q-5 -6 -40 -38q-3 -2 -6 0q-40 36 -41 38
q-1 6 4.5 10t10.5 2l30 -42l28 42q5 2 10 -2t4 -10z" />
    <glyph glyph-name="zcaron" unicode="&#x17e;" horiz-adv-x="403" 
d="M55 237q-30 -28 -43 -45q-2 -4 -6.5 -3t-6.5 5t1 8q14 19 45 47q29 27 65 41t67 6q31 -7 40 -30t0.5 -49.5t-28.5 -47.5q-15 -16 -39 -33q34 -22 36 -68q31 21 105 64.5t112 69.5q4 3 7.5 0.5t3.5 -6.5t-3 -7q-42 -29 -121 -76.5l-105 -63.5q-6 -46 -38 -107
q-41 -81 -112 -170.5t-134 -117.5q-25 -14 -51 -9t-26 37q4 60 77 150q90 106 242 209q12 54 -20 78q-5 -2 -13.5 -6.5l-16 -8.5t-14.5 -7q-12 -7 -18 -8q-46 -18 -54.5 2.5t30.5 44.5q42 25 88 11q19 13 39 44q40 61 2 83q-21 11 -54 -1t-57 -36zM54 105q3 2 20.5 11
t24.5 14q-30 7 -55 -8q-16 -10 -21 -18t3.5 -8t27.5 9zM-97 -314q57 44 113.5 117.5t92.5 144.5q22 46 29 71q-139 -95 -224 -199q-73 -86 -73 -138q0 -15 7.5 -19t18.5 0.5t20 10.5t16 12zM183 408q-5 -6 -40 -38q-3 -2 -6 0q-40 36 -41 38q-1 6 4.5 10t10.5 2l30 -42
l28 42q5 2 10 -2t4 -10z" />
    <glyph glyph-name="circumflex" unicode="&#x2c6;" horiz-adv-x="116" 
d="M21 599q0 3 19.5 36t26.5 44q7 4 10 -2q9 -37 18 -96q1 -4 -1 -6t-5.5 -1t-4.5 5l-19 56l-37 -44q-1 -4 -4.5 -1t-2.5 9z" />
    <glyph glyph-name="caron" unicode="&#x2c7;" horiz-adv-x="129" 
d="M108 656q-5 -6 -40 -38q-3 -2 -6 0q-40 36 -41 38q-1 6 4.5 10t10.5 2l30 -42l28 42q5 2 10 -2t4 -10z" />
    <glyph glyph-name="breve" unicode="&#x2d8;" horiz-adv-x="101" 
d="M73 596q0 1 1.5 2t3.5 0.5t3 -2.5q-1 -20 -16.5 -28t-30 0.5t-14.5 27.5q0 2 1.5 2.5t3.5 0t3 -2.5q0 -15 11 -21.5t22.5 -0.5t11.5 22z" />
    <glyph glyph-name="dotaccent" unicode="&#x2d9;" horiz-adv-x="75" 
d="M37 479q7 0 12 -5q6 -8 6 -13q0 -7 -6 -11q-5 -5 -12 -5q-6 0 -11 5q-6 3 -6 11q0 7 6 13q5 5 11 5z" />
    <glyph glyph-name="ring" unicode="&#x2da;" horiz-adv-x="103" 
d="M51 627q15 0 23.5 -9t8.5 -23q0 -20 -16 -28.5t-31.5 0t-15.5 28.5q0 14 9 23t22 9zM51 618q-10 0 -16.5 -7t-6.5 -17q0 -14 11.5 -19.5t23 0t11.5 19.5q0 24 -23 24z" />
    <glyph glyph-name="ogonek" unicode="&#x2db;" horiz-adv-x="124" 
d="M69 -4q0 6 4.5 8.5t9.5 0t5 -7.5q0 -36 -8 -37h-10q-9 -1 -13 -3q-35 -22 -8 -33q16 -7 45 -5q6 1 8 -2.5t0 -7.5t-6 -4q-65 -11 -74 20q-7 23 18 41q6 4 13 7q3 1 8 1t8 2v20z" />
    <glyph glyph-name="tilde" unicode="&#x2dc;" horiz-adv-x="199" 
d="M29 623q-4 -1 -8 4q18 20 41.5 22t44.5 -7q17 -5 25 -7t20 -1t19 8q4 2 6.5 -0.5t-1.5 -6.5q-25 -26 -87 -12q-17 6 -25 8t-19 1t-16 -9z" />
    <glyph glyph-name="hungarumlaut" unicode="&#x2dd;" horiz-adv-x="181" 
d="M22 616l48 61q4 2 10 -1.5t8 -8.5t-1 -8l-57 -51q-2 -2 -5 -1.5t-4.5 3.5t1.5 6zM93 616l48 61q4 2 10 -1.5t8 -8.5t-1 -8l-57 -51q-2 -2 -5 -1.5t-4.5 3.5t1.5 6z" />
    <glyph glyph-name="endash" unicode="&#x2013;" horiz-adv-x="167" 
d="M30 370q-7 0 -9 4t0.5 8.5t8.5 4.5h108q8 0 8 -8.5t-8 -8.5h-108z" />
    <glyph glyph-name="emdash" unicode="&#x2014;" horiz-adv-x="325" 
d="M30 383q-7 0 -9 4.5t0.5 8.5t8.5 4q37 0 135.5 0.5t130.5 0.5q8 0 8 -8.5t-8 -8.5q-65 0 -158 -0.5t-108 -0.5z" />
    <glyph glyph-name="quoteleft" unicode="&#x2018;" horiz-adv-x="77" 
d="M29 351q-9 16 5 32q8 8 14.5 13t9.5 6l3 1l-3 -4l-7 -9.5t-4 -7.5q18 -15 8 -31q-5 -6 -13 -6.5t-13 6.5z" />
    <glyph glyph-name="quoteright" unicode="&#x2019;" horiz-adv-x="77" 
d="M45 376q9 -16 -5 -32q-8 -8 -14.5 -13t-9.5 -6l-3 -1l3 4l7 9.5t4 7.5q-18 15 -8 31q5 6 13 6.5t13 -6.5z" />
    <glyph glyph-name="quotesinglbase" unicode="&#x201a;" horiz-adv-x="77" 
d="M47 113q9 -16 -5 -32q-8 -8 -14.5 -13t-9.5 -6l-3 -1l3 4l7 9.5t4 7.5q-18 15 -8 31q5 6 13 6.5t13 -6.5z" />
    <glyph glyph-name="quotedblleft" unicode="&#x201c;" horiz-adv-x="116" 
d="M57 359q-9 16 5 32q8 8 14.5 13t9.5 6l3 1l-3 -4l-7 -9.5t-4 -7.5q18 -15 8 -31q-5 -6 -13 -6.5t-13 6.5zM18 359q-9 16 5 32q8 8 14.5 13t9.5 6l3 1l-3 -4l-7 -9.5t-4 -7.5q18 -15 8 -31q-5 -6 -13 -6.5t-13 6.5z" />
    <glyph glyph-name="quotedblright" unicode="&#x201d;" horiz-adv-x="116" 
d="M48 379q9 -16 -5 -32q-8 -8 -14.5 -13t-9.5 -6l-3 -1l3 4l7 9.5t4 7.5q-18 15 -8 31q5 6 13 6.5t13 -6.5zM87 379q9 -16 -5 -32q-8 -8 -14.5 -13t-9.5 -6l-3 -1l3 4l7 9.5t4 7.5q-18 15 -8 31q5 6 13 6.5t13 -6.5z" />
    <glyph glyph-name="quotedblbase" unicode="&#x201e;" horiz-adv-x="116" 
d="M89 114q9 -16 -5 -32q-8 -8 -14.5 -13t-9.5 -6l-3 -1l3 4l7 9.5t4 7.5q-18 15 -8 31q5 6 13 6.5t13 -6.5zM50 114q9 -16 -5 -32q-8 -8 -14.5 -13t-9.5 -6l-3 -1l3 4l7 9.5t4 7.5q-18 15 -8 31q5 6 13 6.5t13 -6.5z" />
    <glyph glyph-name="bullet" unicode="&#x2022;" horiz-adv-x="133" 
d="M111 223q0 -21 -14 -34.5t-32 -13.5q-30 0 -42.5 24t7.5 55q25 23 53 12t28 -43z" />
    <glyph glyph-name="ellipsis" unicode="&#x2026;" horiz-adv-x="285" 
d="M57 101q0 -9 -5.5 -14t-12.5 -5q-12 0 -17 9.5t3 21.5q10 9 21 5t11 -17zM134 101q0 -9 -5.5 -14t-12.5 -5q-12 0 -17 9.5t3 21.5q10 9 21 5t11 -17zM211 101q0 -9 -5.5 -14t-12.5 -5q-12 0 -17 9.5t3 21.5q10 9 21 5t11 -17z" />
    <glyph glyph-name="perthousand" unicode="&#x2030;" horiz-adv-x="460" 
d="M322 638q7 3 11.5 -2.5t0.5 -12.5l-294 -563q-6 -11 -16 -7q-7 4 -2 12l294 563q-44 -24 -92 -44q-5 -64 -41 -106q-25 -29 -54 -26q-21 1 -32 19t-10.5 39t2.5 40q16 74 60 88q10 13 25.5 17.5t30.5 -4.5q21 -17 19 -60q26 10 55.5 25.5t42.5 21.5zM274 252
q17 -13 18.5 -46.5t-5.5 -52.5q-10 -43 -35 -73q-27 -29 -54 -28q-21 2 -32 20.5t-10.5 39.5t1.5 39q16 75 61 89q10 14 25.5 18t30.5 -6zM273 160q4 14 3.5 45t-9.5 42q-14 15 -31 -5h6q3 0 2 -4q-1 -3 -3 -3q-8 0 -12 -1q-7 -9 -9.5 -23t3.5 -25q5 -8 18 -4q5 2 4.5 8
t2.5 8q5 2 8 -1.5t-1 -9.5q-10 -11 -23.5 -12t-22 13t-1.5 34q-22 -22 -32 -78q-6 -15 -1 -48.5t24 -36.5q14 -2 28 9t22 25q15 24 24 67zM207 580q-30 -8 -52.5 2t-15.5 39q-25 -25 -33 -77q-5 -14 -0.5 -48.5t24.5 -37.5q14 -2 28 9t22 25q19 33 27 88zM207 586
q0 49 -10 60q-8 6 -17 3.5t-15 -9.5h6q3 0 3 -2.5t-3 -2.5q-5 0 -13 -2q-16 -31 -0.5 -43.5t49.5 -3.5zM421 252q17 -13 18.5 -46.5t-5.5 -52.5q-10 -43 -35 -73q-27 -29 -54 -28q-21 2 -32 20.5t-10.5 39.5t1.5 39q16 75 61 89q10 14 25.5 18t30.5 -6zM420 160q4 14 3.5 45
t-9.5 42q-14 15 -31 -5h6q3 0 2 -4q-1 -3 -3 -3q-8 0 -12 -1q-7 -9 -9.5 -23t3.5 -25q5 -8 18 -4q5 2 4.5 8t2.5 8q5 2 8 -1.5t-1 -9.5q-10 -11 -23.5 -12t-22 13t-1.5 34q-22 -22 -32 -78q-6 -15 -1 -48.5t24 -36.5q14 -2 28 9t22 25q15 24 24 67z" />
    <glyph glyph-name="guilsinglleft" unicode="&#x2039;" horiz-adv-x="271" 
d="M78 208l150 -115q4 -4 1 -9t-9 -1l-199 117q-9 6 -3 13l218 114q6 4 9.5 -1.5t-0.5 -10.5q-80 -55 -167 -107z" />
    <glyph glyph-name="guilsinglright" unicode="&#x203a;" horiz-adv-x="273" 
d="M189 201l-148 115q-4 4 -1 9t9 1l198 -117q8 -5 2 -13l-219 -114q-6 -4 -9.5 1.5t0.5 10.5q85 57 168 107z" />
    <glyph glyph-name="fraction" unicode="&#x2044;" horiz-adv-x="295" 
d="M256 701h16q3 0 3 -3q0 -5 -105 -291t-125 -337q0 -6 -4 -6h-15q-2 0 -4 1.5t-2 3t1 2.5l228 628q1 0 3.5 1t3.5 1z" />
    <glyph glyph-name="Euro" unicode="&#x20ac;" horiz-adv-x="548" 
d="M63 255h-32q-14 0 -9 14q4 15 20 15h27l36 100h-25q-14 0 -9 14q4 15 20 15h27q80 164 203 232q75 41 139 24q52 -14 66 -92l-37 1q-2 60 -39 76q-40 19 -104 -19q-92 -58 -169 -222h127q14 0 8 -15q-5 -14 -17 -14h-132q-25 -65 -35 -100h127q14 0 8 -15q-5 -14 -17 -14
h-127q-23 -92 -14 -144q6 -45 38 -59.5t72 2.5q67 25 134 125l35 -1q-29 -38 -46.5 -59t-49 -45t-67.5 -36q-52 -19 -96.5 -1.5t-62.5 64.5q-22 56 1 154z" />
    <glyph glyph-name="minus" unicode="&#x2212;" horiz-adv-x="265" 
d="M30 383q-7 0 -9 4.5t0.5 8.5t8.5 4h206q8 0 8 -8.5t-8 -8.5h-206z" />
    <glyph glyph-name="a.001" unicode="&#xe000;" horiz-adv-x="422" 
d="M-608 307q3 -4 0.5 -8t-6.5 -4t-7 4q-72 109 -204 120q-90 8 -171.5 -37.5t-132.5 -122.5t-63 -165q-17 -120 53.5 -203.5t222.5 -85.5q50 0 88 5q217 30 483 174q172 92 325 205q26 20 42 22q43 6 43 -40l70 72q5 5 14 4.5t16 -5.5t4 -12q-3 -6 -10.5 -18.5l-11.5 -19.5
q-51 -88 -66 -127q-5 -13 -7.5 -22t-4 -20.5t2.5 -15.5t13 -7t26 5q63 21 155.5 81.5t155.5 115.5q6 5 11 -1.5t-1 -11.5q-55 -47 -161.5 -117t-156.5 -84q-49 -13 -62.5 9.5t-1.5 65.5q15 64 55 126l-123 -121q-30 -25 -51 -16.5t-16 35.5q5 22 22 50q-142 -97 -275 -168
q-279 -146 -487 -174q-37 -5 -91 -5q-82 0 -144 26t-96 69.5t-47.5 97.5t-5.5 114q20 144 131.5 247t253.5 90q66 -5 122.5 -38.5t93.5 -88.5zM52 158q0 24 -8 31.5t-28 -8.5q-43 -40 -64 -85q-9 -22 -5.5 -28t24.5 12q53 49 81 78z" />
    <glyph glyph-name="b.001" unicode="&#xe001;" horiz-adv-x="373" 
d="M-536 453q5 -8 -6 -11q-6 -2 -8 4q-28 57 -76.5 94.5t-110.5 51.5q-133 30 -251.5 -55t-154.5 -218q-18 -54 -10.5 -107.5t33 -97t80.5 -75.5t132 -43q49 -7 88 -7q222 1 501 109q164 60 346 158q95 159 190 243q44 37 74 46q55 21 81.5 -8t-10.5 -80
q-34 -44 -123.5 -101.5t-164.5 -94.5q-55 -88 -95 -183h4q81 101 120 125q28 18 46 7t13 -44q-4 -26 -32 -69q171 44 243 105q7 6 12 -2q4 -6 -1 -9q-89 -76 -270 -113q-39 -42 -90.5 -65.5t-93.5 -17.5q-28 1 -42 17t-5 34t41 25q2 0 6 0.5t5 0.5q28 69 77 157
q-169 -89 -326 -147q-294 -108 -505 -108q-40 0 -91 7q-159 22 -221 120.5t-29 222.5q39 140 163.5 227.5t262.5 55.5q65 -13 117 -53.5t81 -100.5zM305 528q-26 -12 -73 -55q-68 -71 -142 -185q209 113 259 179q29 38 13.5 58t-57.5 3zM5 80q65 6 72 7q33 40 47 73
q15 39 -1 36q-5 -1 -12 -5q-37 -26 -106 -111zM-77 38q0 2 2 8t3 10q-23 -5 -30.5 -15.5t2 -19.5t30.5 -9q61 -4 128 57l-66 -6q-22 -25 -36 -46q-7 -9 -22 1t-11 20z" />
    <glyph glyph-name="c.001" unicode="&#xe002;" horiz-adv-x="347" 
d="M-566 344q3 -4 0.5 -8t-6.5 -4t-7 4q-72 109 -204 120q-90 8 -171.5 -37.5t-132.5 -122.5t-63 -165q-17 -120 53.5 -203.5t222.5 -85.5q50 0 88 5q217 30 483 174q172 92 325 205l4 3q12 8 23.5 12.5t24 6t22.5 -5.5t14 -23q1 -4 -2.5 -6.5t-7.5 -1.5t-5 6q-6 20 -35 -1
q-2 -1 -3 -2q-25 -18 -54 -63t-34 -80q-12 -73 96 -28q7 2 26 11q159 77 256 148q4 3 8 1t4.5 -6t-3.5 -7q-98 -73 -261 -151q-127 -59 -155 0q-22 50 33 132q-130 -91 -269 -165q-279 -146 -487 -174q-37 -5 -91 -5q-82 0 -144 26t-96 69.5t-47.5 97.5t-5.5 114
q20 144 131.5 247t253.5 90q66 -5 122.5 -38.5t93.5 -88.5z" />
    <glyph glyph-name="d.001" unicode="&#xe003;" horiz-adv-x="444" 
d="M-599 313q3 -4 0.5 -8t-6.5 -4t-7 4q-72 109 -204 120q-90 8 -171.5 -37.5t-132.5 -122.5t-63 -165q-17 -120 53.5 -203.5t222.5 -85.5q51 0 88 5q217 30 483 174q157 83 316 198q22 20 41 23q42 8 47 -40l60 70q93 170 194 258q43 36 75 46q54 21 80.5 -8t-10.5 -80
q-36 -46 -127 -104.5t-155 -82.5l-1 -2q-29 -49 -63 -125t-42 -126q-7 -40 6.5 -53.5t58.5 5.5q120 58 300 233q2 2 6 2t5 -2q5 -6 0 -11q-73 -72 -158 -141.5t-149 -96.5q-60 -22 -82.5 -0.5t-15.5 74.5q10 75 50 157q-70 -79 -106 -115q-28 -24 -49.5 -15.5t-19.5 33.5
q2 24 19 56q-133 -93 -273 -168q-279 -146 -487 -174q-38 -5 -91 -5q-82 0 -144 26t-96 69.5t-47.5 97.5t-5.5 114q20 144 131.5 247t253.5 90q66 -5 122.5 -38.5t93.5 -88.5zM411 528q-25 -11 -73 -55q-58 -59 -138 -179q67 30 144 79.5t111 93.5q28 38 13 58t-57 3z
M56 159q-6 54 -38 22q-42 -42 -57 -85q-7 -22 -2.5 -28t24.5 12z" />
    <glyph glyph-name="e.001" unicode="&#xe004;" horiz-adv-x="329" 
d="M-579 332q3 -4 0.5 -8t-6.5 -4t-7 4q-72 109 -204 120q-90 8 -171.5 -37.5t-132.5 -122.5t-63 -165q-17 -120 53.5 -203.5t222.5 -85.5q51 0 88 5q217 30 483 174q163 86 323 204l20 16q35 22 58.5 17t22 -32t-33.5 -52q-37 -26 -73 -36q-1 0 -6.5 -1t-7.5 -2
q-30 -54 -17 -82q4 -7 8.5 -11t12 -5t12.5 -1.5t15 2.5l13.5 4t13.5 5t11 4q124 52 273 162q4 3 8 1t4.5 -6t-2.5 -7q-139 -105 -278 -165q-72 -29 -106 -5q-27 25 -21.5 63t33.5 82q-136 -95 -276 -170q-279 -146 -487 -174q-38 -5 -91 -5q-82 0 -144 26t-96 69.5
t-47.5 97.5t-5.5 114q20 144 131.5 247t253.5 90q66 -5 122.5 -38.5t93.5 -88.5zM56 214q-27 -19 -59 -73q36 9 68 33q30 23 28 43q-2 17 -25 5q-6 -3 -12 -8z" />
    <glyph glyph-name="f.001" unicode="&#xe005;" horiz-adv-x="343" 
d="M-560 390q4 -6 -4 -10t-10 4q-59 116 -190 141q-89 18 -175 -18t-145 -107t-80 -158q-16 -54 -7.5 -107.5t35 -96t82.5 -73.5t133 -40q47 -5 87 -5q217 7 499 120q165 66 332 159q15 27 35 56q124 184 203 229q49 22 69.5 -3.5t-13.5 -84.5q-40 -68 -111 -119
q-66 -49 -141 -78l-1 -3q-2 -2 -3 -4q-41 -64 -78 -136l5 -26q81 9 199 63.5t182 108.5q3 3 7.5 1t5.5 -5.5t-2 -6.5q-71 -59 -187.5 -112.5t-202.5 -62.5q7 -58 -14.5 -135.5t-58.5 -112.5q-33 -28 -50.5 -15.5t-15.5 54.5q4 60 74 214q-39 23 -26 51q6 15 24.5 17t31.5 -6
l49 87q-149 -82 -307 -145q-289 -115 -503 -120q-33 -1 -91 5q-82 9 -141 42t-86.5 79t-37 103t6.5 114q37 141 158.5 230.5t261.5 61.5q65 -12 117.5 -51.5t83.5 -98.5zM54 222q71 32 116 68q69 48 109 114q27 46 11 62q-12 12 -40 -7l-16.5 -12.5t-17.5 -15l-15.5 -15
t-16 -18t-14.5 -17t-15.5 -18.5t-13.5 -17l-14 -18t-12 -16q-35 -48 -61 -90zM-120 -221q37 36 56 107.5t12 127.5q-2 0 -6.5 -0.5t-6.5 -0.5q-66 -135 -82 -212q-3 -15 -2.5 -24t7 -12t22.5 14zM-96 36l11 20q1 2 3 6.5t3 6.5q-7 4 -18.5 4t-14.5 -6q-7 -16 16 -31zM-53 30
l-1 6l-3 -6h4z" />
    <glyph glyph-name="g.001" unicode="&#xe006;" horiz-adv-x="354" 
d="M-608 307q3 -4 0.5 -8t-6.5 -4t-7 4q-72 109 -204 120q-90 8 -171.5 -37.5t-132.5 -122.5t-63 -165q-17 -120 53.5 -203.5t222.5 -85.5q50 0 88 5q217 30 483 174q164 88 329 208q20 16 37 19q42 8 47 -40l63 73q0 1 5 3q11 3 23 -0.5t8 -11.5l-11 -25q-47 -111 -75 -171
q13 7 59.5 30.5t74.5 39t68.5 41.5t70.5 52q4 3 8.5 1.5t5 -5.5t-2.5 -8q-34 -29 -79.5 -58.5t-70.5 -43t-83 -42l-62 -30.5q-159 -347 -272 -394q-28 -11 -53.5 -1t-31.5 40q-14 57 31 125q36 55 86 99t85 64.5t107 58.5l87 189l-4 -8v2q-80 -90 -112 -122
q-28 -24 -49 -15.5t-19 33.5q2 24 19 56q-145 -101 -282 -174q-279 -146 -487 -174q-37 -5 -91 -5q-82 0 -144 26t-96 69.5t-47.5 97.5t-5.5 114q20 144 131.5 247t253.5 90q66 -5 122.5 -38.5t93.5 -88.5zM11 -16q-90 -47 -147.5 -90t-105.5 -116q-42 -66 -30 -113
q11 -50 62 -21q29 16 60.5 55.5t65.5 100t50.5 93.5zM55 159q-2 23 -10 30.5t-27 -8.5q-43 -43 -56 -85q-7 -23 -3.5 -28.5t23.5 12.5q27 27 73 79z" />
    <glyph glyph-name="h.001" unicode="&#xe007;" horiz-adv-x="399" 
d="M-530 458q4 -6 -3.5 -10t-10.5 4q-28 55 -78 92t-112 49q-134 26 -250.5 -61.5t-149.5 -221.5q-16 -54 -7 -107.5t35.5 -96t82.5 -73.5t133 -40q46 -6 88 -5q218 7 499 121q165 67 329 160l3 5q69 147 153 229q34 34 68 47q52 19 81.5 -9.5t-1.5 -78.5q-29 -47 -113 -106
t-146 -83q-37 -73 -65 -158l26 36q14 23 54 71q26 32 56.5 24t24.5 -57q-3 -19 -15.5 -44.5t-33 -60.5l-26.5 -45l-8.5 -17t-7 -15.5t-5.5 -15t-1.5 -11.5t3 -8t9.5 -1.5t17 4.5t26 13q52 30 137.5 98t136.5 116q4 3 8.5 1.5t6 -5t-1.5 -7.5q-199 -171 -281 -218
q-56 -32 -76 -8t2 78q6 17 39.5 76.5t36.5 86.5q2 25 -7.5 23.5t-25.5 -19.5q-35 -39 -55 -69q-3 -4 -13.5 -19t-15.5 -21q-25 -45 -49 -44q-18 0 -12 25q0 2 1 4q33 97 58 157q-156 -87 -312 -150q-295 -115 -503 -120q-43 -1 -91 5q-159 18 -223.5 114.5t-34.5 221.5
q36 142 157.5 232t261.5 62q65 -13 117.5 -52t83.5 -98zM267 530q-29 -10 -67 -55q-57 -66 -116 -179q65 33 135 82.5t98 92.5q24 38 6.5 57.5t-56.5 1.5z" />
    <glyph glyph-name="i.001" unicode="&#xe008;" horiz-adv-x="338" 
d="M-592 316q3 -4 0.5 -8t-6.5 -4t-7 4q-72 109 -204 120q-90 8 -171.5 -37.5t-132.5 -122.5t-63 -165q-17 -120 53.5 -203.5t222.5 -85.5q50 0 88 5q217 30 483 174q164 88 329 208q7 9 26 1q14 -5 8 -14q-19 -27 -35 -66.5t-7 -60.5q6 -19 38 -16q56 6 166.5 68t141.5 89
q5 4 9 2.5t4 -5.5t-4 -8q-59 -45 -159.5 -98t-160.5 -63q-41 -9 -57 24q-19 40 12 113q-147 -106 -304 -189q-279 -146 -487 -174q-37 -5 -91 -5q-82 0 -144 26t-96 69.5t-47.5 97.5t-5.5 114q20 144 131.5 247t253.5 90q66 -5 122.5 -38.5t93.5 -88.5zM77 285
q16 -16 -2 -33q-17 -16 -33 0t2 33q17 17 33 0z" />
    <glyph glyph-name="j.001" unicode="&#xe009;" horiz-adv-x="264" 
d="M-586 334q3 -4 0.5 -8t-6.5 -4t-7 4q-72 109 -204 120q-90 8 -171.5 -37.5t-132.5 -122.5t-63 -165q-17 -120 53.5 -203.5t222.5 -85.5q50 0 88 5q217 30 483 174q163 86 326 205q8 11 28 6q14 -4 10 -12q-8 -21 -11 -25q-13 -32 -64 -146q19 10 83.5 40t119 60.5
t95.5 62.5q8 5 13 -2q4 -5 -2 -9q-46 -35 -102.5 -67t-131 -67t-86.5 -41q-161 -347 -273 -394q-27 -11 -52.5 -1t-32.5 40q-14 58 32 125q28 42 58.5 74.5t71 60.5t67.5 43.5t81 43.5q67 142 83 179q-149 -107 -306 -191q-279 -146 -487 -174q-37 -5 -91 -5q-82 0 -144 26
t-96 69.5t-47.5 97.5t-5.5 114q20 144 131.5 247t253.5 90q66 -5 122.5 -38.5t93.5 -88.5zM-104 -16q-90 -46 -148 -89.5t-106 -116.5q-42 -66 -30 -113q6 -25 24 -30t38 9q12 7 25.5 19t25 24.5t26 33l24.5 35t24.5 40.5l22 40l22 42l19.5 38l18 37zM62 285q6 -7 6 -16.5
t-6 -16.5q-18 -16 -34 0t0 33q7 7 16.5 7t17.5 -7z" />
    <glyph glyph-name="k.001" unicode="&#xe00a;" horiz-adv-x="405" 
d="M-523 433q2 -4 -0.5 -7.5t-7 -3.5t-6.5 4q-31 55 -81.5 89.5t-112.5 45.5q-68 11 -134.5 -9.5t-117.5 -62.5t-88.5 -101t-50.5 -124q-15 -55 -4 -107.5t39 -94.5t85 -71t134 -36q68 -2 88 -1q226 15 495 138q157 67 310 162q61 106 132 187t135 104q50 16 73 2.5
t15.5 -48.5t-41.5 -69q-47 -44 -125.5 -92t-131.5 -68q-63 -99 -102 -199q39 44 85 87q62 57 91 63q31 6 41 -17q8 -22 -20 -55q-19 -18 -49 -31.5t-55 -12.5q0 -1 -0.5 -3t-0.5 -4q0 -1 -2 -8t-3 -12q-12 -58 -2 -88q5 -13 11.5 -18t13 -3.5t18.5 7.5q56 24 151.5 98
t145.5 128q3 4 7.5 2.5t5.5 -5t-1 -7.5q-50 -55 -146.5 -129.5t-155.5 -101.5q-62 -27 -84 16q-11 26 -3 80q3 16 14 57q-60 -60 -80 -90q-6 -10 -22 -0.5t-12 19.5q25 77 81 182q-142 -84 -288 -149q-287 -126 -499 -137q-20 -1 -91 1q-82 7 -142 37.5t-89.5 76t-41 101.5
t3.5 114q20 91 79 167t147.5 115.5t182.5 23.5q65 -10 119 -47t87 -95zM307 528q-79 -35 -210 -234q55 25 122.5 67t108.5 81q36 35 39 70q2 33 -38 24q-10 -3 -22 -8zM157 189q5 23 -22 6q-31 -20 -59 -50q-2 -1 -22 -19q26 -7 61.5 15t41.5 48z" />
    <glyph glyph-name="l.001" unicode="&#xe00b;" horiz-adv-x="356" 
d="M-530 450q5 -8 -4 -11q-6 -3 -9 4q-61 115 -191 140q-89 16 -175 -21t-144 -108.5t-79 -157.5q-16 -55 -6.5 -108t36.5 -95.5t83 -72.5t133 -39q51 -5 88 -4q217 8 498 125q157 64 331 164q87 151 180 233q41 36 73 46q56 21 82.5 -8t-10.5 -80q-36 -46 -127 -104.5
t-155 -82.5l-2 -2q-28 -48 -62 -124t-42 -127q-8 -40 6 -53.5t58 5.5q74 35 168 103t156 129q4 3 8.5 1.5t5 -5t-2.5 -7.5q-60 -60 -161.5 -133.5t-169.5 -103.5q-41 -18 -64 -10.5t-31 29t-4 55.5q13 90 78 210q-164 -91 -309 -151q-297 -118 -502 -124q-40 -1 -91 4
q-82 8 -141.5 40t-87.5 78t-38 102.5t6 113.5q22 91 83.5 165.5t150.5 112t182 19.5q65 -11 118 -49.5t84 -97.5zM299 528q-30 -14 -73 -55q-65 -67 -137 -179q67 30 144 79.5t110 93.5q29 38 13.5 58t-57.5 3z" />
    <glyph glyph-name="m.001" unicode="&#xe00c;" horiz-adv-x="624" 
d="M-591 318q3 -4 0.5 -8t-6.5 -4t-7 4q-72 109 -204 120q-90 8 -171.5 -37.5t-132.5 -122.5t-63 -165q-17 -120 53.5 -203.5t222.5 -85.5q51 0 88 5q217 30 483 174q87 46 223 145t176 125q27 19 44.5 9.5t10.5 -44.5q-4 -22 -20 -66t-28 -67l51 61q34 40 56.5 32t14.5 -53
l-5 -36q-2 -13 3 -12q3 1 16 16q5 5 15.5 17.5t16.5 18.5q34 45 64 76q29 28 52 18t19 -49q-2 -20 -16 -45.5t-40.5 -62t-31.5 -44.5q-7 -10 -11 -16.5t-9 -16.5t-7 -15t-3 -11.5t2.5 -8t9.5 -1.5t17.5 4.5t27.5 13.5q52 29 167 114q74 54 137 105q3 4 7.5 2.5t5 -5.5
t-2.5 -8q-223 -178 -310 -223q-60 -33 -78 -8.5t12 78.5q8 16 48.5 75.5t47.5 86.5q8 29 -8 23q-10 -4 -25 -19q-19 -19 -64 -73q-18 -24 -33 -38q-34 -37 -54 -18q-7 5 -10 19q-3 16 0 44q7 25 3 27.5t-23 -18.5q-61 -72 -83 -89q-20 -17 -29.5 -12t0.5 29q65 135 75 161
q9 23 1.5 26t-25.5 -11l-120 -88t-148.5 -105t-131.5 -78q-279 -146 -487 -174q-38 -5 -91 -5q-82 0 -144 26t-96 69.5t-47.5 97.5t-5.5 114q20 144 131.5 247t253.5 90q66 -5 122.5 -38.5t93.5 -88.5z" />
    <glyph glyph-name="n.001" unicode="&#xe00d;" horiz-adv-x="453" 
d="M-588 322q3 -4 0.5 -8t-6.5 -4t-7 4q-72 109 -204 120q-90 8 -171.5 -37.5t-132.5 -122.5t-63 -165q-17 -120 53.5 -203.5t222.5 -85.5q50 0 88 5q217 30 483 174q119 63 265 165q28 19 68.5 51.5t65.5 49.5q27 20 45.5 10.5t9.5 -43.5q-6 -22 -15.5 -46.5t-26 -62.5
l-20.5 -47l51 61q32 38 56.5 30.5t16.5 -51.5q-8 -37 -5 -64q4 -35 56 -5q110 69 211 155q3 3 7.5 1t5 -5.5t-2.5 -7.5q-108 -92 -213 -156q-64 -39 -90 9q-18 31 -9 76q6 24 2.5 27.5t-22.5 -19.5q-50 -60 -81 -88q-25 -20 -32.5 -13t3.5 35q13 32 44 90t42 86q9 23 2 25.5
t-26 -10.5l-64.5 -49.5t-71.5 -53.5q-159 -109 -265 -165q-279 -146 -487 -174q-37 -5 -91 -5q-82 0 -144 26t-96 69.5t-47.5 97.5t-5.5 114q20 144 131.5 247t253.5 90q66 -5 122.5 -38.5t93.5 -88.5z" />
    <glyph glyph-name="o.001" unicode="&#xe00e;" horiz-adv-x="273" 
d="M-599 313q3 -4 0.5 -8t-6.5 -4t-7 4q-72 109 -204 120q-90 8 -171.5 -37.5t-132.5 -122.5t-63 -165q-17 -120 53.5 -203.5t222.5 -85.5q51 0 88 5q217 30 483 174q155 83 326 205q18 18 39 24q13 31 36.5 35.5t41 -18t14.5 -59.5q-5 -43 -26 -79q42 8 92 41q30 19 86 63
q6 4 10.5 -1.5t-1.5 -10.5q-43 -37 -87 -64q-67 -44 -111 -44q-31 -45 -66 -52q-19 -6 -47 6q-26 16 -28.5 50.5t15.5 65.5q-145 -101 -287 -177q-279 -146 -487 -174q-38 -5 -91 -5q-82 0 -144 26t-96 69.5t-47.5 97.5t-5.5 114q20 144 131.5 247t253.5 90
q66 -5 122.5 -38.5t93.5 -88.5zM37 193q-13 -79 30 -93q3 -2 9 -2q3 6 4 7q22 39 25 73q3 36 -18 55t-39 -12q17 -1 28.5 -12.5t12.5 -28.5q0 -5 -4 -7t-8 0t-4 7q-1 15 -12 18t-24 -5zM14 45q27 7 52 38l-3 2q-27 8 -37.5 35.5t-6.5 59.5q-22 -22 -35 -61t-2 -61
q10 -18 32 -13z" />
    <glyph glyph-name="p.001" unicode="&#xe00f;" horiz-adv-x="311" 
d="M-588 322q3 -4 0.5 -8t-6.5 -4t-7 4q-72 109 -204 120q-90 8 -171.5 -37.5t-132.5 -122.5t-63 -165q-17 -120 53.5 -203.5t222.5 -85.5q50 0 88 5q217 30 483 174q154 82 327 206q10 11 29 5q12 -4 7 -13l-24 -55q19 18 62 54q22 18 44.5 23t39.5 -9q12 -11 8.5 -29.5
t-11 -34t-18.5 -30.5q39 10 60 16.5t54 25t58 44.5q5 5 10.5 -0.5t0.5 -10.5q-29 -31 -69 -51.5t-60.5 -26t-70.5 -17.5q-50 -57 -90 -71q-33 -10 -43.5 2.5t19.5 39.5q33 25 73 36l7 6q24 29 39 58q20 39 -2 38q-15 -1 -40 -21t-64 -57l-24 -23q-2 -4 -22 -48t-27 -58
l-27.5 -56.5t-31.5 -63l-30.5 -56t-34 -56.5t-32.5 -44.5t-34 -39.5q-45 -44 -77 -39q-31 6 -11 62q11 30 48 88l38.5 54t53.5 73q56 73 128 148l51 107q-157 -112 -307 -191q-279 -146 -487 -174q-37 -5 -91 -5q-82 0 -144 26t-96 69.5t-47.5 97.5t-5.5 114
q20 144 131.5 247t253.5 90q66 -5 122.5 -38.5t93.5 -88.5zM-83 23q-48 -52 -94 -113q-53 -69 -91 -127q-36 -50 -47 -85q-16 -43 1 -41q14 3 40 30q15 15 30 35.5t31.5 47l28.5 47.5t29 55.5l25 51.5l25.5 54zM14 38q14 9 47 42q-24 -7 -46 -27q-19 -20 -12 -21q3 -1 11 6z
" />
    <glyph glyph-name="q.001" unicode="&#xe010;" horiz-adv-x="351" 
d="M-603 311q3 -4 0.5 -8t-6.5 -4t-7 4q-72 109 -204 120q-90 8 -171.5 -37.5t-132.5 -122.5t-63 -165q-17 -120 53.5 -203.5t222.5 -85.5q51 0 88 5q217 30 483 174q162 86 323 203q19 17 38 20q41 7 46 -40l64 73q7 7 16 6.5t15 -7t3 -13.5q-22 -47 -118 -239q59 9 121 48
q53 31 103 77t80 86q5 6 11 3q3 -2 3.5 -6t-1.5 -5q-29 -41 -80.5 -88.5t-107.5 -80.5q-72 -43 -138 -52q-4 -11 -9 -18q9 -210 -70 -297q-18 -19 -35.5 -20t-28.5 23q-9 28 12.5 98t44.5 121t45 95q-28 5 -23 28q4 19 21 24q13 3 23 -7q63 121 85 169q-72 -81 -110 -120
q-28 -24 -49.5 -15.5t-19.5 33.5q1 22 20 56q-140 -97 -277 -170q-279 -146 -487 -174q-38 -5 -91 -5q-82 0 -144 26t-96 69.5t-47.5 97.5t-5.5 114q20 144 131.5 247t253.5 90q66 -5 122.5 -38.5t93.5 -88.5zM-51 -329q67 74 65 253q-65 -136 -90 -209q-13 -47 -8 -60
q4 -8 15.5 0t17.5 16zM55 159q-6 53 -37 22q-42 -42 -57 -85q-7 -23 -3 -28.5t24 12.5zM4 -10l6 12q-6 15 -15 7q-8 -8 -1 -15q3 -3 10 -4z" />
    <glyph glyph-name="r.001" unicode="&#xe011;" horiz-adv-x="266" 
d="M-605 305q3 -4 0.5 -8t-6.5 -4t-7 4q-72 109 -204 120q-90 8 -171.5 -37.5t-132.5 -122.5t-63 -165q-17 -120 53.5 -203.5t222.5 -85.5q51 0 88 5q217 30 483 174q172 92 325 205q-15 20 -9.5 49.5t26.5 49.5q24 22 46.5 18.5t19.5 -32.5q-8 -45 -53 -81q6 -11 19 -14
q14 -4 31 0q5 1 8 -3t1 -8q-8 -15 -19 -30q-2 -3 -13.5 -21.5t-19 -29.5t-19 -31.5t-19 -36t-14.5 -33t-9 -30.5q-5 -28 6.5 -33.5t35.5 8.5q43 24 78 58q110 107 187 215q5 6 10.5 2.5t1.5 -10.5q-77 -110 -188 -218q-42 -41 -81 -61q-76 -37 -76 40q0 10 2 21.5t4.5 22
t8.5 23.5t10 22.5t12 24t12.5 22l13 22t12 19t12 18t9.5 14.5q-21 2 -34 11q-173 -125 -330 -208q-279 -146 -487 -174q-38 -5 -91 -5q-82 0 -144 26t-96 69.5t-47.5 97.5t-5.5 114q20 144 131.5 247t253.5 90q66 -5 122.5 -38.5t93.5 -88.5zM7 206q16 12 28.5 31t15.5 35
q2 10 -5 10q-14 0 -28 -24q-6 -9 -8 -17q-6 -19 -3 -35z" />
    <glyph glyph-name="s.001" unicode="&#xe012;" horiz-adv-x="268" 
d="M-555 390q3 -4 0.5 -8t-6.5 -4t-7 4q-72 109 -204 120q-90 8 -171.5 -37.5t-132.5 -122.5t-63 -165q-17 -120 53.5 -203.5t222.5 -85.5q51 0 88 5q217 30 483 174q167 89 320 202q35 35 72.5 21.5t15.5 -61.5q-2 -5 -6.5 -5.5t-6.5 3t0 8.5q15 32 -5.5 38t-40.5 -22
q-11 -13 -16 -32q-5 -17 -6 -37.5t0 -35t4 -39.5t4 -35q116 48 159 77q36 23 66 53q3 2 6.5 2t4.5 -2q5 -4 0 -11q-33 -32 -75 -58t-73 -40t-87 -36q4 -67 -20.5 -119t-88.5 -72q-44 -13 -68 8t-14.5 58.5t51.5 68.5q32 26 99 55q-1 16 -5 51.5t-3.5 62.5t7.5 52l3 10
q-136 -98 -290 -180q-279 -146 -487 -174q-38 -5 -91 -5q-82 0 -144 26t-96 69.5t-47.5 97.5t-5.5 114q20 144 131.5 247t253.5 90q66 -5 122.5 -38.5t93.5 -88.5zM5 41q-70 -34 -93 -51q-50 -39 -45 -80q4 -28 32 -31q13 -1 28 6q78 32 78 156z" />
    <glyph glyph-name="t.001" unicode="&#xe013;" horiz-adv-x="271" 
d="M-499 498q3 -4 0.5 -8t-6.5 -4t-7 4q-72 109 -204 120q-90 8 -171.5 -37.5t-132.5 -122.5t-63 -165q-17 -120 53.5 -203.5t222.5 -85.5q51 0 88 5q217 30 483 174q154 82 327 206q0 1 1 2q-146 21 -169 -30q-5 -9 -13 -3q-4 3 -2 8q32 65 193 40q22 36 34 53q9 10 17.5 9
t13.5 -9.5t1 -15.5q-17 -25 -28 -44l22 -4q22 -4 36 -6t34.5 -3.5t33 0t16.5 7.5q2 4 6.5 3.5t6.5 -4t0 -8.5q-5 -6 -14 -9.5t-22.5 -4t-26.5 0t-29.5 3t-27.5 4.5l-25.5 4.5t-18.5 3.5q-59 -98 -116.5 -224t-61.5 -199q-1 -16 4.5 -22.5t16 -3t21 9t24.5 15.5
q103 78 253 248q3 4 7.5 2.5t5.5 -5.5t-2 -8q-159 -178 -257 -249q-74 -58 -98 -6q-14 31 11.5 113.5t60.5 157.5t72 140q-154 -110 -300 -187q-279 -146 -487 -174q-38 -5 -91 -5q-82 0 -144 26t-96 69.5t-47.5 97.5t-5.5 114q20 144 131.5 247t253.5 90q66 -5 122.5 -38.5
t93.5 -88.5z" />
    <glyph glyph-name="u.001" unicode="&#xe014;" 
d="M-586 323q3 -4 0.5 -8t-6.5 -4t-7 4q-72 109 -204 120q-90 8 -171.5 -37.5t-132.5 -122.5t-63 -165q-17 -120 53.5 -203.5t222.5 -85.5q50 0 88 5q217 30 483 174q172 92 325 205q8 8 16.5 6.5t14.5 -8t3 -11.5q-5 -10 -20.5 -38t-21.5 -42q-18 -36 -26 -56
q-15 -35 -12 -36.5t24 23.5l52 61l47 57q9 11 24 2.5t10 -19.5q-1 -3 -24.5 -49t-35.5 -74.5t-12 -41.5q-1 -8 2.5 -11.5t11.5 -2.5q22 2 68 33q30 21 65.5 49l60.5 49l64.5 55.5l58.5 50.5q6 6 11 -1q4 -5 -1 -10q-148 -134 -251 -205q-45 -33 -74 -38q-33 -3 -38 31v23
q9 51 33 105l-9 -12l-52 -61q-33 -38 -52 -31q-35 17 45 168q-148 -106 -300 -186q-279 -146 -487 -174q-37 -5 -91 -5q-82 0 -144 26t-96 69.5t-47.5 97.5t-5.5 114q20 144 131.5 247t253.5 90q66 -5 122.5 -38.5t93.5 -88.5z" />
    <glyph glyph-name="v.001" unicode="&#xe015;" horiz-adv-x="364" 
d="M-579 341q3 -4 0.5 -8t-6.5 -4t-7 4q-72 109 -204 120q-90 8 -171.5 -37.5t-132.5 -122.5t-63 -165q-17 -120 53.5 -203.5t222.5 -85.5q51 0 88 5q217 30 483 174q163 86 327 207q6 5 15 3.5t15.5 -8.5t2.5 -13l-9 -14q-59 -96 -60 -165q-1 -21 4 -27t12.5 -2t21.5 17
q15 14 35 38q25 30 55 76q-9 41 11 103q11 37 29.5 55t33.5 14q8 -2 11 -11t-1 -29t-18 -47l-50 -89q5 -25 22 -39q15 -10 40 -8q70 4 183 123q4 3 8.5 1.5t5.5 -5t-1 -7.5q-123 -123 -194 -128q-31 -3 -51 12q-18 13 -25 34q-29 -45 -47 -66q-8 -10 -36 -38
q-19 -18 -36 -22.5t-28 7.5t-11 42q-2 77 41 157q-148 -106 -299 -186q-279 -146 -487 -174q-38 -5 -91 -5q-82 0 -144 26t-96 69.5t-47.5 97.5t-5.5 114q20 144 131.5 247t253.5 90q66 -5 122.5 -38.5t93.5 -88.5zM117 152l38 70q31 60 15 63q-12 3 -29 -29q-7 -12 -12 -27
q-12 -44 -12 -77z" />
    <glyph glyph-name="w.001" unicode="&#xe016;" horiz-adv-x="499" 
d="M-583 339q3 -4 0.5 -8t-6.5 -4t-7 4q-72 109 -204 120q-90 8 -171.5 -37.5t-132.5 -122.5t-63 -165q-17 -120 53.5 -203.5t222.5 -85.5q51 0 88 5q217 30 483 174q164 88 329 208q5 6 14.5 5t16.5 -7.5t3 -13.5q-33 -50 -51 -107q-12 -54 0 -54q5 0 17 10q30 26 84 106
q9 15 24 5.5t10 -21.5q-19 -57 -18 -94q0 -15 1.5 -24.5t5.5 -16t12 -4.5t20 12q16 12 34 34q25 31 54 76q-7 48 12 103q14 49 44 69q19 10 27.5 1.5t5.5 -27.5q-7 -30 -23 -61q-11 -22 -50 -89q5 -25 22 -39q15 -10 40 -8q72 5 185 123q5 6 11 -1q4 -5 0 -10
q-117 -122 -194 -128q-32 -3 -51 12q-15 12 -24 34q-20 -32 -48 -66q-17 -21 -36 -35q-25 -23 -50.5 -19.5t-34.5 36.5q-8 35 3 86q-31 -47 -57 -66q-25 -21 -44 -12.5t-20 38.5q-2 49 34 117q-141 -102 -301 -187q-279 -146 -487 -174q-38 -5 -91 -5q-82 0 -144 26
t-96 69.5t-47.5 97.5t-5.5 114q20 144 131.5 247t253.5 90q66 -5 122.5 -38.5t93.5 -88.5zM250 152l38 70q18 39 21 55q2 8 1 12.5t-8 0.5q-26 -16 -39 -61q-13 -42 -13 -77z" />
    <glyph glyph-name="x.001" unicode="&#xe017;" horiz-adv-x="388" 
d="M-592 319q3 -4 0.5 -8t-6.5 -4t-7 4q-72 109 -204 120q-90 8 -171.5 -37.5t-132.5 -122.5t-63 -165q-17 -120 53.5 -203.5t222.5 -85.5q50 0 88 5q217 30 483 174q141 75 291 180q42 30 61 31q17 0 31 -12q15 -12 21 -42q50 53 86.5 77t65.5 9q4 -2 4 -6t-3.5 -7t-7.5 -1
q-24 12 -58.5 -13t-83.5 -78q2 -7 4 -21.5t2 -15.5q1 -7 2 -21t2 -21.5t3 -18t4.5 -18t5.5 -12.5q18 -29 64 -5q78 39 223 201q5 6 11.5 0.5t1.5 -11.5q-147 -162 -232 -204q-55 -26 -84 -1q-27 25 -37 115l-29.5 -31l-27 -27t-27.5 -23t-23.5 -13.5t-22.5 -5t-19 8.5
q-4 3 -2.5 7.5t5 5.5t7.5 -2q7 -2 12 -4t15.5 4t17.5 10.5t18.5 15l19 17.5t18 18t15.5 17l12 14t8 9q-5 41 -11 56q-13 23 -60 -12q-147 -105 -296 -185q-279 -146 -487 -174q-37 -5 -91 -5q-82 0 -144 26t-96 69.5t-47.5 97.5t-5.5 114q20 144 131.5 247t253.5 90
q66 -5 122.5 -38.5t93.5 -88.5z" />
    <glyph glyph-name="y.001" unicode="&#xe018;" horiz-adv-x="353" 
d="M-587 323q3 -4 0.5 -8t-6.5 -4t-7 4q-72 109 -204 120q-90 8 -171.5 -37.5t-132.5 -122.5t-63 -165q-17 -120 53.5 -203.5t222.5 -85.5q51 0 88 5q217 30 483 174q154 82 327 206q6 6 16 4.5t16 -8.5q4 -8 2 -11q-76 -162 -66 -168h6q25 10 168 196q13 19 38 27
q19 7 17 -9v-2q-85 -195 -86 -196q134 72 239 163q6 6 11 -1q6 -6 -1 -11q-115 -101 -260 -174q-150 -327 -260 -387q-29 -18 -59 -10t-38 42q-16 55 31 125q36 55 86 99t85 64.5t107 58.5l79 172q-109 -145 -153 -168q0 -2 -3 -4q-5 -3 -15 -3q-11 2 -15 14q-4 9 -3 27
q5 45 43 128q-155 -110 -305 -189q-279 -146 -487 -174q-38 -5 -91 -5q-82 0 -144 26t-96 69.5t-47.5 97.5t-5.5 114q20 144 131.5 247t253.5 90q66 -5 122.5 -38.5t93.5 -88.5zM44 -16q-90 -47 -147.5 -90t-105.5 -116q-42 -63 -30 -113q12 -56 73 -14q13 10 44 42
q42 47 117 194z" />
    <glyph glyph-name="z.001" unicode="&#xe019;" horiz-adv-x="403" 
d="M-590 320q3 -4 0.5 -8t-6.5 -4t-7 4q-72 109 -204 120q-90 8 -171.5 -37.5t-132.5 -122.5t-63 -165q-17 -120 53.5 -203.5t222.5 -85.5q50 0 88 5q217 30 483 174q201 108 370 257q28 26 65 38t69 4q31 -7 40 -30t0.5 -49.5t-28.5 -47.5q-15 -16 -39 -33q34 -22 36 -68
q31 21 105 64.5t112 69.5q4 3 7.5 0.5t3.5 -6.5t-3 -7q-42 -29 -121 -76.5l-105 -63.5q-6 -46 -38 -107q-41 -81 -112 -170.5t-134 -117.5q-25 -14 -51 -9t-26 37q4 60 77 150q90 106 242 209q12 54 -20 78q-5 -2 -13.5 -6.5l-16 -8.5t-14.5 -7q-12 -7 -18 -8
q-46 -18 -54.5 2.5t30.5 44.5q42 25 88 11q19 13 39 44q40 61 2 83q-23 11 -56.5 1t-56.5 -33q-149 -139 -373 -260q-279 -146 -487 -174q-37 -5 -91 -5q-82 0 -144 26t-96 69.5t-47.5 97.5t-5.5 114q20 144 131.5 247t253.5 90q66 -5 122.5 -38.5t93.5 -88.5zM-97 -314
q57 44 113.5 117.5t92.5 144.5q22 46 29 71q-139 -95 -224 -199q-73 -86 -73 -138q0 -15 7.5 -19t18.5 0.5t20 10.5t16 12zM54 105q3 2 20.5 11t24.5 14q-30 7 -55 -8q-16 -10 -21 -18t3.5 -8t27.5 9z" />
    <glyph glyph-name="a.002" unicode="&#xe01a;" horiz-adv-x="422" 
d="M766 -101q-3 4 -0.5 8t6.5 4t7 -4q72 -109 204 -120q90 -8 171.5 37.5t132.5 122.5t63 165q17 120 -53.5 203.5t-222.5 85.5q-50 0 -88 -5q-27 -4 -54.5 -10t-58 -16.5l-53.5 -18.5t-58 -24l-52.5 -23.5t-55.5 -27.5l-49 -26l-52 -28t-46 -25q-50 -27 -132.5 -78
t-144.5 -84t-116 -47q-49 -13 -62.5 9.5t-1.5 65.5q15 64 55 126l-123 -121q-30 -25 -51 -16.5t-16 35.5q6 34 40.5 76.5t66.5 47.5q43 8 43 -40l70 72q5 5 14 4.5t16 -5.5t4 -12q-3 -6 -10.5 -18.5l-11.5 -19.5q-51 -88 -66 -127q-5 -13 -7.5 -22t-4 -20.5t2.5 -15.5t13 -7
t26 5q54 17 115 49t142 81.5t132 76.5q8 4 70 37l82.5 43.5t76.5 37t88.5 38t79 25t86.5 18.5q38 5 91 5q82 0 144 -26t96 -69.5t47.5 -97.5t5.5 -114q-20 -144 -131.5 -247t-253.5 -90q-66 5 -122.5 38.5t-93.5 88.5zM52 158q0 24 -8 31.5t-28 -8.5q-43 -40 -64 -85
q-9 -22 -5.5 -28t24.5 12q53 49 81 78z" />
    <glyph glyph-name="b.002" unicode="&#xe01b;" horiz-adv-x="373" 
d="M915 33q-3 4 -0.5 8t6.5 4t7 -4q72 -109 204 -120q90 -8 171.5 37.5t132.5 122.5t63 165q8 85 -20 147t-82 93.5t-120.5 42.5t-141.5 1q-101 -14 -200 -51t-185.5 -85.5t-166 -98.5t-173 -102t-176.5 -83q-54 -18 -120 -32q-39 -42 -90.5 -65.5t-93.5 -17.5q-28 1 -42 17
t-5 34t41 25q2 0 6 0.5t5 0.5q47 114 125 235.5t157 191.5q44 37 74 46q55 21 81.5 -8t-10.5 -80q-36 -46 -127 -104.5t-155 -82.5q-62 -98 -101 -192h4q81 101 120 125q28 18 46 7t13 -44q-4 -26 -32 -69q79 22 104 31q78 29 170 79.5t173.5 101t169 99.5t187.5 86.5
t198 50.5q82 11 154.5 -1.5t127.5 -48t83 -100.5t19 -152q-20 -144 -131.5 -247t-253.5 -90q-66 5 -122.5 38.5t-93.5 88.5zM305 528q-26 -12 -73 -55q-65 -67 -137 -179q67 30 144 79.5t110 93.5q29 38 13.5 58t-57.5 3zM5 80q65 6 72 7q33 40 47 73q15 39 -1 36
q-5 -1 -12 -5q-37 -26 -106 -111zM-77 38q0 2 2 8t3 10q-23 -5 -30.5 -15.5t2 -19.5t30.5 -9q61 -4 128 57l-66 -6q-22 -25 -36 -46q-7 -9 -22 1t-11 20z" />
    <glyph glyph-name="c.002" unicode="&#xe01c;" horiz-adv-x="347" 
d="M920 53q-3 4 -0.5 8t6.5 4t7 -4q72 -109 204 -120q90 -8 171.5 37.5t132.5 122.5t63 165q17 120 -53.5 203.5t-222.5 85.5q-50 0 -88 -5q-217 -30 -483 -174q-114 -60 -283.5 -172.5t-278.5 -164.5q-127 -59 -155 0q-18 39 14 99.5t72 90.5q12 8 23.5 12.5t24 6
t22.5 -5.5t14 -23q1 -4 -2.5 -6.5t-7.5 -1.5t-5 6q-6 20 -35 -1q-2 -1 -3 -2q-25 -18 -54 -63t-34 -80q-12 -73 96 -28q7 2 26 11q108 53 291 172.5t268 164.5q279 146 487 174q37 5 91 5q82 0 144 -26t96 -69.5t47.5 -97.5t5.5 -114q-20 -144 -131.5 -247t-253.5 -90
q-66 5 -122.5 38.5t-93.5 88.5z" />
    <glyph glyph-name="d.002" unicode="&#xe01d;" horiz-adv-x="444" 
d="M849 -96q-3 4 -0.5 8t6.5 4t7 -4q72 -109 204 -120q90 -8 171.5 37.5t132.5 122.5t63 165q17 120 -53.5 203.5t-222.5 85.5q-51 0 -88 -5q-217 -30 -483 -174q-164 -88 -329 -208q-67 -48 -109 -66q-60 -22 -82.5 -0.5t-15.5 74.5q10 75 50 157q-70 -79 -106 -115
q-28 -24 -49.5 -15.5t-19.5 33.5q2 35 33 77t63 47q42 8 47 -40l60 70q93 170 194 258q43 36 75 46q54 21 80.5 -8t-10.5 -80q-36 -46 -127 -104.5t-155 -82.5l-1 -2q-29 -49 -63 -125t-42 -126q-7 -40 6.5 -53.5t58.5 5.5q41 20 103 63q164 120 332 210q279 146 487 174
q38 5 91 5q82 0 144 -26t96 -69.5t47.5 -97.5t5.5 -114q-20 -144 -131.5 -247t-253.5 -90q-66 5 -122.5 38.5t-93.5 88.5zM411 528q-25 -11 -73 -55q-58 -59 -138 -179q67 30 144 79.5t111 93.5q28 38 13 58t-57 3zM56 159q-6 54 -38 22q-42 -42 -57 -85q-7 -22 -2.5 -28
t24.5 12z" />
    <glyph glyph-name="e.002" unicode="&#xe01e;" horiz-adv-x="329" 
d="M868 28q-3 4 -0.5 8t6.5 4t7 -4q72 -109 204 -120q90 -8 171.5 37.5t132.5 122.5t63 165q17 120 -53.5 203.5t-222.5 85.5q-50 0 -88 -5q-124 -17 -257.5 -71.5t-226.5 -110.5l-228 -141t-212 -127q-44 -25 -103 -51q-72 -29 -106 -5q-28 23 -21.5 63t34 82t59.5 65
q35 22 58.5 17t22 -32t-33.5 -52q-37 -26 -73 -36q-1 0 -6.5 -1t-7.5 -2q-30 -54 -17 -82q4 -7 8.5 -11t12 -5t12.5 -1.5t15 2.5l13.5 4t13.5 5t11 4q48 20 105 52q70 38 203.5 122l229.5 141.5t232 113.5t259 72q38 5 91 5q82 0 144 -26t96 -69.5t47.5 -97.5t5.5 -114
q-20 -144 -131.5 -247t-253.5 -90q-66 5 -122.5 38.5t-93.5 88.5zM56 214q-27 -19 -59 -73q36 9 68 33q30 23 28 43q-2 17 -25 5q-6 -3 -12 -8z" />
    <glyph glyph-name="f.002" unicode="&#xe01f;" horiz-adv-x="343" 
d="M608 -150q-5 7 4 11q6 2 9 -5q29 -56 79 -92.5t112 -48.5q134 -25 250 63t149 222q19 76 1 141.5t-81 114.5t-165 61q-49 5 -88 4q-222 -8 -498 -123q-37 -15 -74.5 -34t-81.5 -43.5l-65 -35.5q-120 -64 -195 -69q7 -58 -14.5 -135.5t-58.5 -112.5q-33 -28 -50.5 -15.5
t-15.5 54.5q4 60 74 214q-39 23 -26 51q6 15 24.5 17t31.5 -6q53 97 103 172q124 184 203 229q49 22 69.5 -3.5t-13.5 -84.5q-40 -68 -111 -119q-66 -49 -141 -78l-1 -3q-2 -2 -3 -4q-41 -64 -78 -136l5 -26q35 4 70 16t57 22.5t62 31.5l65 35.5t82.5 44t75.5 34.5
q295 117 503 122q43 1 91 -5q108 -11 174.5 -63.5t85 -122.5t-0.5 -150q-35 -141 -157 -231.5t-261 -62.5q-65 12 -117.5 51t-83.5 98zM54 222q71 32 116 68q69 48 109 114q27 46 11 62q-12 12 -40 -7l-16.5 -12.5t-17.5 -15l-15.5 -15t-16 -18t-14.5 -17t-15.5 -18.5
t-13.5 -17l-14 -18t-12 -16q-35 -48 -61 -90zM-120 -221q37 36 56 107.5t12 127.5q-2 0 -6.5 -0.5t-6.5 -0.5q-66 -135 -82 -212q-3 -15 -2.5 -24t7 -12t22.5 14zM-96 36l11 20q1 2 3 6.5t3 6.5q-7 4 -18.5 4t-14.5 -6q-7 -16 16 -31zM-53 30l-1 6l-3 -6h4z" />
    <glyph glyph-name="g.002" unicode="&#xe020;" horiz-adv-x="354" 
d="M627 -158q-5 7 4 11q6 3 9 -4q64 -114 196 -133q134 -21 247.5 71.5t140.5 228.5q16 76 -4.5 141t-85 111t-167.5 54q-51 3 -88 1q-219 -16 -493 -142q-154 -69 -318 -170q-157 -341 -270 -389q-28 -11 -53.5 -1t-31.5 40q-14 57 31 125q36 55 86 99t85 64.5t107 58.5
l87 189l-4 -8v2q-80 -90 -112 -122q-28 -24 -49 -15.5t-19 33.5q2 35 33 77t63 47q42 8 47 -40l63 73q0 1 5 3q11 3 23 -0.5t8 -11.5l-11 -25q-47 -111 -75 -171v-1q151 93 299 159q284 127 497 141q38 3 91 -1q66 -5 118.5 -25t84.5 -51.5t52 -72t22.5 -85.5t-5.5 -92
q-19 -91 -78 -167.5t-147 -117t-181 -25.5q-66 10 -120 46.5t-87 94.5zM11 -16q-90 -47 -147.5 -90t-105.5 -116q-42 -66 -30 -113q11 -50 62 -21q29 16 60.5 55.5t65.5 100t50.5 93.5zM55 159q-2 23 -10 30.5t-27 -8.5q-43 -43 -56 -85q-7 -23 -3.5 -28.5t23.5 12.5
q27 27 73 79z" />
    <glyph glyph-name="h.002" unicode="&#xe021;" horiz-adv-x="399" 
d="M753 -124q-3 4 -0.5 8t6.5 4t7 -4q72 -109 204 -120q90 -8 171.5 37.5t132.5 122.5t63 165q17 120 -53.5 203.5t-222.5 85.5q-51 0 -88 -5q-217 -30 -483 -174q-93 -50 -187 -111l-172 -115q-56 -32 -76 -8t2 78q6 17 39.5 76.5t36.5 86.5q2 25 -7.5 23.5t-25.5 -19.5
q-35 -39 -55 -69q-3 -4 -13.5 -19t-15.5 -21q-25 -45 -49 -44q-18 0 -12 25q0 2 1 4q43 127 73 188q69 147 153 229q34 34 68 47q52 19 81.5 -9.5t-1.5 -78.5q-29 -47 -113 -106t-146 -83q-37 -73 -65 -158l26 36q14 23 54 71q26 32 56.5 24t24.5 -57q-3 -19 -15.5 -44.5
t-33 -60.5l-26.5 -45l-8.5 -17t-7 -15.5t-5.5 -15t-1.5 -11.5t3 -8t9.5 -1.5t17 4.5t26 13l168 114q105 67 190 112q279 146 487 174q38 5 91 5q82 0 144 -26t96 -69.5t47.5 -97.5t5.5 -114q-20 -144 -131.5 -247t-253.5 -90q-66 5 -122.5 38.5t-93.5 88.5zM267 530
q-29 -10 -67 -55q-57 -66 -116 -179q65 33 135 82.5t98 92.5q24 38 6.5 57.5t-56.5 1.5z" />
    <glyph glyph-name="i.002" unicode="&#xe022;" horiz-adv-x="338" 
d="M726 -78q-2 4 0.5 7.5t6.5 3.5t7 -4q64 -112 197 -131q90 -13 173.5 28t138.5 115.5t72 161.5q23 119 -43 206t-218 98q-58 2 -88 -1q-221 -19 -491 -148q-59 -27 -181 -97l-64 -38.5t-71 -41.5t-60.5 -28t-73.5 -23q-45 -9 -61 24q-11 33 -1 74.5t31 72.5q7 9 26 1
q14 -5 8 -14q-19 -27 -35 -66.5t-7 -60.5q7 -21 38 -16q42 5 83 24t102 58t82 51q142 79 177 95q285 132 496 148q30 3 91 1q109 -6 178 -55t91 -118t7 -150q-27 -142 -144 -239t-258 -77q-66 9 -120.5 45.5t-88.5 93.5zM77 285q16 -16 -2 -33q-17 -16 -33 0t2 33
q17 17 33 0z" />
    <glyph glyph-name="j.002" unicode="&#xe023;" horiz-adv-x="264" 
d="M510 -123q-3 4 -0.5 8t6.5 4t7 -4q72 -109 204 -120q90 -8 171.5 37.5t132.5 122.5t63 165q17 120 -53.5 203.5t-222.5 85.5q-50 0 -88 -5q-217 -30 -483 -174q-147 -79 -284 -176l-7 -5q-120 -258 -213 -352q-25 -25 -51 -36.5t-46 -8.5t-34 16.5t-18.5 34t3 48.5
t27.5 56q68 95 289 241q50 105 89 197q5 12 26 8q17 -3 13 -13q-8 -21 -11 -25q-14 -35 -59 -135q127 90 269 165q279 146 487 174q38 5 91 5q82 0 144 -26t96 -69.5t47.5 -97.5t5.5 -114q-20 -144 -131.5 -247t-253.5 -90q-66 5 -122.5 38.5t-93.5 88.5zM-98 -6
q-212 -143 -268 -229q-23 -39 -24.5 -70.5t13 -45t42.5 -5t58 42.5q66 76 179 307zM62 285q6 -7 6 -16.5t-6 -16.5q-18 -16 -34 0t0 33q7 7 16.5 7t17.5 -7z" />
    <glyph glyph-name="k.002" unicode="&#xe024;" horiz-adv-x="405" 
d="M770 -119q-3 4 -0.5 8t6.5 4t7 -4q72 -109 204 -120q90 -8 171.5 37.5t132.5 122.5t63 165q17 120 -53.5 203.5t-222.5 85.5q-50 0 -88 -5q-217 -30 -483 -174q-59 -32 -207.5 -129t-184.5 -114q-55 -24 -78 22q-3 7 -4.5 14t-3 13t-1.5 14t-0.5 12.5t1 13t2 12t2.5 13.5
l2.5 12.5t3.5 13.5t3 13q-60 -60 -80 -90q-6 -10 -22 -0.5t-12 19.5q27 83 83.5 187.5t135 197.5t145.5 117q50 16 73 2.5t15.5 -48.5t-41.5 -69q-47 -44 -125.5 -92t-131.5 -68q-63 -99 -102 -199q39 44 85 87q62 57 91 63q31 6 41 -17q8 -22 -20 -55q-19 -18 -49 -31.5
t-55 -12.5q0 -1 -0.5 -3t-0.5 -4q0 -1 -2 -8t-3 -12q-12 -58 -2 -88q5 -13 11.5 -18t13 -3.5t18.5 7.5q66 31 191 116.5t201 126.5q279 146 487 174q37 5 91 5q82 0 144 -26t96 -69.5t47.5 -97.5t5.5 -114q-20 -144 -131.5 -247t-253.5 -90q-66 5 -122.5 38.5t-93.5 88.5z
M307 528q-79 -35 -210 -234q55 25 122.5 67t108.5 81q36 35 39 70q2 33 -38 24q-10 -3 -22 -8zM157 189q5 23 -22 6q-31 -20 -59 -50q-2 -1 -22 -19q26 -7 61.5 15t41.5 48z" />
    <glyph glyph-name="l.002" unicode="&#xe025;" horiz-adv-x="356" 
d="M757 -87q-3 4 -0.5 8t6.5 4t7 -4q72 -109 204 -120q90 -8 171.5 37.5t132.5 122.5t63 165q17 120 -53.5 203.5t-222.5 85.5q-50 0 -88 -5q-217 -30 -483 -174q-87 -47 -230 -145t-228 -138q-41 -18 -64 -10.5t-31 29t-4 55.5q14 107 101 252t173 220q41 36 73 46
q56 21 82.5 -8t-10.5 -80q-36 -46 -127 -104.5t-155 -82.5l-2 -2q-28 -48 -62 -124t-42 -127q-8 -40 6 -53.5t58 5.5q81 41 222 136.5t233 145.5q279 146 487 174q37 5 91 5q82 0 144 -26t96 -69.5t47.5 -97.5t5.5 -114q-20 -144 -131.5 -247t-253.5 -90q-66 5 -122.5 38.5
t-93.5 88.5zM299 528q-30 -14 -73 -55q-65 -67 -137 -179q67 30 144 79.5t110 93.5q29 38 13.5 58t-57.5 3z" />
    <glyph glyph-name="m.002" unicode="&#xe026;" horiz-adv-x="624" 
d="M989 -102q-3 4 -0.5 8t6.5 4t7 -4q72 -109 204 -120q90 -8 171.5 37.5t132.5 122.5t63 165q17 120 -53.5 203.5t-222.5 85.5q-51 0 -88 -5q-217 -30 -483 -174q-164 -88 -329 -208q-44 -31 -73 -45q-60 -33 -78 -8.5t12 78.5q8 16 48.5 75.5t47.5 86.5q8 29 -8 23
q-10 -4 -25 -19q-19 -19 -64 -73q-18 -24 -33 -38q-34 -37 -54 -18q-7 5 -10 19q-3 16 0 44q7 25 3 27.5t-23 -18.5q-61 -72 -83 -89q-20 -17 -29.5 -12t0.5 29q65 135 75 161q9 23 1.5 26t-25.5 -11q-33 -23 -67 -59q-5 -6 -10.5 -1.5t-1.5 11.5q48 48 71 63
q27 19 44.5 9.5t10.5 -44.5q-4 -22 -20 -66t-28 -67l51 61q34 40 56.5 32t14.5 -53l-5 -36q-2 -13 3 -12q3 1 16 16q5 5 15.5 17.5t16.5 18.5q34 45 64 76q29 28 52 18t19 -49q-2 -20 -16 -45.5t-40.5 -62t-31.5 -44.5q-7 -10 -11 -16.5t-9 -16.5t-7 -15t-3 -11.5t2.5 -8
t9.5 -1.5t17.5 4.5t27.5 13.5l67 43q164 120 332 210q279 146 487 174q38 5 91 5q82 0 144 -26t96 -69.5t47.5 -97.5t5.5 -114q-20 -144 -131.5 -247t-253.5 -90q-66 5 -122.5 38.5t-93.5 88.5z" />
    </font>
</defs>
</svg>
